<svg width="628" height="527" viewBox="0 0 628 527" fill="none" xmlns="http://www.w3.org/2000/svg">
<g clip-path="url(#clip0_338:1230)">
<path fill-rule="evenodd" clip-rule="evenodd" d="M521.858 294.732L511.369 312.737C522.585 319.209 531.352 329.196 536.311 341.151C541.271 353.107 542.145 366.363 538.8 378.865C535.454 391.368 528.076 402.418 517.807 410.305C507.539 418.192 494.953 422.474 482.002 422.489V443.261C499.517 443.222 516.531 437.42 530.415 426.752C544.299 416.084 554.281 401.143 558.817 384.238C563.353 367.334 562.191 349.408 555.51 333.229C548.83 317.051 537.003 303.522 521.858 294.732Z" fill="#D88B25"/>
<path fill-rule="evenodd" clip-rule="evenodd" d="M402.375 363.672C402.375 384.797 410.773 405.057 425.722 419.995C440.67 434.932 460.945 443.324 482.086 443.324V422.552C466.475 422.552 451.504 416.355 440.465 405.325C429.427 394.295 423.225 379.334 423.225 363.735L402.375 363.672Z" fill="#FFF1B6"/>
<path fill-rule="evenodd" clip-rule="evenodd" d="M482.359 284.189C471.874 284.122 461.479 286.13 451.774 290.095C442.068 294.061 433.244 299.906 425.809 307.294C418.375 314.682 412.476 323.467 408.454 333.143C404.432 342.819 402.366 353.195 402.375 363.672H423.163C423.16 355.947 424.68 348.296 427.637 341.158C430.594 334.02 434.929 327.533 440.395 322.069C445.861 316.606 452.351 312.271 459.493 309.314C466.636 306.357 474.292 304.835 482.023 304.835C492.341 304.814 502.478 307.542 511.391 312.737L521.879 294.732C509.862 287.808 496.23 284.171 482.359 284.189Z" fill="#2A368D"/>
<path fill-rule="evenodd" clip-rule="evenodd" d="M199.572 217.742C199.518 217.725 199.459 217.725 199.405 217.742C199.354 217.796 199.327 217.868 199.327 217.941C199.327 218.015 199.354 218.086 199.405 218.14C199.405 218.266 199.572 218.35 199.635 218.455L199.572 217.742Z" fill="white"/>
<path fill-rule="evenodd" clip-rule="evenodd" d="M199.572 78.373H199.446C199.38 78.4125 199.331 78.4749 199.308 78.5483C199.284 78.6217 199.289 78.701 199.32 78.7713C199.343 78.8194 199.379 78.8605 199.423 78.89C199.467 78.9196 199.519 78.9365 199.572 78.939V78.373Z" fill="#D6E4FD"/>
<path fill-rule="evenodd" clip-rule="evenodd" d="M327.09 1.04785C324.705 1.05339 322.419 2.00256 320.733 3.68774C319.046 5.37291 318.096 7.65689 318.091 10.0401V39.0081H616.652V10.0401C616.646 7.65689 615.696 5.37291 614.01 3.68774C612.324 2.00256 610.038 1.05339 607.653 1.04785H327.09Z" fill="#232323"/>
<path d="M327.09 1.04785C324.705 1.05339 322.419 2.00256 320.733 3.68774C319.046 5.37291 318.096 7.65689 318.091 10.0401V39.0081H616.652V10.0401C616.646 7.65689 615.696 5.37291 614.01 3.68774C612.324 2.00256 610.038 1.05339 607.653 1.04785H327.09Z" stroke="#666666" stroke-linejoin="round"/>
<path fill-rule="evenodd" clip-rule="evenodd" d="M390.901 13.1846C389.552 13.1846 388.234 13.5841 387.113 14.3327C385.992 15.0812 385.118 16.1451 384.602 17.3899C384.086 18.6347 383.951 20.0044 384.214 21.3259C384.477 22.6474 385.127 23.8612 386.08 24.8139C387.033 25.7666 388.248 26.4154 389.571 26.6783C390.893 26.9411 392.264 26.8062 393.51 26.2906C394.755 25.775 395.82 24.9019 396.569 23.7816C397.318 22.6613 397.718 21.3442 397.718 19.9969C397.718 18.1901 397 16.4574 395.721 15.1799C394.443 13.9023 392.709 13.1846 390.901 13.1846Z" fill="white"/>
<path d="M390.901 13.1846C389.552 13.1846 388.234 13.5841 387.113 14.3327C385.992 15.0812 385.118 16.1451 384.602 17.3899C384.086 18.6347 383.951 20.0044 384.214 21.3259C384.477 22.6474 385.127 23.8612 386.08 24.8139C387.033 25.7666 388.248 26.4154 389.571 26.6783C390.893 26.9411 392.264 26.8062 393.51 26.2906C394.755 25.775 395.82 24.9019 396.569 23.7816C397.318 22.6613 397.718 21.3442 397.718 19.9969C397.718 18.1901 397 16.4574 395.721 15.1799C394.443 13.9023 392.709 13.1846 390.901 13.1846V13.1846Z" stroke="#666666" stroke-linejoin="round"/>
<path fill-rule="evenodd" clip-rule="evenodd" d="M366.777 13.1846C365.429 13.1846 364.111 13.5841 362.99 14.3327C361.869 15.0812 360.995 16.1451 360.479 17.3899C359.963 18.6347 359.828 20.0044 360.091 21.3259C360.354 22.6474 361.003 23.8612 361.957 24.8139C362.91 25.7666 364.125 26.4154 365.447 26.6783C366.77 26.9411 368.141 26.8062 369.386 26.2906C370.632 25.775 371.697 24.9019 372.446 23.7816C373.195 22.6613 373.595 21.3442 373.595 19.9969C373.595 18.1901 372.877 16.4574 371.598 15.1799C370.32 13.9023 368.586 13.1846 366.777 13.1846Z" fill="white"/>
<path d="M366.777 13.1846C365.429 13.1846 364.111 13.5841 362.99 14.3327C361.869 15.0812 360.995 16.1451 360.479 17.3899C359.963 18.6347 359.828 20.0044 360.091 21.3259C360.354 22.6474 361.003 23.8612 361.957 24.8139C362.91 25.7666 364.125 26.4154 365.447 26.6783C366.77 26.9411 368.141 26.8062 369.386 26.2906C370.632 25.775 371.697 24.9019 372.446 23.7816C373.195 22.6613 373.595 21.3442 373.595 19.9969C373.595 18.1901 372.877 16.4574 371.598 15.1799C370.32 13.9023 368.586 13.1846 366.777 13.1846V13.1846Z" stroke="#666666" stroke-linejoin="round"/>
<path fill-rule="evenodd" clip-rule="evenodd" d="M342.654 13.1846C341.306 13.1846 339.988 13.5841 338.867 14.3327C337.746 15.0812 336.872 16.1451 336.356 17.3899C335.84 18.6347 335.705 20.0044 335.968 21.3259C336.231 22.6474 336.88 23.8612 337.834 24.8139C338.787 25.7666 340.002 26.4154 341.324 26.6783C342.647 26.9411 344.017 26.8062 345.263 26.2906C346.509 25.775 347.574 24.9019 348.323 23.7816C349.072 22.6613 349.472 21.3442 349.472 19.9969C349.472 18.1901 348.753 16.4574 347.475 15.1799C346.196 13.9023 344.462 13.1846 342.654 13.1846Z" fill="#FFF2CC"/>
<path d="M342.654 13.1846C341.306 13.1846 339.988 13.5841 338.867 14.3327C337.746 15.0812 336.872 16.1451 336.356 17.3899C335.84 18.6347 335.705 20.0044 335.968 21.3259C336.231 22.6474 336.88 23.8612 337.834 24.8139C338.787 25.7666 340.002 26.4154 341.324 26.6783C342.647 26.9411 344.017 26.8062 345.263 26.2906C346.509 25.775 347.574 24.9019 348.323 23.7816C349.072 22.6613 349.472 21.3442 349.472 19.9969C349.472 18.1901 348.753 16.4574 347.475 15.1799C346.196 13.9023 344.462 13.1846 342.654 13.1846V13.1846Z" stroke="#666666" stroke-linejoin="round"/>
<path d="M318.091 39.0083V225.141C318.096 227.525 319.046 229.809 320.733 231.494C322.419 233.179 324.705 234.128 327.09 234.134H607.653C610.038 234.128 612.324 233.179 614.01 231.494C615.696 229.809 616.646 227.525 616.652 225.141V39.0083H318.091Z" stroke="#666666" stroke-linejoin="round"/>
<path fill-rule="evenodd" clip-rule="evenodd" d="M622.001 235.37V236.02C622.048 236.016 622.094 236.001 622.134 235.975C622.174 235.95 622.208 235.915 622.231 235.873C622.259 235.846 622.282 235.814 622.297 235.778C622.312 235.742 622.32 235.703 622.32 235.664C622.32 235.625 622.312 235.586 622.297 235.55C622.282 235.514 622.259 235.482 622.231 235.454L622.001 235.37Z" fill="#FEFEFF"/>
<path fill-rule="evenodd" clip-rule="evenodd" d="M622.001 156.075V156.851C622.001 156.851 622.147 156.641 622.231 156.557C622.282 156.503 622.309 156.432 622.309 156.358C622.309 156.284 622.282 156.213 622.231 156.159C622.166 156.106 622.085 156.077 622.001 156.075Z" fill="#CCDDFD"/>
<path fill-rule="evenodd" clip-rule="evenodd" d="M197.139 44.8984C194.166 44.9039 191.316 46.0836 189.209 48.1804C187.103 50.2771 185.912 53.1208 185.896 56.0916V335.249C185.912 338.22 187.103 341.064 189.209 343.161C191.316 345.257 194.166 346.437 197.139 346.443H615.708C618.677 346.432 621.522 345.249 623.624 343.153C625.725 341.057 626.914 338.217 626.93 335.249V56.0916C626.914 53.1244 625.725 50.2839 623.624 48.1877C621.522 46.0916 618.677 44.9094 615.708 44.8984H197.139Z" fill="#232323"/>
<path d="M197.139 44.8984C194.166 44.9039 191.316 46.0836 189.209 48.1804C187.103 50.2771 185.912 53.1208 185.896 56.0916V335.249C185.912 338.22 187.103 341.064 189.209 343.161C191.316 345.257 194.166 346.437 197.139 346.443H615.708C618.677 346.432 621.522 345.249 623.624 343.153C625.725 341.057 626.914 338.217 626.93 335.249V56.0916C626.914 53.1244 625.725 50.2839 623.624 48.1877C621.522 46.0916 618.677 44.9094 615.708 44.8984H197.139Z" stroke="#434343" stroke-linejoin="round"/>
<path fill-rule="evenodd" clip-rule="evenodd" d="M185.916 73.9712V325.293H626.93V73.9712H185.916Z" fill="white"/>
<path d="M185.916 73.9712V325.293H626.93V73.9712H185.916Z" stroke="#434343" stroke-linejoin="round"/>
<path fill-rule="evenodd" clip-rule="evenodd" d="M619.064 231.681V232.289C621.762 233.24 624.35 234.477 626.784 235.978C626.838 235.996 626.897 235.996 626.951 235.978V235.37C624.463 233.86 621.819 232.623 619.064 231.681ZM185.937 249.728V250.504C188.331 253.7 190.961 256.713 193.804 259.517V258.7C191.041 255.938 188.489 252.974 186.168 249.833C186.108 249.77 186.025 249.732 185.937 249.728ZM605.157 229.292C599.861 229.284 594.618 230.338 589.739 232.394C583.593 235.363 577.86 239.119 572.685 243.566C568.875 246.708 564.859 249.593 560.665 252.202C550.974 257.882 539.269 260.691 525.235 260.691C516.785 260.626 508.359 259.784 500.063 258.176C493.267 256.897 486.366 255.304 479.695 253.753C466.144 250.609 452.153 247.465 438.161 246.815C436.672 246.815 435.203 246.815 433.714 246.815C422.728 246.928 411.794 248.335 401.137 251.007V251.615C411.794 248.943 422.728 247.536 433.714 247.423C435.203 247.423 436.672 247.423 438.119 247.528C452.069 248.052 466.039 251.301 479.548 254.445C486.219 255.996 493.141 257.589 499.958 258.867C508.254 260.476 516.68 261.325 525.13 261.404C539.269 261.404 551.058 258.553 560.791 252.81C565.017 250.212 569.055 247.319 572.873 244.153C578.009 239.736 583.7 236.008 589.802 233.064C594.605 231.032 599.772 229.998 604.989 230.025C609.513 230.002 614.011 230.709 618.309 232.121V231.513C614.069 230.086 609.63 229.336 605.157 229.292ZM379.489 257.17C370.952 259.999 362.519 263.206 354.17 266.35C345.822 269.495 337.075 272.827 328.495 275.699C305.693 283.329 286.059 287.018 267.872 287.018C262.966 287.026 258.064 286.753 253.189 286.2C230.009 283.538 209.138 273.917 194.307 259.266V260.083C209.243 274.588 229.967 284.146 253.042 286.787C257.917 287.337 262.819 287.61 267.726 287.605C285.954 287.605 305.651 283.895 328.558 276.244C337.158 273.372 345.843 270.082 354.275 266.916C362.708 263.751 370.91 260.628 379.447 257.777L379.489 257.17Z" fill="#232323"/>
<path d="M619.064 231.681V232.289C621.762 233.24 624.35 234.477 626.784 235.978C626.838 235.996 626.897 235.996 626.951 235.978V235.37C624.463 233.86 621.819 232.623 619.064 231.681V231.681ZM185.937 249.728V250.504C188.331 253.7 190.961 256.713 193.804 259.517V258.7C191.041 255.938 188.489 252.974 186.168 249.833C186.108 249.77 186.025 249.732 185.937 249.728V249.728ZM605.157 229.292C599.861 229.284 594.618 230.338 589.739 232.394C583.593 235.363 577.86 239.119 572.685 243.566C568.875 246.708 564.859 249.593 560.665 252.202C550.974 257.882 539.269 260.691 525.235 260.691C516.785 260.626 508.359 259.784 500.063 258.176C493.267 256.897 486.366 255.304 479.695 253.753C466.144 250.609 452.153 247.465 438.161 246.815C436.672 246.815 435.203 246.815 433.714 246.815C422.728 246.928 411.794 248.335 401.137 251.007V251.615C411.794 248.943 422.728 247.536 433.714 247.423C435.203 247.423 436.672 247.423 438.119 247.528C452.069 248.052 466.039 251.301 479.548 254.445C486.219 255.996 493.141 257.589 499.958 258.867C508.254 260.476 516.68 261.325 525.13 261.404C539.269 261.404 551.058 258.553 560.791 252.81C565.017 250.212 569.055 247.319 572.873 244.153C578.009 239.736 583.7 236.008 589.802 233.064C594.605 231.032 599.772 229.998 604.989 230.025C609.513 230.002 614.011 230.709 618.309 232.121V231.513C614.069 230.086 609.63 229.336 605.157 229.292V229.292ZM379.489 257.17C370.952 259.999 362.519 263.206 354.17 266.35C345.822 269.495 337.075 272.827 328.495 275.699C305.693 283.329 286.059 287.018 267.872 287.018C262.966 287.026 258.064 286.753 253.189 286.2C230.009 283.538 209.138 273.917 194.307 259.266V260.083C209.243 274.588 229.967 284.146 253.042 286.787C257.917 287.337 262.819 287.61 267.726 287.605C285.954 287.605 305.651 283.895 328.558 276.244C337.158 273.372 345.843 270.082 354.275 266.916C362.708 263.751 370.91 260.628 379.447 257.777L379.489 257.17Z" stroke="#434343" stroke-linejoin="round"/>
<path fill-rule="evenodd" clip-rule="evenodd" d="M193.845 107.173C191.105 107.936 188.459 109.005 185.958 110.359V110.967H186.084C188.541 109.633 191.136 108.571 193.824 107.802C193.845 107.509 193.845 107.383 193.845 107.173Z" fill="#232323"/>
<path d="M193.845 107.173C191.105 107.936 188.459 109.005 185.958 110.359V110.967H186.084C188.541 109.633 191.136 108.571 193.824 107.802C193.845 107.509 193.845 107.383 193.845 107.173Z" stroke="#434343" stroke-linejoin="round"/>
<path fill-rule="evenodd" clip-rule="evenodd" d="M626.951 156.075C626.857 156.075 626.766 156.113 626.7 156.18C624.38 159.172 621.827 161.975 619.064 164.564V165.361C621.904 162.772 624.541 159.969 626.951 156.977V156.075ZM204.754 105.769C201.266 105.768 197.791 106.205 194.412 107.068C194.412 107.278 194.412 107.467 194.412 107.697C203.941 105.165 214.067 106.186 222.898 110.569C229.02 113.979 234.71 118.109 239.848 122.873C243.665 126.301 247.693 129.486 251.909 132.41C263.53 140.04 278.025 143.813 295.834 143.813C301.534 143.798 307.228 143.455 312.888 142.786C319.706 142.01 326.607 140.899 333.299 139.83C345.755 137.469 358.382 136.117 371.057 135.785H372.672C373.57 135.67 374.473 135.607 375.378 135.596C376.876 135.594 378.369 135.77 379.825 136.12C407.095 138.216 433.148 149.955 458.425 161.273C466.815 165.067 475.563 168.945 484.142 172.446C510.95 183.303 533.395 188.46 554.225 188.46C556.05 188.46 557.833 188.46 559.637 188.355C582.712 187.349 603.52 179.279 618.372 165.843V165.067C603.499 178.629 582.712 186.783 559.511 187.768C557.728 187.768 555.945 187.768 554.141 187.768C533.374 187.768 511.013 182.633 484.289 171.817C475.71 168.316 467.004 164.418 458.593 160.624C431.679 148.529 403.822 136.037 374.686 135.093C373.469 135.093 372.273 135.093 371.057 135.093C358.334 135.434 345.659 136.787 333.152 139.139C326.502 140.229 319.601 141.235 312.784 142.094C307.144 142.763 301.471 143.106 295.792 143.121C278.088 143.121 263.719 139.369 252.203 131.802C247.997 128.906 243.982 125.741 240.183 122.328C235.012 117.527 229.278 113.367 223.108 109.94C217.402 107.125 211.118 105.675 204.754 105.706V105.769Z" fill="#232323"/>
<path d="M626.951 156.075C626.857 156.075 626.766 156.113 626.7 156.18C624.38 159.172 621.827 161.975 619.064 164.564V165.361C621.904 162.772 624.541 159.969 626.951 156.977V156.075ZM204.754 105.769C201.266 105.768 197.791 106.205 194.412 107.068C194.412 107.278 194.412 107.467 194.412 107.697C203.941 105.165 214.067 106.186 222.898 110.569C229.02 113.979 234.71 118.109 239.848 122.873C243.665 126.301 247.693 129.486 251.909 132.41C263.53 140.04 278.025 143.813 295.834 143.813C301.534 143.798 307.228 143.455 312.888 142.786C319.706 142.01 326.607 140.899 333.299 139.83C345.755 137.469 358.382 136.117 371.057 135.785H372.672C373.57 135.67 374.473 135.607 375.378 135.596C376.876 135.594 378.369 135.77 379.825 136.12C407.095 138.216 433.148 149.955 458.425 161.273C466.815 165.067 475.563 168.945 484.142 172.446C510.95 183.303 533.395 188.46 554.225 188.46C556.05 188.46 557.833 188.46 559.637 188.355C582.712 187.349 603.52 179.279 618.372 165.843V165.067C603.499 178.629 582.712 186.783 559.511 187.768C557.728 187.768 555.945 187.768 554.141 187.768C533.374 187.768 511.013 182.633 484.289 171.817C475.71 168.316 467.004 164.418 458.593 160.624C431.679 148.529 403.822 136.037 374.686 135.093C373.469 135.093 372.273 135.093 371.057 135.093C358.334 135.434 345.659 136.787 333.152 139.139C326.502 140.229 319.601 141.235 312.784 142.094C307.144 142.763 301.471 143.106 295.792 143.121C278.088 143.121 263.719 139.369 252.203 131.802C247.997 128.906 243.982 125.741 240.183 122.328C235.012 117.527 229.278 113.367 223.108 109.94C217.402 107.125 211.118 105.675 204.754 105.706V105.769Z" stroke="#434343" stroke-linejoin="round"/>
<path fill-rule="evenodd" clip-rule="evenodd" d="M213.458 228.516V325.188H235.127V228.516H213.458Z" fill="#FFF4C7"/>
<path fill-rule="evenodd" clip-rule="evenodd" d="M245.658 208.792V325.188H267.264V208.792H245.658Z" fill="#F5E5F0"/>
<path fill-rule="evenodd" clip-rule="evenodd" d="M277.878 189.403V325.188H299.568V189.403H277.878Z" fill="#2A368D"/>
<path fill-rule="evenodd" clip-rule="evenodd" d="M310.098 165.633V325.188H331.767V165.633H310.098Z" fill="#FFF1B6"/>
<path fill-rule="evenodd" clip-rule="evenodd" d="M342.318 199.527V325.293H363.987V199.527H342.318Z" fill="#F5E5F0"/>
<path fill-rule="evenodd" clip-rule="evenodd" d="M374.56 152.449V325.188H396.208V152.449H374.56Z" fill="#FFF1B6"/>
<path fill-rule="evenodd" clip-rule="evenodd" d="M406.78 211.244V325.188H428.428V211.244H406.78Z" fill="#F5E5F0"/>
<path fill-rule="evenodd" clip-rule="evenodd" d="M438.979 173.012V325.188H460.648V173.012H438.979Z" fill="#2A368D"/>
<path fill-rule="evenodd" clip-rule="evenodd" d="M471.199 287.144V325.188H492.868V287.144H471.199Z" fill="#FFF1B6"/>
<path fill-rule="evenodd" clip-rule="evenodd" d="M503.42 163.454V325.188H525.068V163.454H503.42Z" fill="#F5E5F0"/>
<path fill-rule="evenodd" clip-rule="evenodd" d="M535.64 118.618V325.188H557.309V118.618H535.64Z" fill="#2A368D"/>
<path fill-rule="evenodd" clip-rule="evenodd" d="M567.86 214.409V325.272H589.529V214.409H567.86Z" fill="#FFF1B6"/>
<path fill-rule="evenodd" clip-rule="evenodd" d="M351.381 152.156C351.217 153.392 351.168 154.641 351.234 155.887C351.175 154.641 351.231 153.392 351.402 152.156H351.381ZM351.234 155.887C351.295 156.817 351.421 157.741 351.611 158.654C351.611 158.381 351.485 158.088 351.444 157.794C351.36 157.165 351.276 156.537 351.171 155.887H351.234Z" fill="#E6EFFE"/>
<path fill-rule="evenodd" clip-rule="evenodd" d="M352.681 162.175C353.812 164.891 355.557 167.308 357.778 169.239C355.568 167.298 353.825 164.883 352.681 162.175Z" fill="#E6EFFE"/>
<path d="M118.329 318.187C83.1724 318.187 54.6861 324.727 54.6861 332.86V357.363C54.6861 365.433 83.1724 372.036 118.329 372.036C153.486 372.036 181.952 365.496 181.952 357.363V332.776C181.931 324.727 153.444 318.187 118.329 318.187Z" fill="#898989"/>
<path d="M118.309 347.386C153.458 347.386 181.952 340.854 181.952 332.797C181.952 324.74 153.458 318.208 118.309 318.208C83.1594 318.208 54.6653 324.74 54.6653 332.797C54.6653 340.854 83.1594 347.386 118.309 347.386Z" fill="#A0A0A0"/>
<path d="M152.207 332.776C152.207 328.479 137.041 325 118.308 325C99.5763 325 84.3892 328.479 84.3892 332.776C84.3892 332.776 84.3892 332.986 84.3892 333.09V336.13C84.3892 336.235 84.3892 336.339 84.3892 336.444C84.3892 340.636 99.5763 344.221 118.308 344.221C137.041 344.221 152.207 340.741 152.207 336.444C152.217 336.34 152.217 336.234 152.207 336.13V332.776Z" fill="#898989"/>
<path d="M118.309 340.573C137.042 340.573 152.228 337.092 152.228 332.797C152.228 328.502 137.042 325.021 118.309 325.021C99.5754 325.021 84.3892 328.502 84.3892 332.797C84.3892 337.092 99.5754 340.573 118.309 340.573Z" fill="#AFAFAF"/>
<path d="M118.329 297.604C111.365 297.604 105.743 298.903 105.743 300.496V331.791C105.743 333.384 111.365 334.683 118.329 334.683C125.293 334.683 130.915 333.384 130.915 331.791V300.496C130.915 298.903 125.251 297.604 118.329 297.604Z" fill="#775851"/>
<path d="M118.308 303.389C125.259 303.389 130.894 302.094 130.894 300.496C130.894 298.899 125.259 297.604 118.308 297.604C111.357 297.604 105.722 298.899 105.722 300.496C105.722 302.094 111.357 303.389 118.308 303.389Z" fill="#896A64"/>
<path d="M233.429 439.048H316.916V431.397H233.429V439.048Z" fill="#775851"/>
<path d="M224.597 362.792H326.838V355.959H224.597V362.792Z" fill="#8C6D64"/>
<path d="M232.254 488.516L246.434 373.231L238.044 372.162L223.863 487.447C223.989 488.308 224.421 489.095 225.08 489.665C225.738 490.234 226.58 490.548 227.451 490.549C228.347 490.55 229.234 490.371 230.059 490.021C230.885 489.672 231.631 489.16 232.254 488.516Z" fill="#775851"/>
<path d="M318.657 488.516L304.477 373.231L312.868 372.162L327.048 487.447C326.922 488.312 326.487 489.102 325.824 489.672C325.161 490.242 324.315 490.553 323.44 490.549C322.547 490.549 321.663 490.368 320.842 490.019C320.02 489.67 319.277 489.158 318.657 488.516Z" fill="#775851"/>
<path d="M233.512 375.851H317.923V362.792H233.512V375.851Z" fill="#775851"/>
<path d="M113.652 213.592C113.652 213.592 121.602 235.727 124.581 237.97C126.376 239.328 128.344 240.441 130.433 241.282C130.433 241.282 134.775 251.594 136.118 252.202C137.46 252.81 139.558 249.058 140.922 249.498C142.775 250.75 144.522 252.152 146.145 253.69C146.593 253.542 147.048 253.416 147.508 253.313C147.508 253.313 147.718 254.655 148.096 254.885C148.473 255.116 150.046 254.403 150.613 254.885C152.199 256.618 154.038 258.102 156.067 259.287C157.892 259.895 163.367 258.092 164.877 256.499C166.387 254.906 166.975 251.406 168.967 250.924C171.352 250.792 173.743 251.026 176.058 251.615C176.058 251.615 184.134 219.797 183.336 219.293C182.539 218.79 148.851 201.833 148.536 201.833L113.652 213.592Z" fill="#F1B8A0"/>
<path d="M110.505 210.008C110.505 210.008 105.87 218.979 108.576 224.073C110.04 226.97 112.133 229.505 114.701 231.493L115.309 229.397C116.092 230.228 116.998 230.934 117.994 231.493C118.955 232.066 120.064 232.343 121.182 232.289C121.182 232.289 122.336 225.708 123.847 225.708C125.357 225.708 137.922 227.364 137.922 227.364L139.222 223.318C139.222 223.318 148.998 223.318 148.998 222.375C148.834 221.715 148.829 221.025 148.983 220.362C149.136 219.7 149.445 219.083 149.882 218.562C150.32 218.041 150.874 217.631 151.501 217.364C152.127 217.098 152.808 216.983 153.487 217.03C158.731 216.59 167.121 219.126 170.121 219.273C173.121 219.419 175.932 215.437 175.869 215.416C175.806 215.395 177.966 204.474 175.869 199.087C173.771 193.7 160.975 186.217 160.975 186.217C160.975 186.217 161.793 177.225 156.067 173.2C150.34 169.176 135.824 166.158 135.216 170.958C134.608 175.758 135.531 176.638 135.531 176.638C135.531 176.638 128.189 177.539 129.238 180.684C130.286 183.828 131.335 184.415 131.335 184.415C131.335 184.415 121.455 184.268 113.652 195.629C109.939 200.995 110.505 210.008 110.505 210.008Z" fill="#1C1B1D"/>
<path d="M139.306 223.318C139.306 222.521 136.999 215.038 141.698 213.341C144.047 212.502 150.382 217.638 151.578 220.132C152.847 222.084 154.249 223.947 155.773 225.708C156.36 226.902 152.081 231.493 151.788 231.493C151.494 231.493 139.306 223.318 139.306 223.318Z" fill="#F1B8A0"/>
<path d="M169.911 250.735H171.065C171.065 250.735 170.478 245.159 169.576 239.626C168.956 236.059 168.03 232.553 166.807 229.145C167.52 232.541 166.807 236.23 166.408 240.925C166.157 244.531 165.59 250.567 163.534 253.628C161.83 255.75 159.887 257.67 157.745 259.35C160.333 259.034 162.793 258.044 164.877 256.478C165.445 255.763 165.924 254.982 166.303 254.152C166.72 253.032 167.396 252.027 168.275 251.217C168.485 251.071 168.719 250.965 168.967 250.903C169.274 250.809 169.591 250.753 169.911 250.735Z" fill="#E0AB99"/>
<path d="M185.581 440.893C185.959 441.04 191.874 447.013 189.629 450.011C187.385 453.008 184.658 456.886 184.259 456.739C183.861 456.593 175.701 455.943 172.114 454.245C171.318 453.838 170.633 453.244 170.117 452.514C169.602 451.783 169.272 450.939 169.156 450.053C169.156 450.053 163.367 450.053 161.143 449.948C158.92 449.843 144.97 450.241 137.041 447.055C132.615 445.274 128.65 440.39 128.902 437.392C129.154 434.395 136.873 432.739 136.873 432.739L185.581 440.893Z" fill="#373738"/>
<path d="M191.454 395.093L186.546 428.987C186.378 429.902 186.378 430.839 186.546 431.754C187.595 436.596 188.224 444.875 186.021 446.678C181.826 450.157 171.904 443.576 166.429 442.674C160.954 441.773 141.089 438.482 139.013 435.799C136.936 433.116 156.172 429.762 163.828 426.367C169.555 423.83 171.128 401.528 171.128 401.528L191.454 395.093Z" fill="#E0AB99"/>
<path d="M206.306 333.719L192.902 419.869L166.366 408.927L180.19 330.324L206.306 333.719Z" fill="#7F8FA1"/>
<path d="M169.156 446.07C169.156 446.07 163.933 424.082 161.332 423.013C158.731 421.944 141.131 428.086 134.062 428.735C131.167 429.008 129.3 434.751 129.867 435.736C132.04 438.979 134.906 441.699 138.257 443.701C142.6 446.28 169.156 446.07 169.156 446.07Z" fill="#595958"/>
<path d="M213.48 449.864C214.277 449.654 221.073 453.846 221.766 457.64C222.161 460.653 222.161 463.704 221.766 466.716C217.961 469.918 213.961 472.879 209.788 475.583C207.292 476.694 201.104 475.394 200.013 476.191C198.922 476.987 196.51 481.473 194.328 482.982C189.952 485.753 185.016 487.521 179.875 488.159C172.449 489.249 154.095 487.258 152.186 483.674C150.277 480.089 153.109 476.086 153.109 476.086L169.261 471.013L213.48 449.864Z" fill="#373738"/>
<path d="M206.704 407.565C206.704 407.565 207.795 431.712 209.201 436.281C210.606 440.851 217.486 448.564 216.584 453.658C215.682 458.751 194.328 471.412 194.328 471.412C194.328 471.412 171.862 480.781 165.674 480.383C159.486 479.985 157.178 477.281 157.073 475.394C156.969 473.508 178.449 460.24 180.148 457.536C183.079 450.969 185.335 444.121 186.881 437.099C187.322 433.493 184.029 413.056 184.029 413.056L206.704 407.565Z" fill="#F1B8A0"/>
<path d="M175.638 453.364C175.829 453.005 176.09 452.688 176.405 452.43C176.72 452.172 177.083 451.979 177.473 451.862C177.863 451.745 178.272 451.706 178.678 451.748C179.083 451.79 179.475 451.912 179.833 452.107C185.748 455.293 199.362 462.587 201.25 462.923C203.642 463.321 208.34 467.513 206.138 469.42C203.935 471.328 198.754 474.199 195.251 476.589C191.748 478.979 182.287 484.47 176.498 484.785C170.708 485.099 155.521 482.689 154.22 480.593C152.92 478.496 152.542 473.78 154.829 471.684C157.115 469.588 168.904 461.707 171.212 459.925C173.009 457.973 174.501 455.761 175.638 453.364Z" fill="#595958"/>
<path d="M171.569 257.526C173.352 253.334 172.366 233.589 174.757 227.406C177.148 221.222 179.938 207.262 192.524 205.459C205.11 203.657 245.637 211.245 260.615 223.213C275.592 235.182 294.177 261.32 294.177 261.32C294.177 261.32 323.691 292.447 321.804 317.789C319.916 343.131 311.819 351.327 304.225 354.89C296.632 358.453 215.787 357.678 215.787 357.678L209.599 360.675V417.144L178.847 420.141C178.847 420.141 168.359 340.72 170.457 332.944C172.554 325.167 195.818 314.603 195.818 314.603C195.818 314.603 173.666 272.492 172.072 266.917C171.047 263.892 170.873 260.644 171.569 257.526Z" fill="#FFF1B6"/>
<path d="M298.603 259.538C298.326 259.159 297.975 258.84 297.572 258.598C297.17 258.356 296.722 258.198 296.257 258.131C295.792 258.065 295.318 258.092 294.864 258.211C294.409 258.331 293.983 258.54 293.611 258.826C284.045 266.183 253.965 290.854 244.84 297.813C239.689 301.853 234.225 305.476 228.499 308.65C228.084 308.874 227.627 309.009 227.157 309.048C220.696 309.593 170.52 314.079 160.765 321.918C150.277 330.303 135.593 389.412 135.593 389.999C135.593 390.586 154.766 404.965 158.961 411.945C161.059 415.404 162.863 418.548 164.164 420.854C164.429 421.315 164.795 421.71 165.234 422.01C165.673 422.31 166.174 422.508 166.699 422.589C167.225 422.669 167.762 422.63 168.271 422.475C168.78 422.32 169.247 422.053 169.639 421.692C176.603 415.236 192.713 400.144 197.286 393.793C201.209 388.427 205.676 382.139 208.11 378.429C208.384 378.024 208.739 377.681 209.154 377.422C209.568 377.163 210.033 376.993 210.517 376.924C211.001 376.855 211.494 376.888 211.965 377.021C212.435 377.153 212.873 377.383 213.249 377.695L217.759 381.384C218.215 381.765 218.761 382.022 219.345 382.132C219.929 382.242 220.531 382.201 221.094 382.013C230.282 378.995 271.019 365.517 277.731 361.471C285.346 356.923 307.288 336.549 310.476 325.167C313.371 314.896 311.021 282.763 310.476 276.684C310.415 276.035 310.183 275.413 309.805 274.882L298.603 259.538Z" fill="#3C3A3A"/>
<path d="M195.524 304.018C194.915 303.62 163.366 294.837 159.863 292.657C156.36 290.477 147.676 289.366 144.299 288.465C140.921 287.563 132.111 293.286 132.111 293.286L139.096 300.077L182.623 312.654L195.524 304.018Z" fill="#E0AB99"/>
<path d="M194.118 294.438C198.999 292.817 203.741 290.806 208.299 288.423C212.893 285.614 223.465 279.472 223.465 279.472C223.465 279.472 236.051 308.063 227.157 322.065C224.514 326.257 178.91 318.376 171.568 316.992C165.598 315.66 159.725 313.923 153.99 311.794C153.99 311.794 150.403 310.809 133.013 311.207C129.909 311.207 119.63 306.407 119.63 306.407C117.293 305.187 115.056 303.785 112.939 302.215C112.33 301.314 113.044 299.909 114.638 299.804C115.399 299.747 116.163 299.747 116.924 299.804L120.721 300.811C120.721 300.811 119.022 298.316 119.337 297.52C119.651 296.723 120.029 295.717 121.036 295.717C122.12 295.844 123.189 296.083 124.224 296.43C124.224 296.43 121.518 293.139 121.728 292.531C121.938 291.923 123.826 290.833 123.826 290.833C123.826 290.833 124.119 287.836 125.021 287.647C127.872 287.102 130.812 287.239 133.601 288.045C136.789 289.24 154.074 297.121 154.074 297.121C154.074 297.121 179.246 299.616 181.91 299.804C184.574 299.993 199.174 301.901 199.174 301.901L194.118 294.438Z" fill="#F1B8A0"/>
<path d="M199.384 302.446C199.384 302.446 201.481 304.143 202.488 304.835C203.495 305.527 210.564 308.021 210.564 308.021C210.564 308.021 206.075 305.338 204.88 304.542C204.167 304.06 200.684 301.88 198.02 300.14L199.195 301.859L195.881 301.419L199.594 305.338L199.384 302.446Z" fill="#E0AB99"/>
<path d="M60.5804 461.749C60.5804 461.749 70.7122 441.102 71.4673 438.482C72.2225 435.862 64.0835 421.587 62.8249 418.338C61.7408 414.59 60.9483 410.764 60.4546 406.894L31.0872 404.001C28.0584 407.006 25.4669 410.421 23.3887 414.146C21.5218 418.464 20.0115 422.971 20.0115 422.971C20.0115 422.971 14.6835 428.463 10.572 440.976C7.78212 449.361 9.87976 470.322 9.87976 470.322C9.87976 470.322 -2.32862 494.469 0.293462 501.26C1.59402 504.593 5.18099 507.024 8.51629 508.617C8.1167 509.828 8.04433 511.122 8.30651 512.369C9.56511 514.612 15.2288 516.247 16.844 515.87C17.8299 515.618 18.2914 512.642 18.5012 510.21L23.2 508.974C23.2 508.974 37.9885 509.728 41.1141 508.974C42.5809 508.696 43.996 508.194 45.3094 507.485C47.8776 508.995 50.6078 510.212 53.4484 511.112C55.3153 511.237 58.4408 511.489 59.196 510.231C59.9511 508.974 58.9442 503.608 56.8256 502.35L54.7279 501.092C54.7279 501.092 63.7479 493.337 60.8741 485.958C59.5159 481.893 56.7086 478.468 52.9869 476.337C52.9869 476.337 56.7417 471.202 57.371 470.573C58.6143 467.698 59.6859 464.751 60.5804 461.749Z" fill="#E3E3E5"/>
<path d="M48.9384 508.722C45.1835 506.144 45.4352 505.264 45.4352 505.264L45.645 498.808C45.5191 500.59 44.8269 504.887 40.9882 505.557C36.1006 506.396 21.8994 507.402 21.8994 507.402L17.3265 510.085L17.683 510.294L23.2629 508.827C23.2629 508.827 38.0514 509.582 41.177 508.827C42.6438 508.55 44.0589 508.048 45.3723 507.339C47.9405 508.849 50.6707 510.065 53.5113 510.965C55.3782 511.091 58.5037 511.343 59.2588 510.085C59.3218 510.085 52.6932 511.322 48.9384 508.722Z" fill="#CCCCCC"/>
<path d="M10.7819 481.871C11.0957 478.171 11.7559 474.507 12.7537 470.93C11.6376 468.3 10.9302 465.515 10.656 462.671C9.64912 456.383 10.656 440.914 10.656 440.914C7.86611 449.298 9.96374 470.259 9.96374 470.259C9.96374 470.259 8.47438 473.193 6.67038 477.281V477.448L6.16696 478.559L6.04111 478.853C5.85232 479.314 5.64256 479.775 5.45376 480.257C5.39608 480.365 5.34697 480.477 5.30691 480.593C5.16008 480.97 4.99226 481.326 4.84542 481.704C4.69859 482.081 4.69857 482.039 4.63564 482.228C4.57271 482.416 4.34201 482.94 4.21615 483.297L4.02737 483.758C3.83858 484.24 3.64977 484.722 3.48195 485.204C3.39945 485.373 3.32933 485.549 3.27217 485.728C3.16729 486.063 3.04146 486.399 2.9156 486.734C2.78974 487.07 2.76875 487.132 2.70582 487.342C2.64289 487.552 2.45408 488.013 2.34919 488.369L2.16041 488.893L1.71992 490.298C1.71992 490.486 1.615 490.675 1.55207 490.864C1.48914 491.052 1.38431 491.471 1.27943 491.765C1.17454 492.058 1.17453 492.184 1.13257 492.373C1.09062 492.561 0.96477 493.002 0.880864 493.316L0.755009 493.798C0.755009 494.238 0.566165 494.657 0.503235 495.077C0.440305 495.496 0.50326 495.412 0.398377 495.58L0.272522 496.376V496.879C0.272522 497.173 0.272522 497.445 0.272522 497.718C0.272522 497.99 0.272522 497.948 0.272522 498.053C0.272522 498.158 0.272522 498.745 0.272522 499.08C0.272522 499.416 0.272522 499.332 0.272522 499.457V500.065V500.401C0.272522 500.401 0.272522 500.506 0.272522 500.547C0.316018 500.76 0.372025 500.97 0.440307 501.176C1.74086 504.509 5.3279 506.941 8.66319 508.534C9.13755 506.589 9.71875 504.671 10.4042 502.79C11.2653 500.906 12.2828 499.097 13.4459 497.382C13.4459 497.382 10.9287 484.806 10.7819 481.871Z" fill="#CCCCCC"/>
<path d="M85.2284 514.591C84.5055 510.076 83.3751 505.635 81.8511 501.323C79.7534 495.957 78.2222 469.567 77.1524 466.549C76.0825 463.53 71.5096 437.413 71.5096 437.413V437.036L69.5169 431.733C67.2094 426.639 63.7273 420.288 62.9512 418.255C61.9912 415.053 61.2897 411.78 60.8535 408.466L60.2242 406.768L31.3183 403.917C28.2895 406.922 25.698 410.337 23.6199 414.063C21.753 418.381 20.2426 422.887 20.2426 422.887C20.2426 422.887 13.1106 432.194 12.3554 441.018C12.3554 442.108 12.3554 449.403 12.9218 454.517C13.4671 459.988 15.2921 464.033 15.6697 469.295C16.0473 474.556 16.6766 484.554 16.8025 488.809V489.585C16.8025 489.753 16.8025 489.941 16.8025 490.151V490.36C16.8025 490.654 16.8025 490.947 16.8025 491.283C16.8025 491.576 16.8025 491.912 16.8025 492.247V492.582C16.8025 492.855 16.8025 493.148 16.8025 493.442V493.777L16.6766 495.056V495.286L16.5507 496.481V496.921L16.4249 497.969V498.389C16.4249 498.871 16.32 499.374 16.257 499.877L16.0683 501.323V501.7L15.8795 503.147C15.8795 503.692 15.7326 504.237 15.6697 504.782V504.907L15.4809 506.396V506.542C15.2711 508.156 15.0614 509.707 14.8726 511.091C14.3691 514.738 13.9916 517.379 13.9916 517.379C13.9916 517.379 11.8939 523.667 12.4813 524.506C13.6377 525.667 15.0876 526.493 16.6766 526.895C17.6835 527.021 22.1934 526.015 23.2003 524.254C24.2072 522.494 23.2003 515.388 23.2003 515.388C23.2003 515.388 23.536 512.726 24.0604 508.764V508.24L24.1652 507.402L24.2911 506.458L24.417 505.452C24.417 504.844 24.5848 504.195 24.6687 503.545V503.126L24.8575 501.763V501.134C24.8575 500.736 24.9623 500.359 25.0253 499.94C25.0882 499.52 25.1721 498.703 25.2561 498.053C25.2561 497.781 25.256 497.487 25.3609 497.194C25.4658 496.9 25.4658 496.334 25.5288 495.894L25.6336 495.014L25.8853 492.918V492.268L26.0741 490.696V489.983C26.0741 489.438 26.221 488.872 26.2839 488.327L26.3888 487.468C26.3888 486.965 26.5146 486.441 26.5566 485.938V485.267C26.5566 484.75 26.6195 484.247 26.7454 483.758V483.297C26.7454 482.689 26.8922 482.102 26.9552 481.536V481.054C26.9552 480.593 26.9552 480.173 27.081 479.754V479.335C27.081 478.811 27.1859 478.308 27.2279 477.826V477.616C27.2279 477.218 27.2279 476.862 27.2279 476.505V476.191C27.2279 475.793 27.2279 475.436 27.2279 475.122C27.8572 467.241 30.4792 464.914 33.2482 463.237C39.2055 459.611 53.4068 457.997 59.4061 461.141C59.7766 461.322 60.1279 461.54 60.4549 461.791C67.6499 467.01 70.1042 485.518 71.4677 489.459C72.8312 493.4 75.3064 513.606 75.3064 513.606C75.5711 516.214 75.9914 518.804 76.565 521.362C77.5888 521.867 78.6862 522.206 79.8164 522.368C80.5716 522.494 81.5575 523.625 82.6902 523.625C84.0649 523.404 85.4093 523.024 86.6968 522.494C86.6968 522.494 89.0671 521.739 89.1929 520.23C89.3188 518.721 85.2284 514.591 85.2284 514.591Z" fill="#EDEEF6"/>
<path d="M75.6628 459.925C73.9427 451.226 71.4675 437.413 71.4675 437.413V437.036L71.1528 436.176C69.7946 437.655 68.7398 439.385 68.0483 441.27C66.1604 446.762 66.2862 451.268 68.0483 453.658C69.9583 456.01 72.2398 458.035 74.8028 459.653C75.0823 459.764 75.3698 459.856 75.6628 459.925Z" fill="#E3E3E5"/>
<path d="M57.6859 435.024C57.2034 436.155 53.8052 442.423 55.819 443.408C57.8327 444.393 57.0775 442.569 59.322 441.836C61.5665 441.102 65.3214 440.473 65.9507 439.341C66.58 438.21 66.8317 432.76 65.9507 431.607C65.0697 430.454 59.9514 429.196 58.6928 430.706C57.8892 431.994 57.5351 433.513 57.6859 435.024Z" fill="#E3E3E5"/>
<path d="M41.7859 431.984C43.1066 431.984 44.1772 430.445 44.1772 428.546C44.1772 426.648 43.1066 425.109 41.7859 425.109C40.4652 425.109 39.3945 426.648 39.3945 428.546C39.3945 430.445 40.4652 431.984 41.7859 431.984Z" fill="#CE996A"/>
<path d="M32.9964 407.25C32.9964 407.25 31.9686 416.829 40.7368 419.219C49.5051 421.609 54.3507 419.429 58.525 415.341C60.0983 413.769 60.6227 414.985 60.6227 414.985C60.6227 414.985 61.3988 414.084 59.5109 417.458C57.7625 420.027 55.3696 422.091 52.5718 423.445C49.7739 424.798 46.6693 425.394 43.5686 425.172C40.0361 424.853 36.7181 423.339 34.1628 420.881C31.6075 418.423 29.9677 415.167 29.5143 411.652C29.349 411.124 29.3151 410.564 29.4157 410.02C29.5162 409.477 29.7482 408.966 30.0914 408.532C30.4346 408.098 30.8786 407.755 31.3849 407.531C31.8912 407.308 32.4444 407.211 32.9964 407.25Z" fill="#853A4B"/>
<path d="M77.6348 520.272C76.7119 519.433 74.7191 508.722 74.7191 508.722C75.1176 511.657 75.3484 513.711 75.3484 513.711C75.6131 516.319 76.0334 518.909 76.6069 521.466C77.6319 521.968 78.7289 522.308 79.8584 522.472C80.6135 522.598 81.6204 523.73 82.7532 523.73C80.8686 522.866 79.1393 521.698 77.6348 520.272Z" fill="#DBDBDD"/>
<path d="M88.0604 521.362C87.86 521.327 87.6688 521.252 87.4991 521.14C87.3294 521.028 87.1848 520.882 87.0745 520.712C87.0745 520.712 87.3681 522.347 87.0745 522.473C87.7457 522.2 89.1721 521.487 89.1721 520.376C89.256 520.439 88.7106 521.445 88.0604 521.362Z" fill="#DBDBDD"/>
<path d="M87.0534 522.536C86.7746 522.653 86.4751 522.714 86.1724 522.714C85.8698 522.714 85.5702 522.653 85.2914 522.536C84.7268 522.257 84.243 521.838 83.8859 521.32C83.8859 521.32 84.8299 522.619 84.725 522.955C84.6202 523.29 83.4874 523.625 82.7532 523.73C84.1206 523.506 85.4578 523.126 86.7388 522.598L87.0534 522.536Z" fill="#DBDBDD"/>
<path d="M16.9704 525.323V525.218C16.9967 525.634 16.9249 526.051 16.7606 526.434C16.6011 526.643 16.3779 526.796 16.1244 526.867C15.871 526.939 15.6011 526.927 15.3552 526.832L15.8796 526.979C16.7485 526.964 17.6106 526.823 18.4388 526.56C18.1032 526.51 17.788 526.368 17.5286 526.15C17.2693 525.932 17.076 525.645 16.9704 525.323Z" fill="#DBDBDD"/>
<path d="M20.0538 522.535C20.1248 523.498 20.1248 524.465 20.0538 525.428C19.928 525.889 19.3197 526.245 18.6484 526.581C19.4326 526.359 20.1917 526.057 20.9139 525.679C20.5783 525.323 20.0538 522.535 20.0538 522.535Z" fill="#DBDBDD"/>
<path d="M15.3131 526.727C14.9355 526.581 14.0335 526.057 14.0964 525.616C14.1593 525.176 14.0964 521.676 14.0964 521.676C14.0601 522.782 13.8911 523.88 13.593 524.946C13.2364 525.428 11.7051 524.506 11.7051 524.506C12.7105 525.527 13.9485 526.289 15.3131 526.727Z" fill="#DBDBDD"/>
<path d="M36.7929 380.001C36.4153 379.812 16.1308 369.772 13.0263 373.713C9.92175 377.653 13.1312 380.944 14.9142 382.349C16.9311 384.518 18.8155 386.807 20.557 389.203C21.8575 390.607 28.9477 392.577 28.9477 392.577C28.9477 392.577 27.1646 403.372 28.57 406.642C29.9755 409.912 33.143 416.913 37.8837 419.953C44.764 424.354 56.9305 419.135 59.4687 416.599C62.0069 414.062 66.5168 402.806 66.5168 400.731C66.5168 398.656 65.468 395.198 66.5168 393.416C67.5657 391.634 72.6211 392.012 74.2992 390.88C75.9774 389.748 77.1101 384.696 77.1101 382.16C77.1101 379.624 73.7328 371.91 68.4887 372.769C64.4604 373.763 60.6634 375.529 57.3081 377.968C57.3081 377.968 48.6238 378.513 44.4075 378.89C40.1912 379.267 36.7929 380.001 36.7929 380.001Z" fill="#E3E3E5"/>
<path d="M43.2747 407.25C43.2747 407.25 46.652 406.307 47.3022 407.711C47.9525 409.115 43.5474 413.895 43.2747 413.245C43.002 412.595 39.7506 410.667 39.3311 409.053C38.6179 406.286 43.2747 407.25 43.2747 407.25Z" fill="#070707"/>
<path d="M19.7388 376.501C15.1029 375.494 14.3687 375.746 13.1101 376.501C12.662 376.806 12.2472 377.157 11.8725 377.549C12.247 379.506 13.3773 381.238 15.019 382.37C17.0359 384.539 18.9202 386.828 20.6617 389.224C21.9623 390.628 29.0524 392.599 29.0524 392.599C30.1462 391.692 30.9721 390.504 31.4414 389.164C31.9108 387.823 32.0058 386.38 31.7164 384.99C30.5208 380.378 24.2697 377.486 19.7388 376.501Z" fill="#444444"/>
<path d="M69.6842 392.012C69.4234 391.661 69.1433 391.325 68.8452 391.006C67.9222 390 67.7124 384.256 68.7193 381.615C69.7262 378.974 64.8387 380.253 64.3352 382.621C63.8318 384.99 66.5587 393.437 66.5587 393.437C67.0202 392.578 68.2788 392.284 69.6842 392.012Z" fill="#444444"/>
</g>
<defs>
<clipPath id="clip0_338:1230">
<rect width="628" height="527" fill="white"/>
</clipPath>
</defs>
</svg>
