<svg width="659" height="521" viewBox="0 0 659 521" fill="none" xmlns="http://www.w3.org/2000/svg">
<g clip-path="url(#clip0_338:1343)">
<path d="M168.349 413.539C192.745 413.539 212.522 410.187 212.522 406.052C212.522 401.917 192.745 398.564 168.349 398.564C143.953 398.564 124.177 401.917 124.177 406.052C124.177 410.187 143.953 413.539 168.349 413.539Z" fill="#A8886D"/>
<path d="M216.683 424.858C215.289 419.743 212.588 406.052 212.588 406.052C212.588 410.187 192.81 413.539 168.437 413.539C144.063 413.539 124.264 410.187 124.264 406.052C124.264 406.052 121.585 419.743 120.169 424.858C118.509 429.628 116.454 434.251 114.026 438.68C117.155 443.943 119.732 449.516 121.715 455.309C123.161 460.53 124.016 465.896 124.264 471.307C124.264 477.01 144.041 481.668 168.437 481.668C192.832 481.668 212.588 477.01 212.588 471.307C212.836 465.895 213.699 460.528 215.158 455.309C217.138 449.519 219.707 443.946 222.825 438.68C220.397 434.251 218.343 429.628 216.683 424.858Z" fill="#D0A98A"/>
<path d="M166.433 448.649C148.487 448.388 130.724 445.007 113.939 438.658C117.068 443.922 119.645 449.495 121.628 455.288C123.074 460.508 123.929 465.875 124.177 471.286C124.177 476.989 143.954 481.647 168.349 481.647C192.745 481.647 212.501 476.989 212.501 471.286C212.749 465.873 213.611 460.506 215.071 455.288C217.051 449.497 219.62 443.925 222.738 438.658L222.585 438.332C207.709 443.098 187.996 448.649 166.433 448.649Z" fill="#A8886D"/>
<path d="M168.349 414.388C150.249 414.388 123.327 412.212 123.327 406.052C123.327 399.892 150.249 397.65 168.349 397.65C186.45 397.65 213.35 399.827 213.35 405.965C213.35 412.103 186.428 414.388 168.349 414.388ZM168.349 399.413C157.94 399.318 147.54 400.046 137.245 401.59C127.596 403.244 125.026 405.181 125.026 406.052C125.026 406.922 127.596 408.881 137.245 410.514C147.539 412.068 157.94 412.796 168.349 412.69C178.752 412.795 189.146 412.067 199.432 410.514C209.081 408.881 211.673 406.944 211.673 406.052C211.673 405.159 209.081 403.244 199.432 401.59C189.145 400.047 178.751 399.319 168.349 399.413Z" fill="#E9CCB9"/>
<path d="M199.541 411.689L197.863 411.385C198.43 408.163 201.457 392.034 205.574 390.532C206.378 390.158 207.269 390.009 208.151 390.101C209.034 390.193 209.874 390.523 210.584 391.055C214.744 394.516 213.002 406.074 212.762 407.379L211.107 407.097C211.629 403.81 212.392 394.755 209.495 392.361C209.011 392.018 208.442 391.815 207.851 391.773C207.26 391.731 206.668 391.851 206.14 392.121C203.788 392.97 200.869 404.18 199.541 411.689Z" fill="#E9CCB9"/>
<path d="M124.373 404.898C124.264 403.135 123.48 387.659 129.491 385.2C130.41 384.723 131.439 384.5 132.473 384.553C133.507 384.607 134.508 384.935 135.372 385.504C140.012 388.835 139.336 400.11 139.315 400.588L137.638 400.48C137.812 397.476 137.638 389.183 134.392 386.876C133.748 386.456 133.001 386.221 132.232 386.198C131.464 386.175 130.704 386.365 130.036 386.745C125.876 388.465 125.679 400.349 125.963 404.789L124.373 404.898Z" fill="#E9CCB9"/>
<path d="M170.941 418.763H165.235C154.947 418.541 144.699 417.412 134.61 415.39C129.273 414.301 122.935 412.604 122.434 411.972C122.358 411.875 122.304 411.762 122.274 411.642C122.244 411.523 122.239 411.398 122.26 411.276C122.307 411.056 122.438 410.863 122.625 410.737C122.811 410.611 123.04 410.562 123.262 410.601C123.376 410.639 123.486 410.69 123.588 410.753C125.069 411.45 141.384 416.5 165.278 417.087C195.206 417.806 209.429 412.495 213.067 410.841C213.167 410.795 213.275 410.769 213.385 410.765C213.495 410.761 213.605 410.779 213.708 410.817C213.811 410.856 213.906 410.914 213.986 410.989C214.067 411.064 214.132 411.154 214.178 411.254C214.224 411.354 214.249 411.462 214.253 411.572C214.257 411.682 214.239 411.792 214.201 411.895C214.162 411.998 214.104 412.092 214.029 412.173C213.954 412.253 213.864 412.318 213.764 412.364C209.32 414.323 196.578 418.763 170.941 418.763ZM123.915 411.341C123.926 411.406 123.926 411.472 123.915 411.537C123.94 411.475 123.955 411.408 123.959 411.341H123.915Z" fill="#E9CCB9"/>
<path d="M170.288 426.447H165.256C150.346 426.107 135.552 423.742 121.28 419.416C121.173 419.38 121.075 419.322 120.992 419.248C120.908 419.173 120.839 419.082 120.791 418.981C120.742 418.88 120.714 418.77 120.708 418.658C120.702 418.546 120.719 418.434 120.757 418.328C120.831 418.119 120.984 417.947 121.184 417.849C121.383 417.752 121.613 417.736 121.824 417.806C135.963 422.065 150.622 424.358 165.387 424.619C196.273 425.38 212 419.003 214.831 417.719C215.037 417.628 215.27 417.621 215.481 417.698C215.692 417.775 215.865 417.931 215.964 418.132C216.053 418.34 216.057 418.575 215.976 418.786C215.894 418.998 215.734 419.169 215.528 419.264C212.718 420.548 198.234 426.447 170.288 426.447Z" fill="#E9CCB9"/>
<path d="M169.896 434.109H165.256C140.513 433.521 119.864 427.187 119.167 426.316C119.091 426.219 119.036 426.106 119.006 425.986C118.976 425.867 118.972 425.742 118.992 425.62C119.025 425.484 119.09 425.357 119.182 425.252C119.274 425.146 119.39 425.064 119.521 425.013C119.651 424.962 119.792 424.943 119.931 424.957C120.071 424.972 120.204 425.02 120.321 425.097C134.889 429.672 150.033 432.156 165.3 432.476C197.166 433.26 214.592 425.794 216.465 424.945C216.67 424.855 216.903 424.847 217.114 424.924C217.325 425.002 217.498 425.157 217.597 425.359C217.644 425.461 217.67 425.572 217.674 425.685C217.677 425.798 217.658 425.911 217.618 426.016C217.577 426.121 217.516 426.218 217.438 426.299C217.359 426.381 217.266 426.446 217.162 426.491C215.354 427.187 199.257 434.109 169.896 434.109ZM120.648 425.729C120.659 425.801 120.659 425.874 120.648 425.946C120.673 425.854 120.681 425.758 120.67 425.663L120.648 425.729Z" fill="#E9CCB9"/>
<path d="M169.373 441.77C168.023 441.77 166.65 441.77 165.256 441.77C153.96 441.379 142.73 439.863 131.735 437.243C126.572 436.22 121.518 434.711 116.64 432.737C116.563 432.636 116.507 432.52 116.477 432.397C116.447 432.273 116.443 432.144 116.466 432.019C116.513 431.8 116.645 431.609 116.832 431.486C117.02 431.364 117.248 431.321 117.468 431.366C117.584 431.399 117.695 431.45 117.794 431.518C133.172 436.638 149.209 439.512 165.409 440.051C198.081 440.856 218.403 431.823 219.253 431.344C219.353 431.297 219.461 431.27 219.571 431.266C219.682 431.261 219.792 431.278 219.895 431.317C219.999 431.356 220.094 431.414 220.174 431.49C220.255 431.566 220.319 431.657 220.364 431.758C220.414 431.857 220.443 431.966 220.45 432.077C220.456 432.188 220.439 432.299 220.4 432.404C220.361 432.508 220.301 432.603 220.224 432.683C220.146 432.763 220.053 432.826 219.95 432.868C219.013 433.347 200.02 441.77 169.373 441.77ZM118.012 432.324C118.021 432.374 118.021 432.426 118.012 432.476C118.046 432.393 118.054 432.302 118.034 432.215L118.012 432.324Z" fill="#E9CCB9"/>
<path d="M168.763 449.454H165.169C153.271 448.985 141.453 447.286 129.905 444.383C122.281 442.511 113.7 439.877 113.199 439.246C113.123 439.148 113.068 439.036 113.038 438.916C113.008 438.796 113.004 438.671 113.024 438.549C113.071 438.33 113.203 438.139 113.391 438.017C113.578 437.894 113.807 437.851 114.026 437.896C114.136 437.917 114.24 437.961 114.331 438.027C130.763 443.699 147.931 446.962 165.3 447.713C184.792 448.273 204.2 444.943 222.389 437.918C222.491 437.87 222.601 437.843 222.713 437.838C222.825 437.833 222.937 437.851 223.042 437.889C223.147 437.927 223.244 437.986 223.326 438.062C223.409 438.138 223.475 438.23 223.522 438.331C223.61 438.537 223.614 438.768 223.532 438.976C223.451 439.184 223.29 439.351 223.086 439.442C205.771 446.168 187.34 449.565 168.763 449.454ZM114.68 438.745C114.68 438.745 114.68 438.745 114.68 438.854C114.68 438.963 114.789 438.767 114.789 438.723L114.68 438.745Z" fill="#E9CCB9"/>
<path d="M169.939 457.138H165.256C154.363 456.843 143.51 455.679 132.802 453.655C128.446 452.806 119.384 450.847 118.818 450.107C118.737 450.012 118.679 449.9 118.649 449.779C118.619 449.658 118.617 449.532 118.644 449.411C118.691 449.192 118.823 449 119.01 448.878C119.198 448.756 119.426 448.712 119.646 448.758C119.749 448.779 119.846 448.823 119.929 448.888C134.719 452.957 149.962 455.151 165.3 455.418C198.408 456.223 216.508 448.192 217.271 447.865C217.371 447.818 217.479 447.791 217.589 447.787C217.7 447.782 217.81 447.799 217.913 447.838C218.017 447.876 218.112 447.935 218.192 448.011C218.272 448.087 218.337 448.178 218.382 448.279C218.471 448.481 218.478 448.711 218.4 448.918C218.323 449.125 218.168 449.294 217.968 449.389C217.227 449.694 200.455 457.138 169.939 457.138ZM120.234 449.193C120.277 449.357 120.277 449.53 120.234 449.694C120.292 449.532 120.292 449.355 120.234 449.193Z" fill="#E9CCB9"/>
<path d="M170.266 464.821H165.256C140.752 464.212 122.238 458.923 121.541 458.03C121.465 457.932 121.411 457.82 121.381 457.7C121.351 457.58 121.346 457.455 121.367 457.334C121.414 457.115 121.545 456.923 121.733 456.801C121.921 456.679 122.149 456.635 122.369 456.681C122.486 456.697 122.598 456.742 122.695 456.811C136.54 460.858 150.876 462.982 165.3 463.123C194.901 463.863 210.279 458.008 214.265 456.18C214.368 456.133 214.479 456.107 214.592 456.104C214.705 456.1 214.817 456.119 214.923 456.16C215.028 456.2 215.124 456.262 215.206 456.34C215.288 456.418 215.353 456.512 215.397 456.615C215.444 456.716 215.47 456.826 215.473 456.937C215.476 457.049 215.457 457.159 215.416 457.263C215.375 457.367 215.314 457.461 215.236 457.54C215.158 457.62 215.065 457.683 214.962 457.725C211.128 459.401 197.079 464.821 170.266 464.821ZM123.022 457.29C123.034 457.391 123.034 457.494 123.022 457.595C123.033 457.494 123.033 457.391 123.022 457.29Z" fill="#E9CCB9"/>
<path d="M171.094 472.505C169.221 472.505 167.26 472.505 165.256 472.505C155.058 472.303 144.898 471.203 134.893 469.218C129.687 468.151 123.523 466.497 122.979 465.844C122.901 465.748 122.847 465.634 122.821 465.514C122.795 465.393 122.796 465.268 122.826 465.148C122.847 465.04 122.889 464.938 122.95 464.847C123.01 464.755 123.088 464.677 123.18 464.616C123.271 464.556 123.373 464.514 123.481 464.493C123.588 464.472 123.699 464.472 123.806 464.495C123.935 464.508 124.057 464.562 124.155 464.647C125.745 465.387 141.34 470.241 165.3 470.829C194.4 471.547 208.123 466.824 212.653 464.778C212.753 464.732 212.861 464.706 212.971 464.702C213.081 464.698 213.191 464.716 213.294 464.754C213.397 464.793 213.492 464.851 213.573 464.926C213.653 465.001 213.718 465.091 213.764 465.191C213.81 465.291 213.835 465.399 213.839 465.509C213.843 465.619 213.826 465.729 213.787 465.832C213.749 465.935 213.69 466.029 213.615 466.11C213.54 466.191 213.45 466.256 213.35 466.301C209.037 468.173 196.578 472.505 171.094 472.505Z" fill="#E9CCB9"/>
<path d="M168.981 480.928H164.625C132.693 480.21 123.959 472.679 123.588 472.352C123.43 472.193 123.341 471.978 123.341 471.754C123.341 471.53 123.43 471.314 123.588 471.155C123.665 471.078 123.757 471.016 123.858 470.974C123.959 470.932 124.067 470.91 124.177 470.91C124.286 470.91 124.394 470.932 124.495 470.974C124.596 471.016 124.688 471.078 124.765 471.155C124.895 471.286 133.651 478.599 164.712 479.318C193.638 479.992 207.121 473.811 211.564 471.786L211.978 471.591C212.183 471.503 212.415 471.499 212.623 471.581C212.831 471.662 212.998 471.822 213.089 472.026C213.178 472.228 213.185 472.458 213.108 472.665C213.03 472.872 212.875 473.041 212.675 473.136L212.261 473.332C207.97 475.16 195.359 480.928 168.981 480.928Z" fill="#E9CCB9"/>
<path d="M137.136 162.921L137.812 163.444C138.291 163.814 138.727 164.206 139.184 164.597C140.099 165.381 140.97 166.208 141.841 167.057C143.606 168.733 145.305 170.474 146.96 172.259C150.251 175.818 153.327 179.568 156.174 183.491C159.037 187.342 161.483 191.486 163.47 195.854C164.427 197.947 165.157 200.136 165.648 202.384C165.888 203.472 166.041 204.713 166.215 205.91C166.389 207.107 166.52 208.326 166.672 209.545C167.87 219.231 168.72 229.026 169.722 238.821C170.223 243.718 170.724 248.616 171.464 253.535L171.769 255.385C171.769 256.016 171.987 256.626 172.096 257.257L172.27 258.193L172.488 259.129L172.706 260.065C172.706 260.217 172.706 260.413 172.706 260.522V260.87V261.24C172.719 261.363 172.719 261.487 172.706 261.61V262.481C172.706 263.025 172.706 263.634 172.815 264.244C172.815 265.419 172.815 266.638 172.815 267.835C172.815 272.711 172.815 277.608 172.575 282.506C172.335 287.403 172.227 292.301 172.009 297.198C171.791 302.096 171.529 306.993 171.268 311.912L170.506 326.605C169.968 336.414 169.395 346.223 168.785 356.033L167.739 412.625H170.658C171.094 391.751 171.508 361.54 171.922 356.294C172.684 346.477 173.359 336.704 174.1 326.866C174.84 317.027 175.363 307.276 175.842 297.416C176.089 292.526 176.307 287.614 176.496 282.68C176.648 277.739 176.801 272.82 176.779 267.857C176.779 266.616 176.779 265.376 176.779 264.092C176.779 263.46 176.779 262.851 176.67 262.176V261.197C176.67 261.044 176.67 260.87 176.67 260.674L176.561 260.13V259.586C176.561 259.39 176.561 259.281 176.561 259.129L176.365 258.28L176.147 257.431L175.995 256.539C175.995 255.951 175.755 255.385 175.646 254.775L175.363 252.991C174.622 248.202 174.078 243.326 173.555 238.473C172.51 228.721 171.66 218.883 170.332 209.11C170.157 207.891 170.005 206.672 169.809 205.453C169.613 204.234 169.46 203.015 169.177 201.709C168.609 199.188 167.769 196.736 166.672 194.396C164.523 189.839 161.903 185.52 158.853 181.51C155.838 177.545 152.586 173.765 149.116 170.191C147.396 168.407 145.609 166.665 143.78 164.989C142.843 164.162 141.907 163.335 140.948 162.551L139.445 161.354L138.639 160.788L138.204 160.505L137.681 160.222L136.592 162.399L136.875 162.551L137.136 162.921Z" fill="#B1BCA0"/>
<path d="M88.0409 110.203C88.0409 110.203 88.0409 113.076 88.0409 115.645C88.0409 118.213 88.0409 119.497 88.0409 119.497C88.0409 119.497 94.7278 123.132 97.407 123.241C100.086 123.35 115.747 130.076 115.29 132.187C114.832 134.299 102.025 129.358 100.26 128.008C98.496 126.658 87.6053 123.328 87.6053 123.328C87.2128 125.193 87.5645 127.138 88.5854 128.748C90.398 130.896 92.3248 132.945 94.3575 134.886C94.2447 136.699 94.4063 138.519 94.8367 140.284C96.1024 142.447 97.7478 144.364 99.694 145.943C100.064 146.118 109.583 146.205 114.484 148.838C119.385 151.472 118.295 154.019 113.7 152.931C108.958 151.401 104.341 149.509 99.89 147.271C101.666 150.177 103.267 153.186 104.682 156.283C105.118 157.98 104.922 161.354 106.621 161.855C108.319 162.355 126.856 160.919 126.551 163.792C126.246 166.665 120.561 167.47 118.6 167.144C116.64 166.817 107.165 164.793 107.165 164.793C108.402 167.269 110.181 169.434 112.371 171.127C115.987 173.892 123.262 172.172 127.008 175.48C130.754 178.789 130.95 182.01 133.739 182.01C136.527 182.01 143.453 178.419 143.497 176.634C143.54 174.849 137.463 166.73 137.463 166.73C138.639 166.905 157.306 180.552 163.231 171.454C169.155 162.355 168.11 145.856 168.11 145.856C168.11 145.856 163.013 154.563 158.766 155.847C154.518 157.131 153.124 156.261 153.037 155.303C152.95 154.345 159.223 152.321 162.73 148.555C164.658 146.678 166.388 144.606 167.892 142.374C167.703 141.105 167.223 139.897 166.49 138.843C165.757 137.79 164.791 136.92 163.666 136.301C161.39 135.17 158.937 134.434 156.413 134.124C156.413 134.124 154.714 144.355 151.708 147.184C148.702 150.014 145.805 149.731 145.675 148.381C145.544 147.032 155.063 137.106 155.76 134.081C156.457 131.055 156.762 126.724 155.455 124.983C154.148 123.241 145.326 117.908 145.326 117.908C145.326 117.908 147.504 130.598 146.568 133.58C145.631 136.562 143.954 140.502 142.342 140.48C140.73 140.458 141.689 138.304 142.93 135.169C144.595 131.604 145.393 127.696 145.261 123.764C145.188 120.578 144.546 117.43 143.366 114.469C141.598 112.35 139.092 110.981 136.352 110.638C134.315 110.142 132.208 110.002 130.123 110.225C130.123 110.225 137.703 123.154 137.507 126.746C137.311 130.337 134.414 139.087 132.04 139.087C129.665 139.087 129.861 133.863 130.145 130.533C130.042 125.877 129.309 121.257 127.966 116.798C127.161 114.861 127.269 109.311 125.788 107.591C124.307 105.872 115.398 104.13 113.765 104.522C112.131 104.914 122.02 116.341 121.977 118.474C121.933 120.607 120.844 121.304 119.798 119.911C118.753 118.518 113.264 105.327 111.565 105.132C109.866 104.936 100.021 103.543 96.1436 104.239C94.0409 104.582 91.9815 105.151 90.0012 105.937C90.0012 105.937 92.5497 110.573 94.6843 111.161C96.8189 111.749 106.011 117.103 106.577 119.258C107.143 121.413 93.9872 114.513 91.4388 113.316C90.0381 112.615 88.8612 111.537 88.0409 110.203ZM139.271 145.443C140.796 146.27 140.382 152.43 137.245 151.625C134.109 150.819 131.451 150.863 132.737 148.381C134.022 145.9 137.725 144.616 139.271 145.443Z" fill="#296D60"/>
<path d="M178.238 412.516C178.5 395.386 178.761 373.032 179.001 371.4C179.719 366.633 180.351 361.866 180.939 357.077C181.527 352.289 181.985 347.478 182.311 342.624C182.311 341.427 182.442 340.187 182.507 338.968C182.507 338.358 182.507 337.727 182.507 337.096V335.311C182.507 333.134 182.725 330.631 182.878 328.28C183.575 318.747 184.468 309.17 185.361 299.614L188.083 270.926L190.85 242.238L191.525 235.055C191.656 233.88 191.743 232.639 191.873 231.551C192.004 230.462 192.2 229.243 192.396 228.068C193.159 223.41 194.117 218.709 195.097 214.029C197.079 204.647 199.257 195.223 201.436 185.907L207.97 157.85L205.552 157.219C204.267 161.855 202.96 166.491 201.719 171.127L198.016 185.079C195.576 194.374 193.159 203.69 190.98 213.093C189.891 217.794 188.802 222.496 187.931 227.284C187.713 228.474 187.517 229.693 187.343 230.941C187.147 232.225 187.038 233.379 186.907 234.576L186.123 241.737C185.034 251.285 183.981 260.841 182.965 270.404C180.917 289.536 178.892 308.625 177.389 327.867C177.236 330.305 177.04 332.677 176.975 335.224V337.03C176.975 337.618 176.975 338.184 176.975 338.772C176.975 339.947 176.975 341.101 176.801 342.298C176.539 347.043 176.234 351.81 175.886 356.599C175.559 361.365 175.211 366.154 174.927 370.964C174.818 372.684 174.71 395.364 174.622 412.625L178.238 412.516Z" fill="#B1BCA0"/>
<path d="M253.711 127.225C248.4 130.383 242.443 132.302 236.286 132.84C232.474 132.688 228.532 131.926 229.142 131.012C230.209 129.967 236.438 127.377 243.583 126.158C250.727 124.939 261.836 119.171 262.293 118.866C262.751 118.561 263.36 117.038 261.4 116.428C259.44 115.819 247.395 119.171 242.668 120.542C237.941 121.913 228.989 123.872 227.922 123.263C226.855 122.654 230.1 120.085 232.779 119.323C235.458 118.561 258.046 112.793 257.741 110.334C257.436 107.874 250.662 107.069 250.444 107.004C250.226 106.938 235.676 114.839 234.848 113.163C234.021 111.487 248.614 100.909 248.832 100.691C246.556 99.9262 244.133 99.6953 241.753 100.017C238.573 100.387 237.571 100.387 237.571 100.387C234.594 99.1266 231.52 98.1076 228.379 97.3393C225.853 97.0345 216.966 100.691 216.966 100.691L217.728 97.3175C215.889 95.8187 213.565 95.0445 211.194 95.1408C208.39 95.5966 205.746 96.7493 203.505 98.4929C203.505 98.4929 201.065 111.553 203.505 115.231C205.944 118.91 211.107 122.893 211.259 125.483C211.265 126.057 211.129 126.623 210.864 127.131C210.598 127.639 210.211 128.074 209.737 128.397C209.263 128.72 208.717 128.921 208.146 128.982C207.576 129.044 206.999 128.963 206.467 128.748C204.572 127.769 196.121 119.323 195.359 113.86C194.961 110.603 194.757 107.325 194.749 104.043C194.02 103.118 193.062 102.399 191.969 101.96C190.875 101.521 189.686 101.376 188.519 101.54C185.376 102.369 182.444 103.853 179.915 105.893C179.915 105.893 184.794 118.518 186.929 120.259C189.064 122.001 195.358 127.181 194.618 129.075C193.877 130.968 189.064 129.466 186.384 125.592C183.705 121.718 178.935 109.463 178.565 109.55C175.892 109.904 173.392 111.066 171.399 112.88C168.981 115.536 167.042 116.45 167.761 118.061C168.317 120.046 169.288 121.892 170.609 123.475C171.931 125.058 173.573 126.344 175.428 127.246C181.222 129.836 191.569 135.844 190.675 137.89C189.782 139.936 186.036 139.414 184.446 137.738C182.856 136.062 172.662 126.484 169.526 125.744C166.389 125.004 158.809 126.484 158.439 128.465C158.069 130.446 159.027 131.512 163.449 133.341C167.87 135.169 185.884 142.526 184.228 144.746C182.573 146.967 181.331 147.402 176.757 145.574C172.183 143.745 157.894 134.103 157.894 134.103C157.894 134.103 155.084 145.269 163.296 153.17C171.508 161.071 184.293 164.053 189.434 162.747C194.753 161.67 200.138 160.943 205.552 160.571C205.552 160.571 216.661 171.062 221.518 169.277C226.375 167.492 227.16 164.554 232.409 163.03C236.414 161.761 240.55 160.951 244.737 160.614C247.024 160.614 251.424 156.957 251.729 156.261C252.034 155.564 244.737 155.347 241.23 154.432C237.724 153.518 233.934 153.061 237.135 151.69C240.337 150.319 255.998 149.513 256.739 148.36C257.945 145.768 258.915 143.072 259.636 140.306C260.398 137.563 260.703 136.345 260.703 136.345C260.703 136.345 251.707 139.392 248.527 140.154C245.347 140.916 235.894 144.398 229.817 142.875C223.74 141.351 228.292 139.544 230.427 139.087C232.561 138.63 245.478 137.411 251.86 135.126C258.242 132.84 263.883 130.272 263.883 129.662V124.177C260.298 124.371 256.811 125.415 253.711 127.225ZM208.536 140.284C208.536 141.351 203.962 140.676 200.238 138.761C196.513 136.845 199.475 134.821 201.305 134.407C203.135 133.994 205.857 136.453 207.534 137.281C209.212 138.108 208.536 139.305 208.536 140.371V140.284ZM220.015 114.448C219.71 116.254 215.441 115.34 214.091 112.532C212.74 109.724 215.31 104.783 215.681 104.413C215.681 104.413 216.356 106.916 216.857 108.353C217.358 109.79 220.32 112.706 220.015 114.535V114.448Z" fill="#789E6D"/>
<path d="M243.452 179.812C239.091 181.442 234.914 183.529 230.993 186.037C227.068 188.551 223.418 191.469 220.102 194.744C216.79 198.025 213.866 201.677 211.39 205.627L210.475 207.129C210.159 207.629 209.868 208.145 209.604 208.674L209.19 209.458L208.819 210.285L208.449 211.091L208.122 211.918C207.283 214.055 206.556 216.234 205.944 218.448C203.489 227.35 201.576 236.392 200.216 245.525C198.778 254.601 197.58 263.722 196.513 272.842C194.335 291.104 192.832 309.409 191.481 327.715C190.545 340.775 189.717 384.111 189.02 411.842L193.485 411.385C194.008 383.698 194.683 340.84 195.446 327.976C196.578 309.692 197.95 291.408 199.802 273.212C200.738 264.113 201.806 255.015 203.156 245.982C204.297 236.949 205.984 227.994 208.21 219.166C208.82 216.988 209.547 214.845 210.388 212.745L210.693 211.961L211.041 211.221L211.368 210.459L211.738 209.719C211.977 209.217 212.246 208.73 212.544 208.261L213.415 206.824C215.75 202.987 218.536 199.443 221.714 196.268C224.916 193.086 228.442 190.248 232.235 187.8C236.025 185.33 240.062 183.258 244.28 181.619L243.452 179.812Z" fill="#8C9678"/>
<path d="M304.789 212.875C302.611 210.895 298.254 208.152 299.779 206.345C301.304 204.539 306.531 211.591 309.123 213.877C311.715 216.162 320.689 223.846 320.689 223.846C320.376 220.67 319.741 217.534 318.794 214.486C317.182 209.327 309.363 200.882 309.363 200.882C308.706 197.458 307.699 194.11 306.357 190.891C304.985 188.715 299.278 186.538 292.439 186.777C285.599 187.017 269.938 188.04 269.503 185.863C269.067 183.687 273.859 179.594 279.762 178.463C285.665 177.331 292.831 184.84 292.439 183.012C291.101 178.545 288.571 174.527 285.12 171.389C283.988 170.553 282.696 169.959 281.325 169.644C279.953 169.33 278.531 169.301 277.148 169.56C276.156 167.531 274.888 165.648 273.38 163.966C271.601 162.436 269.512 161.307 267.257 160.658C265.001 160.008 262.632 159.852 260.311 160.201C254.495 160.897 254.147 169.212 251.598 171.955C249.05 174.697 247.612 172.978 247.721 169.321C247.83 165.664 254.561 162.029 255.018 162.029C255.475 162.029 253.646 158.155 251.838 155.086C250.03 152.017 242.69 149.252 242.69 149.252C242.69 149.252 241.666 156.326 241.208 158.394C240.751 160.462 239.03 169.56 236.308 167.623C233.585 165.686 238.137 150.863 238.137 150.863C235.239 150.858 232.355 151.276 229.577 152.104C225.221 153.475 221.692 157.132 218.97 164.314C216.247 171.497 232.322 184.601 232.648 185.863C232.648 185.863 228.292 183.687 226.462 184.84C224.633 185.994 226.005 192.589 226.92 194.047C227.835 195.506 237.114 198.836 239.009 200.577C240.904 202.319 243.125 207.586 245.543 211.069C247.961 214.551 252.077 218.687 253.929 218.448C255.78 218.208 251.751 214.094 250.335 210.916C248.919 207.738 246.545 199.075 247.46 197.312C248.375 195.549 251.097 201.666 252.317 204.691C253.537 207.717 263.818 216.859 264.645 218.23C265.473 219.601 268.457 218.6 270.047 220.015C271.637 221.43 280.393 223.78 280.393 223.78C280.393 223.78 277.344 218.6 275.514 215.857C273.685 213.115 265.931 207.651 263.665 205.605C263.139 205.249 262.729 204.747 262.486 204.16C262.243 203.573 262.178 202.928 262.298 202.304C262.419 201.681 262.72 201.106 263.165 200.652C263.609 200.198 264.177 199.885 264.798 199.75C267.608 198.923 276.364 212.527 278.106 214.421C279.849 216.314 285.861 224.999 287.385 226.653C288.91 228.308 297.971 231.377 297.971 231.377C297.971 231.377 293.484 225.739 291.11 223.018C288.736 220.298 291.502 218.448 292.112 218.839C292.722 219.231 300.324 230.55 301.151 231.377C301.979 232.204 308.47 231.594 308.622 230.833C308.775 230.071 296.664 214.812 292.112 211.46C287.56 208.108 285.948 204.386 287.756 203.015C289.563 201.644 297.427 212.07 299.474 215.03C301.522 217.99 312.87 229.701 313.087 229.94C314.441 229.717 315.769 229.36 317.052 228.874C317.621 227.613 317.803 226.211 317.575 224.847C316.878 223.127 307.076 214.812 304.789 212.875ZM256.477 188.693C255.41 189.52 252.84 187.692 252.6 185.036C252.361 182.381 254.386 181.641 255.65 182.076C256.913 182.511 258.089 184.252 258.743 185.471C259.396 186.69 257.545 187.931 256.477 188.693ZM262.489 176.83C260.659 178.659 258.852 175.764 260.311 172.346C261.77 168.929 270.744 169.756 270.962 169.756C271.18 169.756 264.319 175.089 262.424 176.917L262.489 176.83ZM299.169 196.42C296.49 194.592 289.128 194.896 286.688 193.917C284.249 192.937 285.469 191.479 288.213 191.479C291.203 191.51 294.159 192.108 296.926 193.242C299.735 194.374 303.46 199.772 303.46 199.772C302.118 198.599 300.683 197.536 299.169 196.594V196.42Z" fill="#3C6841"/>
<path d="M186.537 412.038C191.569 372.075 201.152 290.146 206.511 282.484C213.677 272.123 229.207 263.635 235.567 260.457L234.456 258.28C227.922 261.523 211.956 270.273 204.463 281.113C198.756 289.341 188.977 372.271 183.967 412.255L186.537 412.038Z" fill="#B1BCA0"/>
<path d="M310.539 235.686C307.381 235.403 290.587 234.598 292.373 232.792C294.159 230.985 306.205 231.094 308.622 231.747C311.04 232.4 316.202 229.331 316.202 229.331C314.72 227.432 313.04 225.696 311.193 224.15C307.816 221.234 297.318 216.88 295.641 216.14C293.963 215.4 280.829 224.977 279.13 225.804C277.431 226.632 276.734 225.347 277.932 223.236C279.13 221.125 295.357 215.661 293.963 214.355C292.569 213.049 283.073 209.654 280.481 210.416C277.889 211.178 274.861 216.663 272.944 218.077C269.094 221.66 265.746 225.745 262.99 230.223C261.291 233.619 258.503 238.821 256.194 237.471C253.885 236.122 256.194 225.935 258.002 222.235C259.81 218.535 274.709 210.394 274.709 210.394C272.802 208.974 270.665 207.892 268.392 207.194C265.532 205.956 262.307 205.855 259.374 206.911C256.5 209.1 254.056 211.801 252.165 214.878C249.739 218.621 248.246 222.89 247.808 227.328C247.199 231.094 246.894 233.727 245.325 232.835C243.757 231.943 244.432 227.198 245.173 223.693C245.913 220.189 255.41 209.131 255.41 209.131C255.41 209.131 243.757 209.24 241.47 210.198C239.183 211.156 237.005 215.553 235.938 218.905C234.87 222.257 238.442 237.406 237.528 238.647C236.613 239.887 233.629 238.429 232.322 233.989C231.015 229.548 235.262 218.6 235.262 218.6C232.625 217.449 229.812 216.75 226.942 216.532C225.485 216.502 224.041 216.801 222.717 217.408C221.393 218.015 220.223 218.913 219.296 220.036C219.51 223.074 220.014 226.084 220.799 229.026C222.041 234.729 226.964 240.301 226.332 241.172C225.7 242.042 223.827 242.129 220.451 238.407C217.075 234.685 217.097 223.28 217.097 223.28C217.097 223.28 206.598 238.755 207.099 251.053C207.6 263.351 233.694 260.761 234.936 261.262C234.936 261.262 224.328 265.615 223.348 267.444C222.368 269.272 227.051 276.651 229.752 278.327C232.452 280.003 234.609 276.955 240.098 275.824C245.587 274.692 251.751 280.612 256.848 280.003C259.955 279.614 262.934 278.528 265.56 276.825C265.56 276.825 255.149 273.342 253.058 272.472C250.967 271.601 245.913 267.64 247.264 264.636C248.614 261.632 265.865 273.712 267.804 274.191C269.742 274.67 271.485 271.274 272.879 269.838C276.043 267.63 279.338 265.616 282.746 263.809C277.122 263.434 271.536 262.618 266.04 261.371C260.921 259.782 261.357 256.713 267.63 257.018C273.903 257.322 283.247 262.655 283.704 262.677C286.517 262.268 289.233 261.354 291.72 259.978C293.15 258.501 294.354 256.822 295.292 254.993C298.386 254.27 301.44 253.383 304.44 252.338C306.369 251.357 307.839 249.662 308.535 247.614C308.535 247.614 296.011 244.611 293.506 244.894C291.001 245.177 275.667 242.717 276.451 240.301C277.235 237.885 296.359 240.497 299.017 241.912C301.674 243.326 310.3 243.631 310.3 243.631C310.3 243.631 311.018 242.369 312.478 239.909C313.937 237.45 315.658 234.642 315.658 234.642C314.09 235.482 312.311 235.845 310.539 235.686ZM250.292 246.178C250.117 249.334 247.547 247.789 244.018 246.766C240.49 245.742 243.626 239.474 245.608 239.561C247.591 239.648 250.466 243.109 250.292 246.178Z" fill="#608858"/>
<path d="M135.481 308.865L138.269 335.224L138.988 341.754C139.271 343.93 139.511 346.107 139.816 348.284C140.121 350.46 140.382 352.637 140.752 354.814C140.948 356.272 143.606 389.052 145.544 411.406L150.815 411.885C148.18 389.357 144.281 355.706 144.041 354.27C143.649 352.093 143.344 349.916 142.996 347.74C142.647 345.563 142.364 343.386 142.059 341.21L141.21 334.68C139.032 317.267 137.333 299.571 134.675 282.07C133.339 273.364 131.742 264.657 129.883 255.951C128.032 247.244 125.984 238.69 123.523 230.158C122.303 225.804 121.018 221.669 119.537 217.49C119.189 216.423 118.796 215.313 118.404 214.355C118.012 213.397 117.62 212.179 117.206 211.243L116.575 209.675L115.9 208.152C115.465 207.098 114.963 206.072 114.397 205.083C112.121 201.077 108.888 197.698 104.987 195.244C103.064 193.999 101.021 192.949 98.8881 192.11C97.8208 191.696 96.71 191.326 95.6427 191C94.5283 190.665 93.3933 190.403 92.2448 190.216L91.9398 192.676C92.9679 192.835 93.986 193.053 94.9893 193.329C96.013 193.612 97.0367 193.938 98.0387 194.308C100.036 195.062 101.955 196.01 103.767 197.138C107.357 199.385 110.347 202.47 112.48 206.128C113.004 207.059 113.476 208.018 113.896 209.001L114.571 210.481C114.789 210.981 114.985 211.504 115.203 212.004C115.616 213.006 116.03 214.029 116.401 215.052C116.771 216.075 117.185 217.098 117.533 218.143C118.992 222.278 120.321 226.479 121.519 230.702C126.289 247.667 129.927 264.929 132.41 282.375C133.63 291.321 134.566 300.093 135.481 308.865Z" fill="#8C9678"/>
<path d="M112.763 191.152C113.656 190.782 121.802 185.994 121.04 185.145C120.278 184.296 114.113 175.502 109.931 175.807C105.749 176.112 93.0507 188.867 92.1358 188.41C91.221 187.953 90.6982 187.953 90.916 186.364C91.1339 184.775 102.635 165.381 100.805 161.441C98.9752 157.501 87.5617 154.737 87.5617 154.737C81.0854 152.56 74.4802 150.786 67.7841 149.426C64.0366 149.007 60.2427 149.423 56.6755 150.645C56.6755 150.645 65.8891 149.731 70.0058 154.432C74.1225 159.134 78.1303 163.792 75.473 165.076C72.8156 166.36 68.2415 157.545 66.2811 156.043C64.3208 154.541 55.0201 150.493 52.4935 150.645C47.8704 151.861 43.6487 154.27 40.2522 157.632C38.7083 159.187 37.7403 161.222 37.5078 163.4C33.9513 162.728 30.281 162.99 26.8566 164.162C22.2171 166.164 15.8351 177.222 15.8351 177.222C14.6875 177.13 13.5337 177.293 12.4567 177.699C11.3796 178.106 10.4059 178.745 9.60563 179.573C7.42747 182.293 5.72852 195.07 5.72852 195.07C5.72852 195.07 24.1557 183.338 33.1732 183.621C42.1908 183.904 53.6043 189.542 52.7766 191.022C51.9489 192.502 42.3215 188.845 30.1674 192.393C18.0133 195.941 4.02956 196.529 2.39595 198.27C0.760858 201.105 -0.0606228 204.336 0.0217525 207.608C0.259479 209.604 0.719758 211.568 1.394 213.463C1.394 213.463 19.2766 202.971 22.8488 201.078C26.421 199.184 38.0959 195.527 38.4444 198.64C38.7929 201.753 35.1771 201.687 29.5575 202.754C22.6356 204.436 15.8838 206.753 9.38781 209.675C6.10721 210.996 3.29938 213.271 1.32864 216.205C1.32864 216.205 0.108875 224.912 1.32864 228.133C2.68204 231.059 4.24721 233.881 6.01167 236.579C6.01167 236.579 12.7857 232.704 13.1778 232.704C13.5699 232.704 17.0549 233.444 17.0549 233.444C17.0549 233.444 32.1059 211.678 34.4801 213.31C36.8543 214.943 30.908 223.345 27.7932 226C24.6784 228.656 19.5816 241.237 19.5816 241.237C22.1481 240.003 24.854 239.082 27.6407 238.494C29.3811 238.269 31.1396 238.218 32.8901 238.342C32.8901 238.342 45.4362 221.712 47.0263 216.314C48.6163 210.916 49.2044 204.299 51.6657 202.688C54.1271 201.078 55.4122 206.345 53.6479 208.783C51.8836 211.221 42.5393 228.765 40.9492 235.621C39.3592 242.477 39.3592 244.893 39.5117 245.111C39.6641 245.329 40.7314 238.799 46.4164 236.405C52.1014 234.01 56.022 226.61 57.525 223.475C59.0279 220.341 64.604 204.408 66.2376 201.056C67.8712 197.704 70.4196 201.208 68.4157 205.54C66.4118 209.871 61.0318 222.953 59.2893 227.067C57.9225 230.508 56.7802 234.035 55.8696 237.623C55.8696 237.623 62.404 229.875 65.8237 228.569C69.2434 227.263 71.7701 227.981 73.578 225.848C75.3858 223.715 77.9343 204.081 79.5243 199.01C81.1144 193.938 84.1638 196.267 84.1638 198.096C84.1638 199.924 84.6865 210.568 82.1817 214.508C80.0375 218.518 78.4266 222.792 77.3897 227.219C77.3897 227.437 89.4131 218.164 91.5477 217.032C93.6823 215.901 96.6446 216.031 96.9495 213.223C97.2545 210.415 93.9001 195.81 94.3575 194.439C94.8149 193.068 97.102 193.22 98.3 194.744C99.498 196.267 102.874 212.636 103.419 212.636C103.963 212.636 111.957 208.892 112.806 205.779C113.656 202.667 111.848 191.544 112.763 191.152ZM54.6934 180.813C52.341 181.619 47.3312 178.876 44.9353 177.744C42.5393 176.612 28.3813 173.521 28.3813 173.521C29.0783 173.521 41.9512 170.605 50.2935 174.087C53.9964 175.633 57.024 179.986 54.6934 180.813ZM65.5841 175.568C63.5367 175.35 61.4892 171.911 60.1605 171.062C59.1908 169.94 58.4508 168.638 57.9824 167.231C57.6992 165.707 61.5546 166.948 61.7506 166.97C64.103 167.166 66.3247 171.127 67.6316 172.39C68.9385 173.652 67.6316 175.807 65.5841 175.633V175.568Z" fill="#296D60"/>
<path d="M135.851 313.349L136.832 315.526L137.703 317.855C138.313 319.378 138.857 320.967 139.424 322.534C139.99 324.102 140.491 325.669 141.035 327.258C143.214 333.592 145.174 339.947 147.156 346.347C149.138 352.746 151.055 359.145 152.972 365.545C153.843 368.505 154.692 393.841 155.542 412.342L159.898 412.517C158.896 393.623 157.873 367.613 156.849 364.369C154.845 357.97 152.805 351.585 150.728 345.215C148.55 338.837 146.524 332.482 144.194 326.148C143.627 324.559 143.083 322.97 142.473 321.403C141.863 319.835 141.319 318.225 140.665 316.657L139.729 314.307L138.661 311.934C137.921 310.389 137.115 308.865 136.243 307.407C132.785 301.589 128.958 295.998 124.786 290.668C120.844 285.379 116.488 280.112 112.131 275.105L108.733 271.405C108.189 270.796 107.601 270.121 106.969 269.511C106.337 268.902 105.662 268.314 104.987 267.748C102.251 265.613 99.2401 263.856 96.0348 262.525C92.8741 261.178 89.592 260.135 86.2331 259.412C84.5419 259.055 82.8334 258.787 81.1144 258.607C80.2318 258.515 79.3443 258.479 78.4571 258.498C77.9857 258.467 77.5127 258.467 77.0413 258.498C76.7674 258.539 76.4978 258.605 76.2354 258.694H76.0175L75.7344 258.802C75.4869 258.945 75.2658 259.129 75.0809 259.347L77.0848 260.848C77.0401 260.913 76.9803 260.965 76.9106 261.001H77.3244C77.6867 260.967 78.0513 260.967 78.4135 261.001C79.2067 261.002 79.9992 261.045 80.7877 261.131C82.408 261.285 84.0162 261.546 85.6014 261.915C88.7964 262.612 91.9179 263.61 94.9239 264.897C97.901 266.161 100.693 267.824 103.223 269.838C103.848 270.333 104.445 270.863 105.009 271.427C105.553 271.993 106.076 272.559 106.621 273.212L109.91 276.999C114.266 282.092 118.426 287.273 122.434 292.584C126.472 297.853 130.175 303.371 133.521 309.105C134.414 310.411 135.176 311.869 135.851 313.349Z" fill="#B1BCA0"/>
<path d="M97.1455 257.235C95.6208 253.274 92.419 251.619 93.1813 249.203C93.9437 246.787 96.1218 243.827 92.9417 241.542C89.7616 239.256 85.0133 241.672 82.3341 246.004C79.655 250.335 77.1066 261.24 77.1066 261.24C77.1066 261.24 77.8689 233.815 72.881 232.03C67.893 230.245 61.4021 234.576 61.4021 234.576C61.4021 234.576 40.8403 240.584 37.8998 243C34.9593 245.416 34.197 246.265 34.589 246.417C34.9811 246.57 32.6722 247.353 29.4921 247.854C26.312 248.354 24.1121 267.117 24.1121 267.117C24.1121 267.117 15.3995 270.186 12.6332 275.671C9.86699 281.156 10.8472 289.449 10.8472 289.449C9.05965 290.559 7.57508 292.094 6.52605 293.918C5.47702 295.741 4.89619 297.795 4.83545 299.897C4.87603 304.225 5.97527 308.477 8.03734 312.282C8.03734 312.282 18.9281 293.933 26.2031 288.6C33.4782 283.268 38.1612 284.247 35.4821 288.426C32.8029 292.606 23.2191 298.765 19.1459 303.358C15.0728 307.951 5.85918 314.698 6.38194 317.767C6.90469 320.836 11.4788 328.868 11.4788 328.868C11.4788 328.868 20.6706 311.891 23.8725 308.451C27.0744 305.012 29.9931 307.298 29.2308 308.19C28.4684 309.083 12.6332 330.914 12.6332 330.914C14.3051 335.146 16.6759 339.068 19.6469 342.516L24.2428 347.609C24.2428 347.609 33.8267 330.653 33.696 327.214C33.5653 323.775 33.4346 310.498 36.1137 311.978C38.7929 313.458 35.2207 328.106 35.8741 333.134C36.5276 338.163 37.2681 342.603 37.2681 342.603L43.0185 333.896C43.0185 333.896 46.7213 306.34 46.5906 299.201C46.46 292.061 46.9827 289.754 48.3767 290.494C49.7707 291.234 49.0084 317.397 49.1391 320.967C49.2698 324.537 53.735 334.636 53.735 334.636C53.735 334.636 51.5568 326.082 53.8657 321.751C56.1745 317.419 59.0932 301.704 58.723 298.896C58.3527 296.088 55.0201 281.809 56.9369 281.483C58.8536 281.156 62.2951 294.543 62.1644 298.896C62.0337 303.249 59.3546 316.309 61.01 319.182C61.6215 320.492 62.5406 321.634 63.6891 322.513C63.6891 322.513 62.4258 314.72 65.1049 309.997C67.7841 305.274 69.3088 305.034 70.4632 301.704C71.6176 298.374 73.5344 293.803 73.5344 293.803C73.5344 293.803 79.154 287.926 81.7025 285.64C83.405 284.025 84.8715 282.179 86.0588 280.155C86.0588 280.155 87.9755 275.432 83.2489 269.555C78.5223 263.678 78.1521 262.546 78.653 262.677C79.154 262.807 87.8449 265.093 90.1537 269.947C91.3032 272.251 92.2788 274.637 93.0724 277.086C93.0724 277.086 98.6703 261.197 97.1455 257.235ZM42.1254 264.113C38.4226 265.136 30.1238 267.052 30.1238 267.052C30.7555 266.682 43.1927 254.928 47.0916 258.889C50.9905 262.851 45.8283 263.09 42.1254 264.113ZM51.1212 274.322C47.4837 274.431 49.4004 271.274 49.4004 271.274C49.9998 271.038 50.5759 270.747 51.1212 270.404C53.5086 269.829 56.0236 270.138 58.2002 271.274C60.2477 272.798 54.7587 274.191 51.143 274.322H51.1212ZM66.891 276.368C66.6297 270.752 67.1524 269.49 69.0692 271.013C70.986 272.537 71.378 289.667 71.378 289.667C71.378 289.667 67.1524 281.984 66.891 276.368Z" fill="#6E9865"/>
<path d="M157.589 255.494C157.807 256.343 158.09 257.191 158.286 258.062L158.875 260.631C159.005 261.066 159.049 261.479 159.136 261.915L159.332 263.199C159.332 263.634 159.506 264.07 159.528 264.505V265.811C159.623 266.686 159.674 267.565 159.68 268.445V271.1V275.083V276.433C159.441 283.551 158.809 290.69 158.243 297.851C157.677 305.012 157.045 312.152 156.675 319.356C156.522 322.969 156.391 326.583 156.457 330.239C156.457 331.154 156.457 332.068 156.457 332.982L156.653 335.725C156.653 336.639 156.827 337.531 156.914 338.445C157.001 339.36 157.11 340.252 157.241 341.144L157.611 343.843L158.069 346.521C158.352 348.306 158.678 350.09 159.005 351.853C159.332 353.616 159.68 355.401 160.051 357.164C160.421 358.927 160.791 360.712 161.162 362.475C161.989 366.197 162.839 393.297 163.732 412.69H168.088C166.89 393.101 165.779 365.544 164.734 361.583C162.894 354.697 161.403 347.723 160.269 340.687C160.116 339.817 160.007 338.924 159.898 338.054C159.789 337.183 159.637 336.29 159.593 335.42L159.397 332.808C159.397 331.915 159.397 331.045 159.397 330.152C159.288 326.626 159.397 323.057 159.397 319.487C159.68 312.347 160.203 305.208 160.726 298.047C161.249 290.886 161.75 283.725 161.989 276.498V275.149V271.078V268.336C161.989 267.443 161.989 266.529 161.815 265.615L161.706 264.244C161.706 263.765 161.575 263.33 161.51 262.872L161.27 261.501C161.217 261.046 161.13 260.594 161.009 260.152L160.399 257.474C160.181 256.582 159.898 255.733 159.659 254.841C159.179 253.078 158.57 251.38 158.025 249.66C157.481 247.941 156.805 246.243 156.174 244.567C155.542 242.891 154.888 241.193 154.191 239.517L153.19 237.014L152.122 234.533C150.728 231.224 149.247 228.003 147.766 224.673C146.285 221.342 144.717 218.143 143.083 214.921L140.905 216.053C144.128 222.409 147.163 228.881 150.009 235.469C152.951 241.979 155.482 248.668 157.589 255.494Z" fill="#8C9678"/>
<path d="M205.792 215.835C205.714 211.912 205.217 208.008 204.311 204.19C203.091 200.882 196.665 199.663 196.665 199.663C195.442 198.005 194.071 196.461 192.57 195.049C190.654 193.394 178.216 193.83 175.145 195.049C172.074 196.267 167.848 207.303 168.001 210.96C168.153 214.617 167.587 216.271 165.823 216.358C164.898 216.291 164.031 215.889 163.383 215.226C162.512 214.181 162.163 208.174 160.247 204.103C158.33 200.033 149.16 193.394 144.804 193.046C140.447 192.698 136.091 196.877 136.091 196.877C132.245 197.025 128.415 197.461 124.634 198.183C120.125 199.228 115.921 204.887 115.921 204.887C115.921 204.887 130.036 202.275 134.044 203.755C138.051 205.235 139.424 207.477 136.744 208.435C134.065 209.393 117.773 205.997 111.848 206.519C105.924 207.042 100.718 213.746 99.7594 219.579C98.801 225.413 102.112 244.262 102.112 244.262C102.112 244.262 106.729 239.038 110.454 234.946C114.912 230.729 120.31 227.633 126.202 225.913C130.559 224.868 137.877 224.607 138.051 226.784C138.226 228.961 126.376 229.831 118.034 232.182C109.692 234.533 101.676 247.549 101.676 247.549L109.256 262.176C109.256 262.176 123.262 239.735 128.032 235.469C132.802 231.202 141.427 232.008 143.431 231.747C145.435 231.485 146.481 231.311 146.916 233.488C147.352 235.665 137.267 240.78 130.471 245.133C123.676 249.486 117.947 262.176 117.947 262.176C117.947 262.176 127.248 271.383 127.77 272.254C128.041 273.458 128.041 274.707 127.77 275.911C131.613 275.798 135.458 276.061 139.249 276.694C142.996 277.652 150.401 283.376 152.144 282.593C153.886 281.809 159.702 273.473 160.225 273.386C160.748 273.299 167.021 276.433 169.09 275.998C171.159 275.562 175.624 268.162 179.981 267.117C180.478 266.918 181.017 266.848 181.548 266.913C182.08 266.978 182.586 267.176 183.02 267.488C183.455 267.801 183.803 268.218 184.033 268.701C184.264 269.184 184.368 269.717 184.337 270.251C184.721 267.528 185.273 264.831 185.992 262.176C187.125 258.084 193.485 256.256 193.485 256.256C193.485 256.256 195.489 248.877 196.709 244.698C197.216 243.365 198.01 242.16 199.033 241.167C200.057 240.175 201.286 239.418 202.634 238.951C202.634 238.951 197.036 233.749 198.517 232.421C199.998 231.094 203.047 237.798 203.396 238.233C203.744 238.668 207.578 223.367 208.101 220.929C208.623 218.491 205.792 215.835 205.792 215.835ZM133.325 218.012C130.842 218.273 123.153 218.926 122.434 218.796C121.715 218.665 121.911 216.445 123.741 215.008C125.571 213.572 133.651 214.616 134.436 215.008C134.479 214.921 135.786 217.664 133.303 217.925L133.325 218.012ZM145.522 245.459C145.13 245.851 132.279 260.696 132.279 260.696C133.259 258.519 138.988 242.695 143.17 242.238C147.352 241.781 145.893 244.981 145.501 245.285L145.522 245.459ZM165.126 238.277C162.12 236.448 160.769 235.73 160.769 234.25C160.769 232.77 165.126 232.073 166.585 233.466C168.044 234.859 172.379 247.288 172.379 247.288C171.922 246.744 168.001 240.018 165.017 238.189L165.126 238.277ZM177.389 260.718C175.559 259.477 176.082 255.167 176.082 255.167C176.082 255.167 180.003 259.521 180.133 259.869C180.264 260.217 179.11 261.871 177.28 260.631L177.389 260.718ZM188.824 214.268C186.242 213.794 183.768 212.849 181.527 211.482C181.702 211.221 180.656 207.825 186.559 209.567C191.46 211.426 196.084 213.945 200.303 217.054C200.303 217.054 192.723 214.812 188.715 214.181L188.824 214.268Z" fill="#789E6D"/>
<path d="M205.792 301.878C214.504 303.88 232.975 320.793 232.975 320.793C232.975 320.793 230.601 303.227 230.579 303.38C230.557 303.532 222.063 299.027 218.469 297.155C214.875 295.283 195.141 293.258 193.485 291.278C191.83 289.297 196.491 289.101 205.639 289.819C214.788 290.538 228.902 298.787 228.902 298.787C228.902 298.787 225.548 282.528 222.89 280.656C220.233 278.784 200.15 282.441 197.057 282.201C193.964 281.962 193.267 279.654 198.582 277.26C203.897 274.866 218.185 277.783 218.185 277.565C214.971 273.149 211.275 269.104 207.164 265.506C201.958 261.305 197.842 263.025 196.513 262.524C194.791 261.215 192.872 260.186 190.828 259.477C186.842 258.236 175.951 266.682 175.951 266.682C169.765 271.601 174.688 289.732 174.688 289.732C174.688 289.732 161.837 274.953 151.447 273.016C141.057 271.078 130.994 289.079 128.554 294.978C127.093 298.364 126.698 302.115 127.422 305.731C127.422 305.731 136.505 294.543 141.122 292.453C145.74 290.364 150.031 292.061 148.702 295.196C147.374 298.33 131.8 303.902 131.016 304.468C130.232 305.034 123.915 309.017 125.004 316.461C126.093 323.906 133.913 330.174 133.913 330.174C133.913 330.174 140.578 319.443 142.015 315.874C144.638 310.863 148.361 306.509 152.906 303.14C156.065 301.464 158.047 301.464 159.223 304.207C160.399 306.95 149.269 312.326 144.934 316.309C140.6 320.292 134.043 332.307 134.043 332.612C134.043 332.917 139.924 340.187 139.924 340.187L148.942 349.96C149.16 350.221 162.338 358.427 162.338 358.427C162.338 358.427 162.338 336.661 164.625 329.478C166.912 322.295 176.409 314.372 178.696 316.875C180.983 319.378 174.644 325.777 171.834 332.111C169.025 338.446 172.858 360.408 172.858 360.408L184.86 362.584C186.515 362.911 187.517 366.415 187.517 366.415C191.109 365.544 194.744 364.861 198.408 364.369C203.108 364.111 207.822 364.506 212.413 365.545C212.413 365.545 211.324 364.195 213.176 360.125C215.058 356.85 217.333 353.816 219.95 351.092C219.95 350.852 206.881 336.922 206.881 336.922C206.881 336.922 204.006 331.176 208.035 333.744C212.065 336.312 222.781 353.334 222.781 353.334C222.781 353.334 228.357 342.603 228.423 340.6C228.488 338.598 223.653 333.026 223.653 333.026C223.653 333.026 230.405 337.836 230.688 337.988C230.971 338.141 232.518 324.428 232.518 324.428C232.518 324.428 228.161 319.356 222.651 314.415C217.14 309.474 200.041 304.708 196.513 302.204C192.984 299.701 196.927 299.941 205.792 301.878ZM160.312 318.682C158.657 320.858 150.815 334.702 149.421 333.635C148.027 332.569 155.956 312.195 160.312 313.218C164.668 314.241 161.88 316.636 160.247 318.769L160.312 318.682ZM187.125 333.635L184.577 350.308C184.446 349.808 179.001 330.327 183.095 328.847C187.19 327.366 187.06 333.722 187.06 333.722L187.125 333.635ZM216.029 325.821C216.029 325.821 204.55 319.901 201.806 318.616C199.061 317.332 190.915 315.286 195.554 312.086C200.194 308.887 215.877 325.473 216.029 325.821Z" fill="#296D60"/>
<path fill-rule="evenodd" clip-rule="evenodd" d="M204.529 4.92621e-10C198.056 -4.10283e-05 191.848 2.56332 187.263 7.12858C182.678 11.6938 180.091 17.8888 180.068 24.3566L178.87 305.6C178.853 308.81 179.468 311.992 180.682 314.964C181.895 317.936 183.683 320.641 185.942 322.923C188.201 325.205 190.888 327.019 193.849 328.264C196.81 329.508 199.988 330.157 203.2 330.174L315.484 330.697C321.956 330.702 328.167 328.145 332.756 323.583C337.344 319.022 339.937 312.83 339.966 306.362L341.164 25.0966C341.193 18.623 338.653 12.4017 334.101 7.79562C329.549 3.18954 323.356 0.574176 316.878 0.522405L204.616 4.92621e-10H204.529Z" fill="#263238"/>
<path fill-rule="evenodd" clip-rule="evenodd" d="M204.616 9.72951C200.085 9.72372 195.736 11.5154 192.526 14.711C189.316 17.9065 187.507 22.2447 187.495 26.7726L186.319 301.29C186.302 305.83 188.088 310.19 191.286 313.414C194.484 316.638 198.831 318.462 203.374 318.485L315.418 319.008C319.944 319.002 324.283 317.206 327.487 314.012C330.691 310.819 332.499 306.487 332.517 301.965L333.671 27.4256C333.683 25.177 333.25 22.9483 332.399 20.8668C331.548 18.7853 330.295 16.8919 328.711 15.2949C327.127 13.6978 325.243 12.4285 323.168 11.5595C321.093 10.6904 318.866 10.2387 316.616 10.2301H294.835C293.41 10.2644 292.056 10.8602 291.068 11.8877C290.081 12.9151 289.54 14.2909 289.564 15.7153V19.6768C289.587 21.1011 289.046 22.4769 288.059 23.5043C287.071 24.5318 285.718 25.1276 284.292 25.1619L241.862 24.966C241.153 24.9462 240.454 24.787 239.806 24.4973C239.158 24.2077 238.574 23.7933 238.086 23.2778C237.599 22.7623 237.218 22.1559 236.965 21.4932C236.712 20.8305 236.592 20.1245 236.613 19.4155V15.4758C236.633 14.7651 236.513 14.0573 236.258 13.3932C236.004 12.7292 235.621 12.1218 235.131 11.606C234.641 11.0903 234.055 10.6763 233.404 10.3879C232.754 10.0995 232.053 9.94231 231.342 9.9254H223.718H204.659L204.616 9.72951Z" fill="white"/>
<path fill-rule="evenodd" clip-rule="evenodd" d="M219.122 146.009V215.465H291.262V146.009H219.122Z" fill="#FFF1B6"/>
<path fill-rule="evenodd" clip-rule="evenodd" d="M239.009 126.658L219.122 146.009H291.263L305.072 126.658H239.009Z" fill="#D88B25"/>
<path fill-rule="evenodd" clip-rule="evenodd" d="M305.072 126.658L291.262 146.009V215.465L305.072 195.876V126.658Z" fill="#D88B25"/>
<path fill-rule="evenodd" clip-rule="evenodd" d="M234.718 174.849V179.203H272.4V174.849H234.718Z" fill="#232323"/>
<path fill-rule="evenodd" clip-rule="evenodd" d="M241.557 182.315V186.342H265.517V182.315H241.557Z" fill="#232323"/>
<path fill-rule="evenodd" clip-rule="evenodd" d="M223.043 113.316C223.686 113.318 224.327 113.376 224.96 113.49C226.588 113.783 228.125 114.454 229.447 115.449C231.379 116.9 232.774 118.952 233.411 121.282C233.825 122.915 233.759 123.872 233.846 123.872C233.846 123.872 233.846 124.874 233.411 126.506C232.77 128.828 231.375 130.873 229.447 132.318C228.132 133.329 226.593 134.008 224.96 134.299C224.326 134.405 223.685 134.456 223.043 134.451C221.807 134.469 220.579 134.247 219.427 133.798C218.464 133.463 217.56 132.978 216.748 132.361C215.914 131.753 215.179 131.019 214.57 130.185C213.241 128.377 212.524 126.192 212.524 123.949C212.524 121.705 213.241 119.521 214.57 117.713C215.184 116.883 215.918 116.15 216.748 115.536C217.565 114.927 218.468 114.443 219.427 114.099C220.573 113.616 221.799 113.35 223.043 113.316ZM222.912 112.859C221.657 112.849 220.411 113.063 219.231 113.49C218.235 113.856 217.296 114.361 216.443 114.992C215.539 115.645 214.744 116.439 214.091 117.343C212.696 119.236 211.934 121.521 211.912 123.872C211.943 126.222 212.704 128.505 214.091 130.402C214.745 131.3 215.539 132.086 216.443 132.731C217.286 133.378 218.227 133.885 219.231 134.233C220.41 134.667 221.656 134.888 222.912 134.886C223.642 134.88 224.371 134.815 225.09 134.69C226.784 134.332 228.372 133.587 229.73 132.514C231.695 130.989 233.078 128.839 233.65 126.419C233.871 125.545 233.951 124.641 233.89 123.742C233.951 122.85 233.87 121.953 233.65 121.086C233.074 118.675 231.691 116.532 229.73 115.014C228.379 113.93 226.788 113.183 225.09 112.837C224.365 112.785 223.636 112.793 222.912 112.859Z" fill="#232323"/>
<path fill-rule="evenodd" clip-rule="evenodd" d="M220.277 120.477C221.148 120.477 221.714 121.217 221.714 122.414C221.714 123.611 221.148 124.329 220.277 124.329C219.405 124.329 218.839 123.611 218.839 122.414C218.839 121.217 219.405 120.477 220.277 120.477ZM220.277 119.889C219.035 119.889 218.098 120.89 218.098 122.414C218.098 123.938 218.97 124.939 220.277 124.939C221.583 124.939 222.455 123.938 222.455 122.414C222.455 120.89 221.518 119.889 220.277 119.889ZM225.983 124.874C226.876 124.874 227.421 125.592 227.421 126.811C227.421 128.03 226.876 128.726 225.983 128.726C225.09 128.726 224.546 128.008 224.546 126.811C224.546 125.614 225.112 124.874 225.983 124.874ZM225.983 119.954L219.623 129.249H220.407L226.767 119.954H225.983ZM225.983 124.308C224.764 124.308 223.805 125.309 223.805 126.833C223.717 127.155 223.705 127.494 223.77 127.822C223.834 128.151 223.973 128.46 224.177 128.725C224.38 128.991 224.642 129.207 224.942 129.355C225.242 129.503 225.572 129.58 225.907 129.58C226.242 129.58 226.572 129.503 226.872 129.355C227.172 129.207 227.434 128.991 227.637 128.725C227.841 128.46 227.98 128.151 228.044 127.822C228.109 127.494 228.097 127.155 228.009 126.833C228.096 125.287 227.225 124.286 225.983 124.286V124.308Z" fill="#232323"/>
<path fill-rule="evenodd" clip-rule="evenodd" d="M272.356 231.202L271.768 237.58H274.665C276.712 237.58 277.279 238.168 277.279 239.06C277.279 239.952 276.495 240.497 275.101 240.497C273.954 240.509 272.833 240.159 271.899 239.495L270.875 241.498C272.172 242.332 273.69 242.756 275.231 242.717C278.477 242.717 279.958 240.975 279.958 238.973C279.958 236.97 278.629 235.469 275.275 235.469H274.36L274.534 233.292H279.261V231.115L272.356 231.202Z" fill="#232323"/>
<path fill-rule="evenodd" clip-rule="evenodd" d="M285.861 233.227C287.168 233.227 288.039 234.293 288.039 236.862C288.039 239.43 287.146 240.497 285.861 240.497C284.576 240.497 283.683 239.43 283.683 236.862C283.683 234.293 284.554 233.227 285.861 233.227ZM285.861 231.05C283.073 231.05 281.003 233.227 281.003 236.883C281.003 240.54 283.073 242.739 285.861 242.739C288.649 242.739 290.696 240.562 290.696 236.883C290.696 233.205 288.562 231.028 285.861 231.028V231.05Z" fill="#232323"/>
<path fill-rule="evenodd" clip-rule="evenodd" d="M299.648 232.226C300.171 232.226 300.454 232.509 300.454 232.9C300.455 233 300.435 233.098 300.394 233.189C300.354 233.279 300.295 233.36 300.22 233.426C300.146 233.492 300.059 233.542 299.964 233.571C299.869 233.6 299.769 233.609 299.67 233.597C299.573 233.61 299.473 233.601 299.38 233.571C299.286 233.542 299.2 233.492 299.127 233.426C299.054 233.359 298.997 233.278 298.959 233.187C298.921 233.097 298.904 232.999 298.908 232.9C298.907 232.806 298.927 232.713 298.965 232.626C299.003 232.54 299.058 232.462 299.128 232.399C299.198 232.335 299.28 232.287 299.37 232.257C299.46 232.227 299.554 232.216 299.648 232.226ZM299.648 231.42C299.431 231.402 299.213 231.429 299.007 231.498C298.8 231.566 298.61 231.676 298.447 231.821C298.284 231.965 298.152 232.141 298.059 232.338C297.966 232.535 297.914 232.748 297.906 232.966C297.911 233.166 297.957 233.363 298.041 233.545C298.125 233.727 298.245 233.89 298.393 234.024C298.542 234.158 298.716 234.261 298.906 234.326C299.095 234.391 299.296 234.417 299.496 234.402C299.92 234.417 300.333 234.269 300.65 233.989C300.666 234.163 300.644 234.339 300.586 234.505C300.528 234.67 300.434 234.821 300.312 234.947C300.19 235.073 300.043 235.171 299.879 235.235C299.716 235.299 299.54 235.327 299.365 235.316C299.059 235.339 298.754 235.262 298.494 235.099L298.102 235.882C298.489 236.092 298.925 236.197 299.365 236.187C299.693 236.217 300.023 236.172 300.331 236.056C300.639 235.94 300.917 235.755 301.143 235.516C301.37 235.277 301.539 234.99 301.639 234.677C301.738 234.363 301.765 234.031 301.718 233.706C301.631 232.226 300.868 231.398 299.583 231.398L299.648 231.42Z" fill="#232323"/>
<path fill-rule="evenodd" clip-rule="evenodd" d="M293.528 237.732V238.755H301.631V237.732H293.528Z" fill="#232323"/>
<path fill-rule="evenodd" clip-rule="evenodd" d="M214.047 234.533V235.817H255.715V234.533H214.047Z" fill="#232323"/>
<path fill-rule="evenodd" clip-rule="evenodd" d="M214.047 238.755V240.061H239.335V238.755H214.047Z" fill="#232323"/>
<path fill-rule="evenodd" clip-rule="evenodd" d="M220.473 265.637C219.623 265.637 218.926 266.573 218.926 267.814V289.58C218.926 290.755 219.601 291.757 220.473 291.757L303.787 292.148C304.658 292.148 305.355 291.212 305.355 289.972V268.205C305.355 267.052 304.68 266.029 303.809 266.029L220.473 265.637Z" fill="#2A368D"/>
<path fill-rule="evenodd" clip-rule="evenodd" d="M256.085 275.562C257.087 275.562 257.675 275.976 257.675 276.759C257.675 277.543 257.087 277.935 256.085 277.935H254.081V275.562H256.085ZM256.303 278.501C257.392 278.501 257.98 278.893 257.98 279.72C257.98 280.547 257.392 280.96 256.281 280.96H254.103V278.522L256.303 278.501ZM253.45 274.996V281.526H256.39C257.915 281.526 258.568 280.895 258.699 279.828C258.363 279.751 258.059 279.571 257.83 279.313C257.602 279.055 257.459 278.732 257.423 278.389C257.387 278.046 257.46 277.7 257.63 277.4C257.8 277.1 258.06 276.861 258.372 276.716C258.372 275.649 257.567 275.018 256.194 275.018L253.45 274.996Z" fill="white"/>
<path fill-rule="evenodd" clip-rule="evenodd" d="M260.115 275.018V278.762C260.115 280.634 261.073 281.591 262.663 281.613C264.254 281.635 265.234 280.656 265.234 278.784V275.04H264.602V278.74C264.602 280.285 263.905 280.917 262.685 280.917C261.465 280.917 260.79 280.198 260.79 278.74V275.04L260.115 275.018Z" fill="white"/>
<path fill-rule="evenodd" clip-rule="evenodd" d="M266.148 275.062L268.632 279.415V281.592H269.285V279.415L271.79 275.171H271.136L268.958 278.806L266.78 275.149L266.148 275.062Z" fill="white"/>
<path fill-rule="evenodd" clip-rule="evenodd" d="M294.051 71.6113V87.2831H313.915V71.6113H294.051Z" fill="#FFF1B6"/>
<path fill-rule="evenodd" clip-rule="evenodd" d="M297.122 95.9463V98.1229H311.476V95.9463H297.122Z" fill="#263238"/>
<path fill-rule="evenodd" clip-rule="evenodd" d="M298.233 68.3899L294.051 71.6113H313.915L316.834 68.3899H298.233Z" fill="#D88B25"/>
<path fill-rule="evenodd" clip-rule="evenodd" d="M316.878 68.3899L313.959 71.6113V87.2831L316.878 83.4087V68.3899Z" fill="#D88B25"/>
<path fill-rule="evenodd" clip-rule="evenodd" d="M299.67 77.6841V78.903H308.753V77.6841H299.67Z" fill="#232323"/>
<path fill-rule="evenodd" clip-rule="evenodd" d="M301.478 79.8608V81.0798H307.119V79.8608H301.478Z" fill="#232323"/>
<path fill-rule="evenodd" clip-rule="evenodd" d="M257.131 95.9463V98.1229H271.485V95.9463H257.131Z" fill="#263238"/>
<path fill-rule="evenodd" clip-rule="evenodd" d="M252.6 62.2954L252.383 87.1962L274.97 87.3703L275.166 62.4913L252.6 62.2954Z" fill="#FFF1B6"/>
<path fill-rule="evenodd" clip-rule="evenodd" d="M259.135 57.2891L252.47 62.4477H275.079L279.718 57.3326L259.135 57.2891Z" fill="#D88B25"/>
<path fill-rule="evenodd" clip-rule="evenodd" d="M279.718 57.2891L275.079 62.4477V87.3266L279.718 81.1885V57.2891Z" fill="#D88B25"/>
<path fill-rule="evenodd" clip-rule="evenodd" d="M257.392 72.4385V74.0927H268.806V72.4385H257.392Z" fill="#232323"/>
<path fill-rule="evenodd" clip-rule="evenodd" d="M259.636 75.5076V77.1618H266.78V75.5076H259.636Z" fill="#232323"/>
<path fill-rule="evenodd" clip-rule="evenodd" d="M203.287 71.1543V87.2179H234.783V71.1543H203.287Z" fill="#FFF1B6"/>
<path fill-rule="evenodd" clip-rule="evenodd" d="M212.196 95.9463V98.1229H226.55V95.9463H212.196Z" fill="#263238"/>
<path fill-rule="evenodd" clip-rule="evenodd" d="M210.148 65.5821L203.287 71.1543H234.783L239.423 65.5168L210.148 65.5821Z" fill="#D88B25"/>
<path fill-rule="evenodd" clip-rule="evenodd" d="M239.423 65.582C239.423 65.6909 238.965 66.2568 238.268 67.171L234.936 71.3501C235.066 72.1772 235.132 75.3551 235.132 79.186C235.191 81.8584 235.111 84.532 234.892 87.196L239.51 81.0797L239.423 65.582Z" fill="#D88B25"/>
<path fill-rule="evenodd" clip-rule="evenodd" d="M207.97 76.4436V78.0761H229.425V76.4436H207.97Z" fill="#232323"/>
<path fill-rule="evenodd" clip-rule="evenodd" d="M212.196 79.4255V81.0798H225.526V79.4255H212.196Z" fill="#232323"/>
<path d="M292.025 458.269C292.809 456.31 553.403 346.891 553.403 346.891C553.403 346.891 662.093 407.836 658.956 407.227C655.82 406.618 409.558 521.022 409.558 521.022L292.025 458.269Z" fill="white"/>
<path d="M394.768 492.464C393.131 492.544 391.494 492.281 389.964 491.692C388.434 491.104 387.043 490.203 385.881 489.047C382.266 485.216 382.113 478.73 385.446 471.22C387.496 466.75 390.287 462.659 393.701 459.118C384.988 455.679 378.171 451.282 379.848 444.121C380.46 441.957 381.511 439.943 382.935 438.201C384.358 436.46 386.125 435.03 388.125 434C400.54 426.599 423.367 426.098 437.373 429.864C444.191 431.714 448.699 430.582 450.072 426.686C450.654 424.338 450.438 421.863 449.455 419.651C448.473 417.44 446.782 415.619 444.648 414.475C444.577 414.447 444.512 414.404 444.458 414.35C444.403 414.296 444.36 414.231 444.332 414.16C444.303 414.089 444.29 414.012 444.292 413.935C444.294 413.859 444.311 413.783 444.343 413.713C444.409 413.577 444.525 413.472 444.667 413.419C444.809 413.366 444.966 413.37 445.105 413.43C447.513 414.683 449.423 416.716 450.523 419.196C451.623 421.675 451.848 424.454 451.161 427.078C450.42 429.255 447.545 433.804 437.068 430.974C423.28 427.274 400.889 427.731 388.713 434.979C386.847 435.931 385.197 437.258 383.866 438.876C382.536 440.494 381.554 442.368 380.981 444.382C379.456 450.912 386.165 454.939 394.594 458.204C397.932 454.693 401.939 451.885 406.379 449.945C410.819 448.005 415.603 446.972 420.449 446.907C428.53 447.103 438.919 449.41 449.919 451.826C472.419 456.811 497.838 462.47 513.086 452.436C529.552 441.553 542.817 420.418 541.402 407.184C541.349 405.11 540.684 403.099 539.49 401.403C538.297 399.706 536.627 398.401 534.693 397.65C522.365 392.752 508.991 394.646 502.151 399.021C500.637 399.825 499.344 400.988 498.383 402.407C497.422 403.826 496.824 405.458 496.641 407.162C496.379 412.016 500.06 415.324 503.611 418.524C507.771 422.268 512.084 426.142 508.315 432.128C501.781 442.619 483.201 439.289 482.417 439.137C482.342 439.124 482.271 439.096 482.207 439.054C482.143 439.013 482.088 438.959 482.045 438.896C482.002 438.833 481.973 438.762 481.958 438.688C481.943 438.613 481.944 438.536 481.96 438.462C481.973 438.387 482.001 438.315 482.042 438.251C482.083 438.187 482.137 438.132 482.2 438.09C482.263 438.047 482.334 438.018 482.409 438.003C482.484 437.988 482.561 437.989 482.635 438.005C482.809 438.005 501.149 441.335 507.335 431.475C510.581 426.338 506.987 423.095 502.826 419.351C499.254 416.13 495.203 412.473 495.486 407.075C495.675 405.188 496.323 403.375 497.375 401.797C498.427 400.218 499.85 398.921 501.52 398.02C509.797 392.731 523.911 392.099 535.129 396.54C537.253 397.361 539.092 398.782 540.423 400.629C541.753 402.476 542.517 404.67 542.621 406.944C544.015 420.57 530.533 442.227 513.739 453.285C498.122 463.58 472.354 457.877 449.636 452.849C438.745 450.433 428.377 448.148 420.405 447.952C415.799 448.011 411.25 448.982 407.021 450.809C402.793 452.636 398.969 455.283 395.77 458.596C398.689 459.684 401.76 460.772 404.744 461.643C413.936 464.625 421.843 467.193 422.779 471.416C423.977 476.901 416.245 484.302 408.338 488.459C404.202 490.863 399.548 492.236 394.768 492.464ZM394.877 459.553C391.415 463.064 388.605 467.162 386.578 471.656C383.485 478.599 383.551 484.715 386.796 488.22C391.61 493.313 400.845 491.18 407.859 487.458C416.572 482.865 422.649 475.944 421.712 471.677C420.928 468.108 412.999 465.517 404.461 462.775C401.237 461.795 397.948 460.772 394.877 459.553Z" fill="black"/>
<path d="M354.865 169.908C355.453 168.755 353.906 162.769 360.833 161.441C367.759 160.113 383.747 164.902 388.757 174.915C393.766 184.927 395.901 187.974 393.766 199.336C391.632 210.699 382.985 240.344 382.222 241.498C381.46 242.652 373.51 252.664 372.965 250.727C372.421 248.79 354.865 169.908 354.865 169.908Z" fill="#856149"/>
<path d="M454.297 362.192C455.277 361.605 462.335 356.315 462.335 356.315C462.335 356.315 477.451 351.222 480.784 350.83C483.723 350.029 486.461 348.62 488.821 346.695C488.821 346.695 482.94 336.9 481.176 337.096C479.411 337.291 467.431 340.426 466.255 340.426C462.961 341.452 459.492 341.792 456.062 341.427C450.181 340.622 442.513 334.353 437.613 338.271C432.712 342.189 432.908 351.026 432.908 351.026L454.297 362.192Z" fill="#D0A78E"/>
<path d="M488.429 310.715C488.625 312.195 493.722 332.198 493.722 332.198L504.329 345.128C504.329 345.128 524.935 355.336 526.307 355.532C527.679 355.728 534.54 356.315 535.129 356.511C535.717 356.707 539.485 359.254 540.421 359.45C541.358 359.646 545.322 360.821 545.322 360.821C545.322 360.821 547.283 361.801 546.695 362.998C546.106 364.195 539.637 367.503 533.952 368.287C528.267 369.071 508.838 366.872 508.25 367.003C504.06 368.732 499.723 370.08 495.29 371.03C489.409 372.031 480.588 373.598 478.627 369.266C476.667 364.935 477.691 354.552 477.691 353.769C477.691 352.985 466.255 326.735 466.255 326.735L488.429 310.715Z" fill="#D0A78E"/>
<path d="M445.759 348.676C441.054 347.5 432.516 356.011 429.858 356.599C427.201 357.186 397.491 356.599 396.489 356.599C395.487 356.599 377.474 347.196 377.474 347.196L408.904 306.623L415.178 311.607L437.547 292.018C437.547 292.018 442.1 300.093 442.1 300.528C442.1 300.964 450.485 315.765 450.18 316.57C449.876 317.376 458.436 321.119 458.436 321.119L485.793 295.544L478.736 273.777C478.736 273.777 462.705 244.371 454.45 237.885C446.194 231.398 429.597 240.976 427.528 241.563C425.458 242.151 373.509 274.648 371.593 275.758C371.593 275.758 317.727 375.165 316.551 376.341C315.375 377.516 321.256 396.039 320.907 396.932C320.559 397.824 403.023 401.916 403.895 402.896C404.766 403.875 448.329 408.99 460.396 406.618C472.463 404.245 472.964 390.902 472.964 383.567C472.964 376.232 465.711 359.864 465.711 359.864C465.711 359.864 450.464 349.764 445.759 348.676Z" fill="#3C3A3A"/>
<path d="M482.243 289.689C481.655 289.993 473.53 304.555 467.976 308.081C462.422 311.607 446.499 317.049 447.218 317.201C449.581 319.792 451.764 322.541 453.753 325.429L461.267 334.397C461.267 334.397 474.51 332.351 478.692 328.955C482.874 325.56 500.321 309.365 498.557 306.166C495.922 302.379 493.01 298.792 489.845 295.435C487.95 293.084 484.661 286.533 483.811 287.055C483.126 287.826 482.594 288.719 482.243 289.689Z" fill="#838D8F"/>
<path d="M338.92 221.342C338.92 221.342 316.115 232.77 308.078 247.875C300.04 262.981 292.025 270.817 285.36 308.691C281.766 328.955 289.476 358.1 294.965 369.071C300.454 380.041 304.201 382.022 311.062 383.393C317.923 384.764 335.98 376.341 337.548 375.557C345.459 371.509 352.365 365.746 357.761 358.688C364.571 350.132 371.911 342.012 379.739 334.375C380.327 334.179 382.483 342.603 382.483 342.603L401.521 357.121L413.087 365.545L420.144 375.949C420.144 375.949 448.46 373.206 449.592 372.423C450.725 371.639 449.788 363.39 449.592 362.606C449.396 361.822 449.984 357.709 449.2 357.121C446.723 354.67 443.689 352.855 440.357 351.832L435.848 350.852C436.197 349.253 436.088 347.588 435.533 346.048C434.979 344.508 434.001 343.156 432.712 342.146C428.203 338.424 425.458 337.444 425.458 336.661C425.458 335.877 428.007 331.567 425.654 327.845C423.302 324.123 420.732 321.315 420.732 320.771C420.732 320.227 423.28 316.853 423.28 313.719C423.28 310.584 407.598 263.917 407.598 263.917C407.813 259.746 407.168 255.575 405.703 251.663C403.35 245.96 394.659 238.364 393.396 235.229C392.133 232.095 380.175 224.651 380.175 224.651L338.92 221.342Z" fill="#D88B25"/>
<path d="M317.139 354.553C320.092 355.534 323.16 356.126 326.265 356.316C333.628 357.186 345.586 352.985 345.586 352.985L329.315 410.035L325.089 427.448C323.998 432.161 321.156 436.284 317.139 438.984C315.701 439.92 308.318 443.033 308.318 443.033L299.866 446.559C298.56 446.556 297.302 446.067 296.338 445.188C296.008 444.875 295.758 444.49 295.606 444.062C295.455 443.635 295.407 443.178 295.466 442.728C295.466 442.728 288.3 445.188 287.908 445.471L282.506 449.497C282.506 449.497 277.518 451.848 276.429 450.978C276.177 450.698 275.993 450.365 275.89 450.003C275.787 449.641 275.769 449.261 275.836 448.891C275.903 448.521 276.055 448.171 276.278 447.869C276.502 447.567 276.792 447.319 277.126 447.147C279.045 445.858 280.846 444.401 282.506 442.793C280.319 443.506 278.215 444.455 276.233 445.623C273.576 447.103 271.027 449.171 269.067 448.387C267.107 447.604 268.196 445.536 268.196 445.536C267.938 445.322 267.734 445.052 267.598 444.746C267.462 444.44 267.398 444.107 267.412 443.773C267.412 442.685 274.665 436.329 274.665 436.329C274.665 436.329 279.174 429.951 281.33 429.364C283.487 428.776 293.114 427.992 295.662 427.405C298.211 426.817 308.317 424.074 309.69 422.899C311.062 421.724 317.139 354.553 317.139 354.553Z" fill="#D0A78E"/>
<path d="M424.478 398.346C424.137 398.34 423.8 398.281 423.476 398.172C422.761 397.899 422.182 397.355 421.864 396.659C421.547 395.963 421.515 395.169 421.777 394.45L427.462 379.214C427.591 378.857 427.789 378.53 428.046 378.251C428.303 377.971 428.612 377.746 428.957 377.588C429.302 377.43 429.675 377.342 430.054 377.33C430.433 377.318 430.811 377.381 431.165 377.516C431.883 377.781 432.467 378.319 432.789 379.012C433.111 379.705 433.146 380.498 432.886 381.216L427.201 396.453C426.996 397.009 426.625 397.489 426.138 397.828C425.651 398.166 425.072 398.347 424.478 398.346Z" fill="black"/>
<path d="M430.142 367.177C426.662 368.457 423.633 370.727 421.429 373.707C421.34 376.996 421.42 380.287 421.669 383.567C421.669 383.567 418.358 389.814 418.946 391.294C419.04 391.602 419.197 391.887 419.408 392.13C419.619 392.374 419.878 392.571 420.169 392.708C420.46 392.845 420.777 392.92 421.099 392.928C421.421 392.936 421.741 392.876 422.039 392.753C423.215 392.274 424.958 388.399 425.328 387.899C426.018 386.482 426.629 385.029 427.158 383.545L430.033 384.133L429.227 393.014C429.227 393.014 426.94 397.585 427.833 398.912C428.149 399.363 428.588 399.713 429.098 399.922C429.607 400.13 430.166 400.188 430.708 400.088C430.926 399.936 433.866 396.562 433.866 396.562L439.312 392.731C439.312 392.731 443.494 392.426 444.234 391.556C444.975 390.685 444.605 389.205 445.193 389.118C445.781 389.031 446.739 389.27 447.48 388.53C448.22 387.79 449.658 378.604 448.133 375.47C446.754 372.456 444.471 369.945 441.599 368.287C437.896 367.137 433.996 366.759 430.142 367.177Z" fill="#D0A78E"/>
<path d="M389.846 187.3C390.244 189.553 390.244 191.859 389.846 194.112C390.229 196.998 390.375 199.91 390.281 202.819C389.419 205.858 388.274 208.809 386.862 211.634C387.419 214.835 387.225 218.121 386.295 221.233C384.792 227.459 380.218 236.883 376.69 239.43C373.161 241.977 367.629 238.581 367.629 238.581L365.189 253.687C362.395 251.682 359.832 249.375 357.544 246.809C353.405 242.456 339.182 222.387 339.182 221.233C339.182 220.08 353.514 187.8 354.69 187.213C355.867 186.625 389.846 187.3 389.846 187.3Z" fill="#D0A78E"/>
<path d="M374.642 184.731C374.642 184.731 374.054 190.63 363.468 197.007C352.883 203.385 347.873 203.32 345.172 208.348C342.471 213.376 353.885 229.483 334.281 238.995C314.678 248.507 306.357 255.733 303.199 260.761C300.041 265.789 293.898 275.998 294.181 275.17C294.464 274.343 297.71 254.797 305.399 239.778C313.088 224.759 321.583 225.347 324.85 216.684C328.117 208.021 326.592 188.78 330.927 179.834C335.261 170.888 346.522 156.174 360.397 163.378C364.401 165.423 367.812 168.46 370.306 172.198C372.8 175.937 374.293 180.252 374.642 184.731Z" fill="#856149"/>
<path d="M349.093 208.827C347.344 207.198 345.693 205.469 344.148 203.646C342.82 201.883 340.62 198.205 337.962 199.663C335.305 201.121 336.198 210.111 337.069 211.134C337.94 212.157 340.358 215.095 340.249 215.966C340.14 216.837 341.556 220.036 343.713 219.644C344.671 219.492 345.085 218.665 346.261 216.619C347.452 214.118 348.401 211.509 349.093 208.827Z" fill="#D0A78E"/>
<path d="M372.007 184.927C376.471 185.787 380.532 188.079 383.573 191.457C386.302 194.661 388.689 198.14 390.695 201.84C390.695 201.84 392.873 193.133 392.329 190.956C391.784 188.78 388.67 180.073 388.67 180.073L372.007 184.927Z" fill="#856149"/>
<path d="M627.352 376.471C628.375 376.341 642.294 377.799 642.294 377.799C642.294 377.799 643.513 380.084 642.294 385.918C641.074 391.751 639.636 396.562 639.636 396.562C639.636 396.562 626.328 396.562 626.088 395.996C624.398 392.715 623.644 389.032 623.91 385.352C624.032 382.091 625.244 378.964 627.352 376.471Z" fill="#4E3631"/>
<path d="M626.742 417.762C628.811 418.132 634.234 418.589 634.234 418.589L634.866 420.766L629.029 486.827C628.953 487.549 628.69 488.239 628.266 488.829C628.124 488.965 627.942 489.053 627.748 489.082C627.553 489.111 627.354 489.079 627.178 488.991C627.002 488.903 626.857 488.763 626.763 488.59C626.67 488.417 626.632 488.219 626.655 488.024L626.742 417.762Z" fill="#313534"/>
<path d="M625.064 393.667C627.526 393.971 640.115 394.907 640.115 394.907L634.888 421.593C634.888 421.593 633.995 422.812 630.793 422.616C629.338 422.644 627.917 422.175 626.763 421.288L625.064 393.667Z" fill="#FBF6EB"/>
<path d="M607.378 421.876L608.053 421.615L608.924 420.896C608.924 420.896 610.34 413.953 624.171 483.235C624.224 483.5 624.222 483.772 624.163 484.035C624.105 484.298 623.992 484.547 623.832 484.764C623.672 484.981 623.469 485.162 623.234 485.296C623 485.431 622.741 485.514 622.472 485.542C621.792 485.621 621.108 485.441 620.554 485.037C620.001 484.634 619.621 484.037 619.488 483.366C613.978 455.853 607.378 421.876 607.378 421.876Z" fill="#181E1C"/>
<path d="M608.598 421.876C609.322 421.433 609.889 420.776 610.221 419.995C610.553 419.215 610.633 418.35 610.449 417.522C610.227 415.698 609.381 414.006 608.053 412.734C607.147 411.87 606.072 411.203 604.895 410.775C605.481 411.706 605.929 412.718 606.224 413.779C606.376 414.911 604.045 418.132 604.329 419.764C604.612 421.397 607.748 422.289 608.598 421.876Z" fill="#4E3631"/>
<path d="M613.106 441.182C613.824 441.101 614.516 440.863 615.132 440.486C609.708 417.327 608.99 420.896 608.99 420.896L608.118 421.615L607.443 421.876L611.102 440.638C611.743 440.909 612.417 441.092 613.106 441.182Z" fill="#FBF6EB"/>
<path d="M610.057 374.207L617.528 373.446L626.72 483.649C626.745 484.033 626.621 484.413 626.373 484.709C626.126 485.004 625.774 485.194 625.391 485.238C625.008 485.275 624.626 485.161 624.325 484.922C624.024 484.682 623.829 484.335 623.779 483.953L610.057 374.207Z" fill="#313534"/>
<path d="M615.285 361.148L612.627 361.43L609.948 361.713C609.628 361.735 609.317 361.827 609.037 361.983C608.757 362.138 608.515 362.353 608.328 362.613C608.141 362.873 608.013 363.171 607.954 363.486C607.895 363.801 607.907 364.124 607.988 364.434C608.728 367.852 610.013 373.685 610.166 374.207L613.912 373.837L617.637 373.446C617.637 372.901 617.746 366.916 617.768 363.411C617.784 363.091 617.729 362.77 617.606 362.474C617.484 362.177 617.298 361.911 617.06 361.694C616.823 361.478 616.541 361.317 616.234 361.222C615.927 361.128 615.603 361.102 615.285 361.148Z" fill="#4E3631"/>
<path d="M612.257 391.686L619.009 390.989L617.528 373.424L610.057 374.207L612.257 391.686Z" fill="#FBF6EB"/>
<path d="M636.892 487.741V458.835C636.892 451.826 638.83 445.101 640.464 438.266C640.475 438.157 640.475 438.048 640.464 437.94C640.464 435.066 631.86 432.737 621.253 432.737C610.645 432.737 602.041 435.066 602.041 437.94C602.031 438.048 602.031 438.157 602.041 438.266C603.675 445.101 605.613 451.826 605.613 458.835V487.741C603.435 488.59 601.998 489.635 601.998 490.766C601.998 493.64 610.601 495.969 621.209 495.969C631.817 495.969 640.42 493.64 640.42 490.766C640.508 489.635 639.244 488.59 636.892 487.741Z" fill="#F5E5F0"/>
</g>
<defs>
<clipPath id="clip0_338:1343">
<rect width="659" height="521" fill="white"/>
</clipPath>
</defs>
</svg>
