<svg width="572" height="475" viewBox="0 0 572 475" fill="none" xmlns="http://www.w3.org/2000/svg">
<g clip-path="url(#clip0_338:1493)">
<path fill-rule="evenodd" clip-rule="evenodd" d="M558.161 150.967C539.571 151.465 523.207 164.485 513.285 180.213C503.363 195.941 498.551 214.277 493.143 232.075C487.735 249.873 481.213 267.91 468.766 281.846C458.984 292.637 444.668 300.222 430.451 300.222C426.461 300.24 422.493 299.615 418.701 298.371C405.856 294.13 396.352 283.24 388.876 271.892C381.4 260.544 375.534 248.161 366.348 238.207C360.121 231.547 352.643 226.185 344.341 222.427C336.04 218.668 327.078 216.589 317.972 216.307H316.322C298.511 216.393 281.418 223.353 268.602 235.738C255.062 248.918 247.586 267.074 235.616 281.707C226.39 292.995 212.174 302.273 198.295 302.273C194.116 302.293 189.982 301.396 186.186 299.645C177.517 295.663 171.513 287.461 163.599 282.125C156.879 277.653 148.982 275.283 140.912 275.316C134.888 275.323 128.943 276.683 123.514 279.298C110.908 285.41 100.609 307.071 99.5353 321.106L558.201 320.569L558.161 150.967Z" fill="#D88B25"/>
<path fill-rule="evenodd" clip-rule="evenodd" d="M202.292 21.3421C202.297 20.4374 202.66 19.5715 203.3 18.9336C203.941 18.2958 204.808 17.9377 205.712 17.9377H495.31C496.212 17.939 497.077 18.2968 497.716 18.9332C498.037 19.2467 498.292 19.6213 498.467 20.035C498.641 20.4487 498.73 20.8932 498.73 21.3421V246.748C498.73 247.196 498.642 247.641 498.47 248.055C498.298 248.469 498.045 248.846 497.728 249.162C497.41 249.478 497.033 249.729 496.618 249.899C496.203 250.069 495.759 250.155 495.31 250.152H205.712C205.264 250.155 204.819 250.069 204.404 249.899C203.99 249.729 203.612 249.478 203.295 249.162C202.977 248.846 202.725 248.469 202.552 248.055C202.38 247.641 202.292 247.196 202.292 246.748V21.3421Z" fill="#F9F8F7"/>
<path d="M202.351 18.5349V18.7937C202.351 101.892 202.351 180.492 202.351 249.316V249.555H202.57C378.198 249.395 496.484 249.336 498.452 249.336L202.809 249.097C202.809 180.392 202.809 101.952 202.809 19.0525H498.213C498.353 158.094 498.432 247.643 498.432 249.375C498.432 247.643 498.432 157.995 498.631 18.8335V18.6345H498.432H202.59L202.351 18.5349Z" stroke="#434343" stroke-linejoin="round"/>
<path fill-rule="evenodd" clip-rule="evenodd" d="M283.952 118.018C283.813 118.018 283.694 143.083 283.694 174.001C283.694 204.919 283.813 229.965 283.952 229.965C284.091 229.965 284.191 204.9 284.191 174.001C284.191 143.103 284.091 118.018 283.952 118.018Z" fill="#232323"/>
<path fill-rule="evenodd" clip-rule="evenodd" d="M412.358 118.018C412.218 118.018 412.099 143.083 412.099 174.001C412.099 204.919 412.218 229.965 412.358 229.965C412.497 229.965 412.596 204.9 412.596 174.001C412.596 143.103 412.477 118.018 412.358 118.018Z" fill="#232323"/>
<path fill-rule="evenodd" clip-rule="evenodd" d="M327.775 86.9011C327.655 86.9011 327.536 118.934 327.536 158.453C327.536 197.971 327.655 230.004 327.775 230.004C327.894 230.004 328.033 197.971 328.033 158.453C328.033 118.934 327.934 86.9011 327.775 86.9011Z" fill="#232323"/>
<path fill-rule="evenodd" clip-rule="evenodd" d="M462.742 86.9011C462.602 86.9011 462.503 118.934 462.503 158.453C462.503 197.971 462.602 230.004 462.742 230.004C462.881 230.004 463 197.971 463 158.453C463 118.934 462.881 86.9011 462.742 86.9011Z" fill="#263238"/>
<path fill-rule="evenodd" clip-rule="evenodd" d="M366.229 64.7429C366.109 64.7429 365.99 101.713 365.99 147.344C365.99 192.974 366.109 229.965 366.229 229.965C366.348 229.965 366.507 192.974 366.507 147.344C366.507 101.713 366.368 64.7429 366.229 64.7429Z" fill="#232323"/>
<path fill-rule="evenodd" clip-rule="evenodd" d="M362.252 110.672C357.282 110.666 352.396 111.956 348.075 114.415C343.082 117.429 338.769 121.449 335.41 126.221C332.159 130.763 329.217 135.519 326.601 140.455C324.086 145.15 321.305 149.697 318.27 154.073C315.406 158.264 312.07 162.111 308.329 165.54C304.823 168.815 300.591 171.21 295.981 172.528C294.882 172.843 293.758 173.062 292.621 173.185C292.055 173.268 291.483 173.302 290.911 173.285H289.559H289.241C287.033 173.169 284.848 172.774 282.739 172.11C278.721 170.726 274.924 168.768 271.465 166.297C268.065 164.007 264.924 161.579 261.822 159.389C258.896 157.209 255.751 155.34 252.437 153.814C249.456 152.478 246.281 151.624 243.032 151.286C242.157 151.206 241.303 151.166 240.467 151.166C238.486 151.15 236.511 151.411 234.602 151.943C233.966 152.082 233.369 152.381 232.773 152.56C232.191 152.754 231.626 152.994 231.083 153.277C230.059 153.758 229.081 154.331 228.16 154.989C226.59 156.054 225.132 157.275 223.805 158.632C223.288 159.269 222.771 159.827 222.334 160.364C221.915 160.832 221.523 161.324 221.161 161.837C220.544 162.773 220.067 163.45 219.749 163.948C219.573 164.181 219.426 164.435 219.312 164.704C219.517 164.503 219.704 164.283 219.868 164.047C220.226 163.569 220.723 162.892 221.399 162.056C221.774 161.548 222.186 161.069 222.632 160.623L224.123 158.97C225.469 157.682 226.926 156.516 228.478 155.486C229.399 154.881 230.363 154.342 231.361 153.874C231.858 153.595 232.455 153.476 233.011 153.237C233.59 153.012 234.181 152.819 234.781 152.659C236.552 152.193 238.378 151.966 240.209 151.983C241.104 151.983 242.038 151.983 242.973 152.122C246.117 152.519 249.182 153.399 252.059 154.73C255.288 156.259 258.352 158.114 261.206 160.265C264.268 162.474 267.389 164.923 270.829 167.292C274.371 169.82 278.254 171.831 282.361 173.265C284.571 173.978 286.863 174.4 289.181 174.519H289.738H290.971C291.569 174.534 292.167 174.501 292.76 174.42C293.964 174.3 295.155 174.074 296.319 173.743C298.706 173.138 300.995 172.2 303.119 170.955C304.214 170.359 305.27 169.694 306.281 168.965C307.308 168.226 308.297 167.436 309.243 166.595C313.095 163.116 316.531 159.201 319.483 154.929C322.551 150.51 325.372 145.924 327.934 141.192C330.522 136.314 333.438 131.618 336.662 127.137C339.897 122.533 344.055 118.654 348.871 115.749C351.299 114.36 353.928 113.359 356.665 112.782C358.535 112.386 360.44 112.186 362.351 112.185C363.206 112.185 364.042 112.185 364.897 112.305C367.588 112.579 370.205 113.355 372.611 114.594C374.998 115.824 377.195 117.393 379.133 119.253C382.874 123 386.133 127.2 388.836 131.755C391.58 136.175 394.065 140.694 396.789 144.975C399.513 149.255 401.899 153.396 404.206 157.557C405.359 159.548 406.552 161.678 407.884 163.53C409.199 165.469 410.833 167.172 412.716 168.566C414.567 169.881 416.663 170.808 418.879 171.294C420.982 171.771 423.127 172.038 425.282 172.09H426.674C430.257 172.126 433.812 171.449 437.132 170.099C438.874 169.384 440.534 168.483 442.083 167.412C443.539 166.383 444.915 165.245 446.199 164.007C448.504 161.723 450.625 159.26 452.542 156.641C456.121 151.783 458.984 147.463 461.867 144.358C463.979 141.907 466.58 139.927 469.502 138.544C470.274 138.212 471.072 137.945 471.888 137.748C472.171 137.692 472.445 137.599 472.703 137.469L471.868 137.609C471.026 137.751 470.2 137.978 469.403 138.285C466.365 139.573 463.649 141.517 461.449 143.979C458.054 147.873 454.862 151.94 451.886 156.163C449.976 158.72 447.861 161.117 445.563 163.33C444.319 164.509 442.99 165.594 441.586 166.576C440.084 167.587 438.486 168.448 436.814 169.144C433.649 170.396 430.275 171.031 426.872 171.015H425.401C423.33 170.952 421.27 170.672 419.257 170.179C417.192 169.739 415.241 168.871 413.531 167.631C409.992 165.142 407.745 161.021 405.438 156.9C403.132 152.779 400.746 148.459 398.042 144.218C395.338 139.978 392.952 135.478 390.089 130.999C387.323 126.326 383.983 122.019 380.147 118.178C378.12 116.212 375.815 114.555 373.307 113.26C370.739 111.924 367.937 111.099 365.056 110.831C364.125 110.726 363.189 110.673 362.252 110.672Z" fill="#232323"/>
<path fill-rule="evenodd" clip-rule="evenodd" d="M237.883 44.675V47.5419H289.48V44.675H237.883Z" fill="#232323"/>
<path fill-rule="evenodd" clip-rule="evenodd" d="M237.883 51.3843V54.271H263.373V51.3843H237.883Z" fill="#232323"/>
<path fill-rule="evenodd" clip-rule="evenodd" d="M202.59 0C202.502 0.0047784 202.419 0.0419445 202.356 0.10441C202.294 0.166875 202.257 0.250233 202.252 0.338443V18.7937H498.512V0.338443C498.512 0.252027 498.479 0.168827 498.42 0.105898C498.361 0.0429697 498.28 0.0050832 498.194 0H202.59Z" fill="#232323"/>
<path fill-rule="evenodd" clip-rule="evenodd" d="M215.574 7.74438C215.18 7.74438 214.796 7.86112 214.469 8.07988C214.142 8.29864 213.887 8.60958 213.737 8.97336C213.586 9.33715 213.547 9.73744 213.624 10.1236C213.7 10.5098 213.89 10.8646 214.168 11.143C214.446 11.4214 214.8 11.611 215.186 11.6878C215.572 11.7647 215.971 11.7252 216.335 11.5746C216.698 11.4239 217.008 11.1687 217.227 10.8413C217.445 10.5139 217.562 10.129 217.562 9.73525C217.562 9.20724 217.353 8.70085 216.98 8.32749C216.607 7.95413 216.101 7.74438 215.574 7.74438Z" fill="#2A368D"/>
<path fill-rule="evenodd" clip-rule="evenodd" d="M224.382 7.74438C223.989 7.74438 223.604 7.86112 223.277 8.07988C222.95 8.29864 222.696 8.60958 222.545 8.97336C222.395 9.33715 222.355 9.73744 222.432 10.1236C222.509 10.5098 222.698 10.8646 222.976 11.143C223.254 11.4214 223.608 11.611 223.994 11.6878C224.38 11.7647 224.779 11.7252 225.143 11.5746C225.506 11.4239 225.817 11.1687 226.035 10.8413C226.254 10.5139 226.37 10.129 226.37 9.73525C226.37 9.20724 226.161 8.70085 225.788 8.32749C225.415 7.95413 224.909 7.74438 224.382 7.74438Z" fill="white"/>
<path fill-rule="evenodd" clip-rule="evenodd" d="M233.21 7.74438C232.817 7.74438 232.432 7.86112 232.105 8.07988C231.778 8.29864 231.524 8.60958 231.373 8.97336C231.223 9.33715 231.183 9.73744 231.26 10.1236C231.337 10.5098 231.526 10.8646 231.804 11.143C232.082 11.4214 232.436 11.611 232.822 11.6878C233.208 11.7647 233.608 11.7252 233.971 11.5746C234.334 11.4239 234.645 11.1687 234.863 10.8413C235.082 10.5139 235.198 10.129 235.198 9.73525C235.198 9.20724 234.989 8.70085 234.616 8.32749C234.243 7.95413 233.737 7.74438 233.21 7.74438Z" fill="white"/>
<path fill-rule="evenodd" clip-rule="evenodd" d="M327.894 83.4171C328.573 83.4132 329.239 83.6109 329.806 83.9852C330.374 84.3596 330.818 84.8937 331.082 85.5204C331.347 86.147 331.42 86.8381 331.293 87.5064C331.165 88.1747 330.843 88.7903 330.367 89.2755C329.891 89.7607 329.281 90.0938 328.616 90.2328C327.951 90.3718 327.26 90.3104 326.629 90.0564C325.999 89.8024 325.458 89.3672 325.074 88.8057C324.691 88.2442 324.482 87.5814 324.474 86.9011C324.469 86.4471 324.553 85.9967 324.722 85.5755C324.892 85.1543 325.142 84.7708 325.46 84.447C325.778 84.1232 326.157 83.8655 326.575 83.6888C326.992 83.512 327.44 83.4197 327.894 83.4171ZM327.894 83.1782C327.166 83.1782 326.455 83.3942 325.85 83.7989C325.245 84.2036 324.774 84.7788 324.496 85.4518C324.217 86.1248 324.144 86.8654 324.286 87.5798C324.428 88.2943 324.779 88.9505 325.293 89.4656C325.807 89.9807 326.463 90.3315 327.176 90.4736C327.89 90.6157 328.63 90.5428 329.302 90.264C329.974 89.9853 330.548 89.5132 330.952 88.9075C331.357 88.3018 331.572 87.5898 331.572 86.8613C331.572 85.8845 331.185 84.9477 330.495 84.2569C329.805 83.5662 328.869 83.1782 327.894 83.1782Z" fill="#232323"/>
<path fill-rule="evenodd" clip-rule="evenodd" d="M327.775 85.8261C327.522 85.861 327.292 85.9861 327.124 86.1782C326.957 86.3704 326.865 86.6165 326.865 86.8713C326.865 87.1261 326.957 87.3723 327.124 87.5644C327.292 87.7565 327.522 87.8816 327.775 87.9165C327.924 87.9372 328.076 87.9256 328.22 87.8825C328.364 87.8395 328.498 87.7659 328.611 87.6669C328.725 87.5679 328.816 87.4456 328.878 87.3084C328.941 87.1711 328.973 87.0221 328.973 86.8713C328.973 86.7205 328.941 86.5715 328.878 86.4343C328.816 86.297 328.725 86.1748 328.611 86.0758C328.498 85.9767 328.364 85.9032 328.22 85.8601C328.076 85.8171 327.924 85.8054 327.775 85.8261Z" fill="#232323"/>
<path fill-rule="evenodd" clip-rule="evenodd" d="M283.992 115.928C283.782 115.924 283.575 115.983 283.399 116.097C283.223 116.212 283.085 116.376 283.002 116.57C282.92 116.764 282.898 116.977 282.938 117.184C282.978 117.39 283.078 117.58 283.227 117.729C283.376 117.878 283.565 117.979 283.771 118.019C283.978 118.059 284.191 118.036 284.384 117.954C284.578 117.872 284.742 117.733 284.856 117.557C284.971 117.38 285.03 117.174 285.026 116.963C285.021 116.69 284.91 116.43 284.717 116.237C284.525 116.044 284.264 115.933 283.992 115.928Z" fill="#232323"/>
<path fill-rule="evenodd" clip-rule="evenodd" d="M462.881 85.8262C462.672 85.8262 462.467 85.8886 462.293 86.0055C462.12 86.1223 461.985 86.2883 461.906 86.4823C461.826 86.6763 461.807 86.8894 461.849 87.0946C461.891 87.2999 461.994 87.4878 462.143 87.6345C462.292 87.7813 462.482 87.8802 462.688 87.9186C462.894 87.9571 463.106 87.9333 463.298 87.8503C463.49 87.7674 463.654 87.6291 463.767 87.453C463.88 87.2769 463.939 87.071 463.935 86.8615C463.93 86.5851 463.816 86.3218 463.619 86.1282C463.422 85.9346 463.157 85.8261 462.881 85.8262Z" fill="#232323"/>
<path fill-rule="evenodd" clip-rule="evenodd" d="M515.452 48.3979C506.849 48.6055 498.497 51.3496 491.444 56.2868C484.39 61.2239 478.948 68.1347 475.798 76.154C472.648 84.1733 471.931 92.9447 473.736 101.37C475.541 109.796 479.788 117.501 485.945 123.521C492.103 129.541 499.897 133.609 508.352 135.216C516.808 136.822 525.548 135.895 533.48 132.551C541.412 129.207 548.182 123.595 552.944 116.417C557.705 109.239 560.247 100.814 560.249 92.1969H516.506L515.452 48.3979Z" fill="#2A368D"/>
<path fill-rule="evenodd" clip-rule="evenodd" d="M527.283 37.707L528.257 81.506L572 80.8292C571.693 69.2699 566.959 58.2714 558.778 50.1101C550.222 42.14 538.969 37.7086 527.283 37.707Z" fill="#2A368D"/>
<path d="M182.309 236.913V244.08V248.201V259.728H321.611V248.201V244.08V236.913H182.309Z" fill="#C6C6C6"/>
<path d="M299.938 474.98C300.3 475.039 300.67 475.039 301.032 474.98C301.988 474.77 302.822 474.189 303.352 473.365C303.881 472.54 304.062 471.539 303.855 470.58L257.149 252.621C256.891 251.72 256.302 250.951 255.5 250.468C254.698 249.986 253.743 249.825 252.827 250.02C251.912 250.214 251.104 250.749 250.567 251.516C250.029 252.283 249.803 253.226 249.932 254.154L296.637 472.073C296.805 472.848 297.216 473.548 297.81 474.071C298.404 474.594 299.15 474.913 299.938 474.98Z" fill="#98918D"/>
<path d="M203.982 474.98C203.626 475.04 203.263 475.04 202.908 474.98C201.95 474.77 201.115 474.19 200.582 473.366C200.05 472.542 199.864 471.541 200.065 470.58L246.77 252.68C246.84 252.177 247.013 251.693 247.278 251.26C247.543 250.826 247.894 250.452 248.31 250.16C248.725 249.868 249.196 249.665 249.694 249.564C250.191 249.462 250.704 249.464 251.2 249.569C251.697 249.675 252.167 249.882 252.58 250.177C252.993 250.472 253.341 250.849 253.603 251.284C253.864 251.72 254.033 252.205 254.1 252.709C254.166 253.213 254.128 253.725 253.988 254.213L207.282 472.073C207.118 472.849 206.708 473.551 206.113 474.075C205.518 474.598 204.771 474.916 203.982 474.98Z" fill="#98918D"/>
<path d="M251.96 258.434C254.826 258.434 257.149 256.107 257.149 253.238C257.149 250.368 254.826 248.042 251.96 248.042C249.094 248.042 246.77 250.368 246.77 253.238C246.77 256.107 249.094 258.434 251.96 258.434Z" fill="#313534"/>
<path d="M291.846 172.09L280.413 169.602L255.578 232.115C234.801 231.617 194.994 230.701 194.557 230.92L175.568 235.24V239.74L251.88 241.452C256.347 240.109 260.68 238.357 264.824 236.216L267.17 235.26L268.006 232.433C274.289 219.97 291.846 172.09 291.846 172.09Z" fill="#98918D"/>
<path d="M82.4355 362.357H68.8752V364.467H82.4355V362.357Z" fill="black"/>
<path d="M63.7255 353.517V372.729H68.8753V366.876H73.5478V359.808H68.8753V353.517H63.7255Z" fill="#221F23"/>
<path d="M141.986 440.598L86.8696 435.302V332.016C86.8696 330.992 86.4632 330.009 85.7399 329.285C85.0165 328.561 84.0353 328.154 83.0123 328.154C81.9893 328.154 81.0081 328.561 80.2847 329.285C79.5613 330.009 79.1549 330.992 79.1549 332.016V435.302L24.0189 440.657C23.0359 440.758 22.1289 441.232 21.4848 441.982C20.8407 442.732 20.5086 443.701 20.5571 444.689C20.6055 445.677 21.0308 446.609 21.7452 447.293C22.4596 447.976 23.4086 448.359 24.3966 448.362H24.7744L79.1549 443.086V454.812C79.1549 455.837 79.5613 456.819 80.2847 457.544C81.0081 458.268 81.9893 458.675 83.0123 458.675C84.0353 458.675 85.0165 458.268 85.7399 457.544C86.4632 456.819 86.8696 455.837 86.8696 454.812V443.086L141.25 448.362H141.548C142.535 448.354 143.481 447.968 144.191 447.283C144.902 446.598 145.324 445.666 145.37 444.679C145.415 443.693 145.082 442.726 144.438 441.978C143.794 441.23 142.888 440.757 141.906 440.657L141.986 440.598Z" fill="#98918D"/>
<path d="M141.549 320.25C141.549 312.585 115.303 310.754 82.9328 310.754C50.5629 310.754 24.3171 312.585 24.3171 320.25V337.133C24.3171 344.817 50.5629 349.954 82.9328 349.954C115.303 349.954 141.549 344.817 141.549 337.133V320.25Z" fill="#C6C6C6"/>
<path d="M77.0872 95.0437C77.5047 95.3423 87.3668 99.0254 88.7984 103.206C90.23 107.387 92.437 124.907 90.7867 131.078C88.7413 137.956 87.907 145.137 88.3212 152.301C88.6141 156.592 87.4357 160.856 84.9808 164.386C84.9808 164.386 70.5655 172.528 70.4263 169.821C70.2871 167.113 65.5152 107.646 65.6941 106.79C65.8731 105.934 77.0872 95.0437 77.0872 95.0437Z" fill="#1C1B1D"/>
<path d="M77.1666 101.773C79.0298 102.666 80.6667 103.97 81.9546 105.587C83.2425 107.204 84.1479 109.092 84.6029 111.11C86.3129 118.158 87.148 119.989 86.7702 123.234C86.5722 125.069 86.2061 126.882 85.6766 128.649C86.1552 131.33 86.3882 134.049 86.3725 136.772C86.1355 141.563 85.2183 146.296 83.6486 150.828C83.6486 150.828 83.2509 155.367 82.0977 156.322C79.0754 158.851 72.1561 156.959 72.1561 156.959V161.419C72.1561 161.419 77.783 160.662 81.8591 160.284C85.0603 159.986 86.0345 169.601 86.0345 169.601C86.0345 169.601 65.8729 182.184 64.7197 181.805L42.6494 174.18C42.6494 174.18 41.5161 128.391 42.4506 126.738C43.3851 125.086 59.5899 103.107 60.1665 102.848C60.7431 102.589 77.1666 101.773 77.1666 101.773Z" fill="#754742"/>
<path d="M178.691 220.667C182.338 218.684 186.21 217.147 190.223 216.088C190.839 216.088 199.827 216.665 201.258 217.521C203.939 219.648 206.25 222.204 208.098 225.087C208.535 226.52 209.251 227.536 208.098 228.392C207.711 228.625 207.267 228.749 206.815 228.749C206.364 228.749 205.92 228.625 205.533 228.392L202.252 224.271C202.252 224.271 201.815 231.398 201.536 232.553C201.258 233.707 199.687 234.703 199.687 234.703C199.687 234.703 198.256 233.409 198.117 233.847C197.977 234.285 198.832 233.986 197.401 234.703C196.293 235.088 195.088 235.088 193.981 234.703L191.992 227.974C191.992 227.974 190.004 229.686 189.328 229.686C187.611 230.224 185.936 230.889 184.318 231.677C184.318 231.677 188.473 231.816 187.897 234.105C187.32 236.395 184.477 235.957 184.477 235.957C181.95 234.578 179.325 233.386 176.623 232.393C172.746 231.059 175.132 222.857 178.691 220.667Z" fill="#754742"/>
<path d="M47.6801 161.021C48.4356 161.797 51.2193 172.687 59.0135 172.687C66.8077 172.687 77.4253 160.742 77.4253 160.742C77.4253 160.742 91.3436 157.557 97.3085 165.401C100.987 170.199 125.662 208.264 131.746 212.843C137.831 217.422 154.214 221.025 154.214 221.025C154.214 221.025 174.575 219.891 178.571 218.557C182.385 217.483 186.264 216.652 190.183 216.068C186.867 217.88 183.952 220.345 181.613 223.315C179.449 227.063 177.784 231.079 176.662 235.26C176.662 235.26 145.446 240.397 136.896 237.729C130.842 235.597 125.134 232.585 119.956 228.79L85.1201 223.633L61.0018 242.188L59.4708 245.991L32.8273 289.79C32.8273 289.79 26.8624 289.79 16.2845 280.612C9.4049 274.639 -4.41395 192.875 7.43644 175.435C19.2868 157.995 47.6801 161.021 47.6801 161.021Z" fill="#E6F2FC"/>
<path d="M190.541 368.15C190.541 368.867 182.846 397.595 182.687 399.586C182.528 401.577 182.687 417.743 182.687 417.743C182.687 417.743 189.984 435.661 192.629 438.607C194.826 440.774 196.786 443.17 198.475 445.754C198.49 446.035 198.433 446.315 198.307 446.566C198.182 446.818 197.993 447.032 197.759 447.188C197.759 447.188 201.039 449.756 200.9 451.03C200.691 451.971 200.19 452.821 199.469 453.459C199.469 453.459 199.906 455.191 199.19 455.748C198.475 456.306 196.765 455.748 196.765 455.748C196.715 456.201 196.522 456.627 196.215 456.963C195.907 457.3 195.501 457.53 195.055 457.62C192.823 457.899 190.566 457.899 188.334 457.62C186.609 457.043 185.047 456.06 183.781 454.753C183.781 454.753 177.816 453.319 175.828 450.612C173.839 447.904 168.968 426.722 166.979 424.173C164.991 421.625 157.694 418.201 157.833 412.985C157.972 407.769 164.255 400.024 164.255 400.024C164.255 400.024 166.403 365.582 166.979 365.284C167.556 364.985 190.541 368.15 190.541 368.15Z" fill="#754742"/>
<path d="M111.048 168.945C111.048 168.945 119.618 172.09 122.461 178.66C125.304 185.23 126.04 255.388 126.04 255.388L119.657 257.259C119.657 257.259 118.186 263.331 119.041 263.869C119.896 264.407 191.555 283.26 197.54 296.698C201.214 305.351 202.781 314.754 202.113 324.132C202.113 324.988 196.963 372.729 196.148 372.729C195.333 372.729 164.474 371.296 164.474 369.584C164.474 367.872 164.176 335.859 164.474 334.425C164.772 332.992 166.184 324.71 166.184 324.71C161.4 324.757 156.622 324.37 151.908 323.555C145.346 322.281 109.656 306.414 109.656 306.414C101.359 310.585 92.442 313.382 83.2512 314.696C69.9891 316.129 55.1363 318.677 47.4614 313.282C39.7865 307.887 32.8274 289.969 32.8274 289.969L61.658 235.061C61.658 235.061 87.3471 173.583 95.0618 170.458C100.163 168.546 105.679 168.024 111.048 168.945Z" fill="#FFF1B6"/>
<path d="M97.8058 272.688L103.234 296.419C103.234 296.419 95.6783 311.55 96.8117 315.85C97.945 320.151 107.668 322.42 107.668 322.42L124.569 337.849C126.039 338.805 127.597 339.619 129.221 340.278C129.937 340.278 131.071 342.568 133.775 343.145C134.524 343.332 135.303 343.365 136.065 343.242C136.827 343.119 137.556 342.842 138.209 342.428C139.565 343.469 141.048 344.332 142.623 344.997C143.478 344.997 144.054 344.001 144.611 344.001C145.168 344.001 147.613 346.291 149.323 345.853C151.033 345.415 150.755 344.28 151.888 344.419C153.022 344.559 152.743 345.713 155.865 344.857C158.986 344.001 160.001 341.712 159.583 341.433C159.165 341.154 152.723 336.715 152.306 336.575C151.888 336.436 131.468 307.27 130.892 305.896L125.742 294.349C123.537 288.891 122.054 283.169 121.328 277.327C120.473 268.746 120.115 256.941 119.657 257.18C119.2 257.418 114.329 262.794 108.762 264.367C104.786 265.412 100.738 266.164 96.6526 266.616L97.8058 272.688Z" fill="#754742"/>
<path d="M70.5059 245.254C70.5059 245.254 77.2265 243.383 79.354 241.273C81.4815 239.162 84.5037 234.404 86.3528 233.548C88.202 232.692 97.1892 225.585 97.7658 225.585C98.3424 225.585 106.057 224.569 107.051 225.405C108.045 226.242 107.051 228.392 107.051 228.392L98.6406 233.389L107.489 232.672C107.489 232.672 117.55 229.885 119.18 229.666C120.81 229.447 122.222 230.482 122.222 231V233.19C122.551 233.266 122.855 233.425 123.105 233.651C123.356 233.878 123.544 234.164 123.654 234.484C123.727 235.544 123.612 236.609 123.316 237.629C123.316 237.629 124.509 237.968 124.469 239.063C124.11 240.458 123.561 241.798 122.839 243.044C122.839 243.044 124.827 242.288 124.469 244.179C124.111 246.071 114.766 253.039 114.766 253.039C110.809 255.006 106.666 256.574 102.399 257.717C98.422 258.294 81.561 258.772 80.9844 258.772C80.4078 258.772 67.0661 262.953 66.231 263.152C65.3959 263.351 70.5059 245.254 70.5059 245.254Z" fill="#754742"/>
<path d="M38.2554 212.086C39.1104 213.241 38.2554 247.544 38.2554 247.544C38.2554 247.544 51.2988 249.057 55.3948 247.544C59.4907 246.031 74.5025 241.81 74.5025 241.81C74.5025 241.81 71.9376 252.959 74.5025 256.961C75.9496 259.033 76.9454 261.386 77.4254 263.869C77.4254 263.869 49.1117 276.113 34.5572 275.257C20.0027 274.4 15.9863 270.976 15.9863 270.12C15.9863 269.264 7.31717 238.207 6.34289 231.239C5.36862 224.271 7.3967 175.494 7.3967 175.494L38.2554 212.086Z" fill="#E6F2FC"/>
<path d="M81.1633 101.016C81.5727 100.876 81.9499 100.655 82.2726 100.366C82.5953 100.078 82.8571 99.7274 83.0424 99.3359C83.2278 98.9444 83.3329 98.5197 83.3517 98.0868C83.3704 97.6539 83.3024 97.2217 83.1517 96.8156C82.3961 93.3913 76.8885 90.3055 71.7387 89.3499C68.3178 88.8151 64.8254 88.9571 61.4591 89.7679C58.6458 88.3317 55.4386 87.8629 52.3327 88.434C47.4812 89.4892 36.8835 101.136 34.6963 105.695C32.5092 110.254 29.5863 124.23 27.0214 128.649C24.4564 133.069 19.4061 135.777 14.495 148.558C12.3078 154.272 5.64694 159.03 4.55336 163.748C3.83637 166.606 2.29413 169.189 0.119385 171.174L7.55568 170.04L3.12177 178.182C5.37084 177.659 7.47175 176.631 9.26567 175.176C11.5335 172.64 13.5822 169.916 15.3897 167.033C15.3413 169.659 14.6079 172.225 13.2622 174.479C10.9756 178.461 5.40832 186.623 5.40832 186.623C5.40832 186.623 10.6973 181.905 14.1172 179.178C17.5371 176.45 26.8225 174.618 30.0237 169.323C33.2249 164.027 33.0062 163.032 33.0062 163.032C33.634 166.624 33.6876 170.293 33.1653 173.902C32.2904 180.054 29.4471 193.333 29.5863 192.755C29.7255 192.178 32.867 186.185 32.867 186.185C32.867 186.185 31.7337 198.131 34.0203 201.475C36.3069 204.82 37.5793 205.457 37.5793 205.457C36.2245 201.511 35.6439 197.34 35.8694 193.173C36.446 187.201 44.9958 177.246 46.5666 172.17C47.4969 169.563 47.8431 166.783 47.5806 164.027C48.3272 169.517 48.7059 175.051 48.7139 180.591C48.5991 183.996 47.9274 187.358 46.7256 190.545C46.7256 190.545 52.4122 185.588 54.0029 180.492C55.5935 175.395 57.8205 172.11 58.8743 168.347C60.4536 161.868 61.5962 155.29 62.2942 148.658C62.8708 143.8 70.5656 136.513 72.1364 131.516C73.7071 126.519 81.7002 104.261 83.4102 102.41C85.1201 100.558 81.1633 101.016 81.1633 101.016Z" fill="#1C1B1D"/>
</g>
<defs>
<clipPath id="clip0_338:1493">
<rect width="572" height="475" fill="white"/>
</clipPath>
</defs>
</svg>
