<svg width="553" height="465" viewBox="0 0 553 465" fill="none" xmlns="http://www.w3.org/2000/svg">
<path fill-rule="evenodd" clip-rule="evenodd" d="M1.06848 39.6836C1.07302 37.9985 1.74547 36.3838 2.93824 35.1938C4.13101 34.0038 5.74679 33.3357 7.43135 33.3357H546.162C546.996 33.3335 547.822 33.4961 548.593 33.8143C549.364 34.1325 550.065 34.5999 550.654 35.1898C551.244 35.7797 551.711 36.4805 552.029 37.2517C552.347 38.0229 552.51 38.8494 552.508 39.6836V458.635C552.508 460.32 551.84 461.936 550.65 463.13C549.461 464.323 547.847 464.996 546.162 465H7.43135C5.74382 465 4.12543 464.329 2.93217 463.136C1.73891 461.942 1.06848 460.323 1.06848 458.635V39.6836Z" fill="#F9F8F7"/>
<path d="M1.17151 34.4679V34.9483C1.17151 189.359 1.17151 335.484 1.17151 463.422V463.868H1.5831C328.317 463.593 548.392 463.439 552.113 463.439L2.0462 463.061C2.0462 335.346 2.0462 189.548 2.0462 35.4288H551.616C551.856 293.861 551.994 460.316 551.994 463.525C551.994 460.316 552.165 293.673 552.371 35.0342V34.6568H551.994L1.60027 34.5538L1.17151 34.4679Z" stroke="#434343" stroke-linejoin="round"/>
<path fill-rule="evenodd" clip-rule="evenodd" d="M153.005 219.435C152.713 219.435 152.507 266.016 152.507 323.474C152.507 380.932 152.713 427.495 153.005 427.495C153.296 427.495 153.451 380.915 153.451 323.474C153.451 266.033 153.245 219.435 153.005 219.435Z" fill="#232323"/>
<path fill-rule="evenodd" clip-rule="evenodd" d="M391.808 219.435C391.568 219.435 391.362 266.016 391.362 323.474C391.362 380.932 391.568 427.495 391.808 427.495C392.048 427.495 392.271 380.915 392.271 323.474C392.271 266.033 392.117 219.435 391.808 219.435Z" fill="#232323"/>
<path fill-rule="evenodd" clip-rule="evenodd" d="M234.521 161.462C234.281 161.462 234.075 220.979 234.075 294.445C234.075 367.91 234.281 427.444 234.521 427.444C234.761 427.444 235.018 367.91 235.018 294.445C235.018 220.979 234.812 161.462 234.521 161.462Z" fill="#232323"/>
<path fill-rule="evenodd" clip-rule="evenodd" d="M485.621 161.462C485.381 161.462 485.175 220.979 485.175 294.445C485.175 367.91 485.381 427.444 485.621 427.444C485.861 427.444 486.101 367.91 486.101 294.445C486.101 220.979 485.895 161.462 485.621 161.462Z" fill="#263238"/>
<path fill-rule="evenodd" clip-rule="evenodd" d="M306.056 120.355C305.815 120.355 305.61 188.982 305.61 273.891C305.61 358.8 305.815 427.444 306.056 427.444C306.296 427.444 306.553 358.697 306.553 273.891C306.553 189.085 306.33 120.355 306.056 120.355Z" fill="#232323"/>
<path fill-rule="evenodd" clip-rule="evenodd" d="M298.818 205.71C289.577 205.652 280.483 208.018 272.441 212.572C263.146 218.176 255.12 225.655 248.876 234.533C242.834 242.969 237.357 251.795 232.48 260.954C227.828 269.687 222.674 278.142 217.044 286.278C211.694 294.078 205.462 301.234 198.471 307.604C191.61 313.626 183.893 318.515 175.506 320.609C173.459 321.171 171.372 321.578 169.263 321.827C168.212 321.969 167.151 322.027 166.09 321.998C165.25 321.998 164.375 322.084 163.569 322.084H162.986C158.869 321.884 154.794 321.157 150.861 319.922C143.396 317.316 136.335 313.672 129.886 309.096C123.574 304.842 117.709 300.329 111.946 296.246C106.506 292.218 100.66 288.768 94.5044 285.952C88.9669 283.443 83.0589 281.849 77.0109 281.234C75.3988 281.08 73.7866 281.011 72.243 281.011C68.5459 280.971 64.8618 281.456 61.301 282.452C60.1176 282.709 59.0371 283.258 57.8709 283.602C56.7911 283.964 55.7417 284.412 54.7324 284.94C52.8255 285.837 51.0006 286.899 49.2786 288.114C46.3702 290.141 43.6598 292.439 41.1835 294.977C40.206 296.16 39.2627 297.207 38.4223 298.185C37.582 299.163 36.8273 300.038 36.2613 300.947C35.1123 302.663 34.2376 303.95 33.6544 304.842C33.3169 305.274 33.0346 305.746 32.8141 306.248C33.2134 305.889 33.5649 305.479 33.8602 305.03C34.512 304.155 35.4553 302.903 36.7244 301.29C37.4107 300.353 38.1675 299.47 38.9883 298.648L41.7667 295.56C44.272 293.171 46.987 291.012 49.8788 289.109C51.5859 287.967 53.3809 286.963 55.2469 286.106C57.3203 285.224 59.4451 284.468 61.6097 283.842C64.9013 282.981 68.2922 282.56 71.6942 282.589C73.4092 282.589 75.1243 282.589 76.8393 282.847C82.697 283.569 88.4073 285.195 93.7668 287.668C99.7646 290.517 105.459 293.966 110.763 297.962C116.457 302.097 122.288 306.643 128.668 311.035C135.258 315.77 142.488 319.543 150.141 322.239C154.251 323.568 158.518 324.352 162.832 324.572C163.175 324.572 163.518 324.572 163.861 324.572C164.616 324.572 165.387 324.572 166.159 324.572C167.265 324.6 168.372 324.542 169.469 324.4C171.714 324.177 173.935 323.758 176.106 323.148C180.544 322.03 184.805 320.298 188.763 318.001C190.795 316.84 192.754 315.557 194.629 314.158C196.55 312.819 198.333 311.31 200.151 309.766C207.314 303.287 213.712 296.011 219.223 288.079C224.915 279.85 230.154 271.316 234.915 262.516C239.747 253.466 245.167 244.743 251.14 236.403C257.171 227.856 264.909 220.653 273.864 215.249C278.394 212.673 283.294 210.81 288.391 209.724C291.871 209 295.417 208.632 298.972 208.626C300.55 208.626 302.111 208.626 303.672 208.849C308.69 209.339 313.572 210.771 318.061 213.07C322.482 215.342 326.559 218.23 330.169 221.648C337.122 228.621 343.182 236.429 348.211 244.896C353.357 253.131 357.953 261.521 362.909 269.482C367.866 277.442 372.428 285.129 376.733 292.883C378.859 296.709 381.089 300.518 383.593 304.121C386.023 307.731 389.057 310.894 392.562 313.472C396 315.945 399.903 317.696 404.036 318.619C407.945 319.503 411.932 319.991 415.939 320.077C416.813 320.077 417.654 320.077 418.546 320.077C425.213 320.106 431.821 318.824 437.994 316.302C441.232 314.944 444.324 313.26 447.221 311.275C449.918 309.363 452.469 307.253 454.853 304.962C459.155 300.718 463.102 296.127 466.653 291.236C473.324 282.195 478.658 274.165 484.009 268.401C487.93 263.844 492.769 260.166 498.209 257.609C499.643 256.982 501.13 256.482 502.651 256.116C503.183 256.015 503.698 255.835 504.178 255.584C503.653 255.631 503.132 255.711 502.617 255.825C501.061 256.102 499.534 256.521 498.055 257.077C492.4 259.467 487.344 263.083 483.254 267.663C477.697 273.393 472.226 281.388 465.452 290.293C461.896 295.052 457.961 299.515 453.687 303.641C451.338 305.839 448.826 307.858 446.175 309.68C443.38 311.562 440.404 313.16 437.291 314.449C431.401 316.754 425.127 317.918 418.803 317.881C417.894 317.881 416.968 317.881 416.059 317.795C412.214 317.683 408.392 317.172 404.654 316.268C400.798 315.45 397.158 313.831 393.969 311.516C387.4 306.883 383.215 299.231 378.928 291.597C374.64 283.962 370.198 275.881 365.207 268.023C360.217 260.165 355.758 251.741 350.578 243.437C345.46 234.744 339.265 226.731 332.141 219.59C328.359 215.948 324.073 212.869 319.416 210.445C314.605 207.972 309.366 206.44 303.98 205.933C302.214 205.813 300.516 205.71 298.818 205.71Z" fill="#232323"/>
<path fill-rule="evenodd" clip-rule="evenodd" d="M67.2695 83.0388V88.3745H163.312V83.0388H67.2695Z" fill="#232323"/>
<path fill-rule="evenodd" clip-rule="evenodd" d="M67.2695 95.5289V100.882H114.708V95.5289H67.2695Z" fill="#232323"/>
<path fill-rule="evenodd" clip-rule="evenodd" d="M1.61739 0C1.45208 0.00447104 1.29505 0.0732738 1.17973 0.191841C1.06441 0.310408 0.99994 0.469363 1 0.634792V34.9483H552.302V0.634792C552.302 0.466433 552.235 0.305025 552.116 0.185977C551.997 0.0669285 551.836 0 551.668 0H1.61739Z" fill="#232323"/>
<path fill-rule="evenodd" clip-rule="evenodd" d="M25.7652 14.3945C25.0239 14.3979 24.3 14.6208 23.685 15.035C23.0699 15.4491 22.5912 16.0361 22.3091 16.722C22.0269 17.4078 21.954 18.1619 22.0995 18.8892C22.245 19.6164 22.6023 20.2842 23.1265 20.8086C23.6508 21.3331 24.3185 21.6906 25.0455 21.8361C25.7725 21.9816 26.5262 21.9087 27.2118 21.6265C27.8974 21.3442 28.4841 20.8653 28.8982 20.2501C29.3122 19.6348 29.535 18.9106 29.5384 18.1689C29.5384 17.1679 29.1408 16.208 28.4332 15.5001C27.7256 14.7923 26.7659 14.3945 25.7652 14.3945Z" fill="#333366"/>
<path fill-rule="evenodd" clip-rule="evenodd" d="M42.1783 14.3946C41.4369 14.398 40.713 14.6209 40.098 15.035C39.483 15.4492 39.0043 16.0361 38.7221 16.722C38.44 17.4079 38.367 18.162 38.5125 18.8892C38.6579 19.6165 39.0153 20.2842 39.5396 20.8087C40.0638 21.3331 40.7315 21.6906 41.4585 21.8362C42.1855 21.9817 42.9392 21.9088 43.6248 21.6265C44.3104 21.3443 44.8972 20.8654 45.3112 20.2501C45.7252 19.6349 45.948 18.9106 45.9514 18.169C45.9537 17.6727 45.8576 17.181 45.6688 16.722C45.48 16.263 45.2022 15.8461 44.8513 15.4951C44.5005 15.1442 44.0836 14.8662 43.6248 14.6773C43.166 14.4884 42.6744 14.3923 42.1783 14.3946Z" fill="white"/>
<path fill-rule="evenodd" clip-rule="evenodd" d="M58.5741 14.3944C57.8327 14.3978 57.1088 14.6207 56.4938 15.0349C55.8788 15.4491 55.4001 16.036 55.1179 16.7219C54.8358 17.4077 54.7629 18.1618 54.9084 18.8891C55.0538 19.6163 55.4111 20.2841 55.9354 20.8085C56.4596 21.333 57.1273 21.6905 57.8543 21.836C58.5813 21.9816 59.335 21.9086 60.0206 21.6264C60.7062 21.3441 61.293 20.8652 61.707 20.25C62.121 19.6347 62.3438 18.9105 62.3472 18.1689C62.3518 17.6719 62.2573 17.1792 62.0693 16.7192C61.8813 16.2591 61.6036 15.8412 61.2523 15.4898C60.901 15.1384 60.4832 14.8604 60.0234 14.6724C59.5635 14.4843 59.0708 14.3899 58.5741 14.3944Z" fill="white"/>
<path fill-rule="evenodd" clip-rule="evenodd" d="M234.727 155.063C235.997 155.059 237.239 155.433 238.297 156.137C239.354 156.841 240.179 157.843 240.667 159.016C241.154 160.189 241.283 161.481 241.036 162.727C240.789 163.973 240.178 165.118 239.279 166.017C238.381 166.915 237.237 167.527 235.991 167.774C234.745 168.021 233.454 167.892 232.281 167.404C231.109 166.917 230.107 166.092 229.404 165.034C228.7 163.976 228.326 162.733 228.33 161.462C228.339 159.768 229.016 158.145 230.213 156.947C231.411 155.749 233.033 155.072 234.727 155.063ZM234.727 154.6C233.37 154.6 232.044 155.002 230.915 155.756C229.787 156.51 228.908 157.582 228.389 158.836C227.87 160.09 227.734 161.47 227.998 162.801C228.263 164.132 228.916 165.355 229.876 166.315C230.835 167.275 232.058 167.929 233.388 168.193C234.719 168.458 236.098 168.322 237.352 167.803C238.606 167.283 239.677 166.404 240.431 165.275C241.185 164.146 241.587 162.82 241.587 161.462C241.587 159.642 240.864 157.897 239.578 156.61C238.291 155.323 236.546 154.6 234.727 154.6Z" fill="#232323"/>
<path fill-rule="evenodd" clip-rule="evenodd" d="M234.521 159.541C234.138 159.544 233.764 159.661 233.447 159.877C233.13 160.093 232.885 160.398 232.741 160.753C232.598 161.109 232.563 161.499 232.641 161.875C232.719 162.25 232.907 162.594 233.18 162.862C233.453 163.131 233.8 163.313 234.177 163.384C234.553 163.456 234.943 163.414 235.296 163.264C235.648 163.114 235.949 162.863 236.159 162.542C236.369 162.222 236.479 161.846 236.476 161.462C236.474 161.208 236.421 160.956 236.322 160.722C236.222 160.487 236.078 160.275 235.896 160.097C235.715 159.918 235.5 159.777 235.264 159.682C235.028 159.586 234.775 159.539 234.521 159.541Z" fill="#232323"/>
<path fill-rule="evenodd" clip-rule="evenodd" d="M153.056 215.489C152.672 215.489 152.297 215.603 151.978 215.817C151.659 216.031 151.41 216.335 151.264 216.69C151.118 217.045 151.08 217.436 151.157 217.812C151.233 218.189 151.419 218.534 151.692 218.805C151.965 219.075 152.312 219.258 152.689 219.331C153.066 219.404 153.456 219.363 153.81 219.214C154.164 219.065 154.465 218.813 154.676 218.492C154.887 218.171 154.997 217.795 154.994 217.411C154.985 216.901 154.778 216.415 154.416 216.056C154.054 215.697 153.566 215.493 153.056 215.489Z" fill="#232323"/>
<path fill-rule="evenodd" clip-rule="evenodd" d="M485.878 159.541C485.495 159.544 485.121 159.661 484.805 159.877C484.488 160.093 484.242 160.398 484.099 160.753C483.955 161.109 483.92 161.499 483.998 161.874C484.076 162.25 484.264 162.594 484.537 162.862C484.811 163.131 485.158 163.313 485.534 163.384C485.911 163.456 486.3 163.414 486.653 163.264C487.006 163.114 487.306 162.863 487.516 162.542C487.727 162.222 487.837 161.846 487.833 161.462C487.824 160.95 487.615 160.461 487.249 160.101C486.883 159.742 486.391 159.541 485.878 159.541Z" fill="#232323"/>
</svg>
