<svg width="161" height="58" viewBox="0 0 161 58" fill="none" xmlns="http://www.w3.org/2000/svg">
<path d="M29.8868 57.9463C24.7468 58.0077 19.6793 56.7515 15.1842 54.3018C10.8652 51.9108 7.29104 48.4088 4.84598 44.172C2.34877 39.6467 1.0409 34.5805 1.0409 29.4329C1.0409 24.2854 2.34877 19.2192 4.84598 14.6939C7.28315 10.4374 10.8581 6.91607 15.1842 4.5105C19.6819 2.07009 24.7492 0.823231 29.8868 0.892752C35.8111 0.777817 41.6286 2.45217 46.5532 5.68963C51.3412 8.91642 54.8787 13.6383 56.5913 19.0888L56.8096 19.7855H42.8707V19.4907C41.7824 17.1231 39.9711 15.147 37.6881 13.8363C35.3222 12.5409 32.6492 11.8844 29.9412 11.9336C26.9903 11.88 24.082 12.6314 21.5397 14.1043C19.0904 15.5596 17.1132 17.6694 15.8389 20.1875C14.4711 23.1318 13.7632 26.3305 13.7632 29.5669C13.7632 32.8034 14.4711 36.002 15.8389 38.9463C17.097 41.4893 19.0768 43.6205 21.5397 45.0831C24.082 46.5561 26.9903 47.3075 29.9412 47.2538C32.6531 47.3066 35.3294 46.64 37.6881 45.3243C39.9607 43.989 41.7676 42.0081 42.8707 39.6431V39.3215H56.8096L56.5913 40.0183C54.8994 45.4716 51.369 50.197 46.5805 53.4174C41.6141 56.5594 35.7906 58.1392 29.8868 57.9463ZM5.77348 15.2566C3.32284 19.6084 2.07219 24.5137 2.14554 29.4865C2.06867 34.4342 3.32001 39.3145 5.77348 43.636C8.12559 47.7111 11.569 51.0754 15.7298 53.3638C20.0548 55.731 24.9364 56.9415 29.8868 56.8744C35.6023 57.0009 41.2195 55.4014 45.9804 52.2919C50.3417 49.3636 53.6158 45.1217 55.3092 40.2059H43.5526C42.3602 42.6391 40.4622 44.6716 38.0971 46.0479C35.6088 47.4512 32.7829 48.173 29.9139 48.1381C26.7686 48.1964 23.6695 47.3888 20.967 45.8067C18.3217 44.251 16.1977 41.9686 14.8569 39.2411C13.4192 36.1689 12.6747 32.8276 12.6747 29.4463C12.6747 26.065 13.4192 22.7237 14.8569 19.6516C16.2142 16.9491 18.3356 14.6881 20.967 13.1396C23.6695 11.5575 26.7686 10.7499 29.9139 10.8081C32.775 10.781 35.5943 11.4827 38.0971 12.8448C40.4551 14.2176 42.3518 16.2394 43.5526 18.66H55.3092C53.5912 13.7566 50.3103 9.52781 45.953 6.60076C41.4718 3.78886 36.3073 2.20437 30.9936 2.0112C25.6799 1.81803 20.4103 3.02318 15.7298 5.50202C11.5671 7.79991 8.12387 11.1734 5.77348 15.2566Z" fill="white"/>
<path d="M4.27329 16.3552C6.34604 12.5904 9.43138 9.45714 13.1929 7.2974C17.0357 5.11194 21.4099 3.99127 25.8496 4.05479C30.9955 3.91737 36.0665 5.28879 40.4159 7.99414C44.4965 10.6945 47.5853 14.6122 49.2264 19.169H43.2799C41.9359 15.9275 39.6131 13.1685 36.6243 11.2635C33.477 9.43708 29.899 8.44915 26.2441 8.39745C22.5891 8.34575 18.9837 9.23207 15.7843 10.9688C12.7719 12.7203 10.3378 15.2884 8.77396 18.3651C7.10355 21.8524 6.23752 25.659 6.23752 29.5132C6.23752 33.3673 7.10355 37.174 8.77396 40.6613C10.3477 43.7173 12.7807 46.2656 15.7843 48.004C18.9849 49.7309 22.5853 50.6161 26.2366 50.5738C29.8878 50.5316 33.466 49.5633 36.6243 47.7628C39.6096 45.8895 41.9339 43.1568 43.2799 39.9377H49.2264C47.5713 44.4739 44.4599 48.3584 40.3612 51.0054C36.0308 53.708 30.9781 55.0796 25.8496 54.9448C21.4073 55.0002 17.033 53.8702 13.1929 51.6754C9.43243 49.5262 6.34663 46.4018 4.27329 42.6443C2.04396 38.6193 0.916059 34.0948 0.999968 29.5132C0.926178 24.9242 2.05331 20.3934 4.27329 16.3552Z" fill="white"/>
<path d="M73.0941 28.2268C71.5331 28.2762 69.9903 27.8857 68.6479 27.1013C67.4523 26.3455 66.5049 25.2658 65.9201 23.9927C65.2731 22.5203 64.9394 20.9335 64.9394 19.3298C64.9394 17.7261 65.2731 16.1393 65.9201 14.6669C66.5127 13.3986 67.4583 12.3209 68.6479 11.5583C69.9903 10.774 71.5331 10.3834 73.0941 10.4328C74.8838 10.3572 76.6458 10.8869 78.0859 11.9335C79.4184 12.9441 80.3766 14.3562 80.8137 15.9532L78.2769 16.6232C77.9881 15.518 77.3477 14.5323 76.4492 13.8093C75.4855 13.0967 74.299 12.7365 73.0941 12.791C72.0039 12.7474 70.9267 13.0377 70.0117 13.6218C69.1702 14.1761 68.5226 14.9713 68.1569 15.8996C67.7224 16.9919 67.5093 18.1572 67.5296 19.3298C67.4959 20.5034 67.7095 21.6712 68.1569 22.76C68.5298 23.6914 69.1753 24.4933 70.0117 25.0646C70.9348 25.6282 72.0081 25.9082 73.0941 25.8686C74.299 25.923 75.4855 25.5629 76.4492 24.8502C77.3393 24.12 77.9778 23.1372 78.2769 22.0364L80.8137 22.7064C80.3766 24.3034 79.4184 25.7155 78.0859 26.7261C76.6458 27.7727 74.8838 28.3024 73.0941 28.2268Z" fill="white"/>
<path d="M83.296 27.8785V15.0689H85.5327V18.1775L85.2327 17.7755C85.3811 17.3624 85.5926 16.9738 85.86 16.6232C86.0947 16.2944 86.3909 16.0124 86.7329 15.7925C87.0759 15.5526 87.4528 15.363 87.8514 15.2297C88.2571 15.0956 88.6788 15.0146 89.106 14.9885C89.5133 14.9335 89.9263 14.9335 90.3336 14.9885V17.2932C89.8645 17.211 89.3842 17.211 88.9151 17.2932C88.4095 17.3388 87.9229 17.5044 87.4968 17.7755C87.1063 18.0173 86.7716 18.3368 86.5147 18.7135C86.2704 19.1014 86.0952 19.5273 85.9964 19.973C85.8851 20.4476 85.8302 20.9331 85.8327 21.4201V27.8785H83.296Z" fill="white"/>
<path d="M97.9713 28.227C96.7795 28.2551 95.6019 27.9682 94.5616 27.3962C93.5927 26.8513 92.806 26.0412 92.2975 25.0648C91.7367 23.9875 91.4557 22.7907 91.4792 21.581C91.4381 20.3211 91.7097 19.0703 92.2704 17.9364C92.7668 16.9466 93.5433 16.1184 94.507 15.5513C95.5239 14.9682 96.6849 14.6715 97.8622 14.6938C99.0563 14.6647 100.233 14.9816 101.245 15.605C102.221 16.2521 102.958 17.1922 103.345 18.2848C103.836 19.5478 104.022 20.9052 103.89 22.2509H101.408V21.3398C101.478 20.1781 101.173 19.0245 100.535 18.0436C100.225 17.678 99.8307 17.3901 99.3849 17.2037C98.9391 17.0173 98.4545 16.9378 97.9713 16.9717C97.4554 16.9525 96.9419 17.0487 96.4694 17.253C95.9969 17.4572 95.5777 17.7642 95.2435 18.1508C94.5432 19.1468 94.2068 20.3464 94.2889 21.5542C94.2228 22.7186 94.5592 23.8707 95.2435 24.8236C95.575 25.2116 95.9943 25.518 96.468 25.7181C96.9417 25.9182 97.4566 26.0065 97.9713 25.9759C98.691 25.9903 99.4002 25.8045 100.017 25.4399C100.604 25.0808 101.069 24.5585 101.354 23.9392L103.836 24.7164C103.374 25.8215 102.573 26.758 101.545 27.3962C100.464 28.0155 99.2199 28.3047 97.9713 28.227ZM93.3341 22.1705V20.2411H102.636V22.1705H93.3341Z" fill="white"/>
<path d="M109.864 28.2267C109.024 28.2605 108.189 28.0854 107.437 27.7175C106.819 27.3812 106.301 26.8915 105.936 26.2972C105.605 25.7166 105.435 25.0602 105.445 24.3945C105.428 23.8037 105.549 23.2169 105.8 22.6794C106.032 22.1808 106.389 21.7477 106.836 21.4199C107.347 21.0484 107.919 20.7673 108.528 20.5892C109.172 20.4037 109.828 20.2605 110.492 20.1604L112.81 19.7852L115.211 19.4637L114.31 19.9728C114.377 19.1693 114.145 18.3693 113.656 17.7218C113.345 17.4523 112.981 17.2489 112.587 17.1244C112.193 16.9999 111.777 16.9569 111.364 16.9982C110.709 16.9966 110.062 17.153 109.482 17.4538C109.187 17.6214 108.929 17.8453 108.723 18.1122C108.517 18.379 108.367 18.6836 108.282 19.0081L105.909 18.3113C106.196 17.2356 106.851 16.2895 107.764 15.6315C108.828 14.9163 110.104 14.5677 111.392 14.6399C112.432 14.625 113.464 14.8259 114.42 15.2295C115.267 15.6055 115.946 16.2725 116.329 17.1054C116.55 17.5112 116.681 17.959 116.711 18.4185C116.739 18.9184 116.739 19.4194 116.711 19.9192V27.8247H114.474V24.9037L114.91 25.2789C114.442 26.1802 113.723 26.9328 112.837 27.4495C111.934 27.9627 110.908 28.2309 109.864 28.2267ZM110.301 26.19C110.937 26.2091 111.571 26.0902 112.155 25.8417C112.629 25.6085 113.047 25.2798 113.383 24.8769C113.687 24.5299 113.902 24.1164 114.01 23.671C114.154 23.256 114.237 22.8228 114.256 22.3847C114.256 21.9023 114.256 21.5271 114.256 21.2323L115.074 21.5271L112.892 21.8487L111.119 22.1435C110.647 22.213 110.182 22.3206 109.728 22.465C109.402 22.57 109.09 22.714 108.8 22.8938C108.539 23.0493 108.315 23.2598 108.146 23.5102C107.994 23.7709 107.919 24.0676 107.927 24.3677C107.925 24.6875 108.01 25.0021 108.173 25.2789C108.351 25.5744 108.618 25.8084 108.937 25.9488C109.368 26.1273 109.833 26.2096 110.301 26.19Z" fill="white"/>
<path d="M118.293 17.0518V15.0687H127.213V17.0518H118.293ZM127.213 27.7711C126.413 27.9256 125.599 27.9886 124.785 27.9586C124.062 27.9644 123.345 27.8182 122.684 27.5299C122.078 27.256 121.58 26.7949 121.266 26.2168C120.991 25.7134 120.842 25.1532 120.83 24.5821C120.83 24.0461 120.83 23.4297 120.83 22.733V11.3973H123.23V23.9389C123.244 24.2736 123.327 24.602 123.476 24.9036C123.616 25.1476 123.817 25.3521 124.061 25.4976C124.304 25.6431 124.582 25.7246 124.867 25.7344C125.609 25.8257 126.361 25.8257 127.103 25.7344L127.213 27.7711Z" fill="white"/>
<path d="M129.995 12.952V10.5401H132.532V12.952H129.995ZM129.995 27.8786V15.069H132.532V27.8786H129.995Z" fill="white"/>
<path d="M139.597 27.8785L134.741 15.0689H137.278L140.769 24.7699L144.234 15.0689H146.771L142.052 27.8785H139.597Z" fill="white"/>
<path d="M154.054 28.2268C152.862 28.2548 151.684 27.9679 150.644 27.396C149.673 26.8444 148.88 26.0367 148.353 25.0645C147.792 23.9872 147.511 22.7905 147.534 21.5807C147.502 20.3186 147.783 19.0677 148.353 17.9362C148.849 16.9463 149.626 16.1182 150.589 15.5511C151.606 14.9679 152.767 14.6713 153.945 14.6936C155.138 14.6676 156.314 14.9843 157.327 15.6047C158.293 16.2627 159.027 17.1991 159.427 18.2846C159.918 19.5476 160.105 20.905 159.973 22.2507H157.463V21.3396C157.521 20.1792 157.216 19.0292 156.59 18.0434C156.277 17.6811 155.883 17.3955 155.437 17.2095C154.992 17.0234 154.509 16.9419 154.026 16.9715C153.51 16.9523 152.997 17.0485 152.524 17.2528C152.052 17.457 151.633 17.764 151.299 18.1506C150.598 19.1466 150.262 20.3461 150.344 21.554C150.264 22.7198 150.602 23.8762 151.299 24.8234C151.63 25.2114 152.049 25.5178 152.523 25.7179C152.997 25.918 153.512 26.0063 154.026 25.9757C154.746 25.9901 155.455 25.8042 156.072 25.4397C156.653 25.0735 157.116 24.5532 157.409 23.939L159.891 24.7162C159.418 25.8232 158.608 26.7593 157.572 27.396C156.511 28.0125 155.285 28.3019 154.054 28.2268ZM149.416 22.1703V20.2408H158.691V22.1703H149.416Z" fill="white"/>
<path d="M73.0941 48.8082C71.5331 48.8576 69.9903 48.467 68.6479 47.6827C67.4514 46.9162 66.5045 45.8278 65.9201 44.5473C65.2388 43.0952 64.9031 41.5098 64.9382 39.9112C64.9055 38.3042 65.2411 36.7106 65.9201 35.2483C66.5045 33.9677 67.4514 32.8793 68.6479 32.1129C69.9992 31.3526 71.5375 30.9725 73.0941 31.0141C74.8789 30.9436 76.6364 31.4625 78.0859 32.488C79.413 33.5149 80.3692 34.9334 80.8137 36.5346L78.2769 37.2045C77.9622 36.1481 77.324 35.2124 76.4492 34.5247C75.491 33.8016 74.3005 33.4403 73.0941 33.5064C72.0081 33.4668 70.9348 33.7467 70.0117 34.3103C69.1753 34.8816 68.5298 35.6836 68.1569 36.615C67.7203 37.7067 67.5072 38.8724 67.5296 40.0452C67.4983 41.2187 67.7117 42.386 68.1569 43.4754C68.5302 44.3994 69.1761 45.1926 70.0117 45.7532C70.9267 46.3372 72.0039 46.6275 73.0941 46.5839C74.3039 46.6424 75.4947 46.2715 76.4492 45.5388C77.324 44.8511 77.9622 43.9154 78.2769 42.859L80.8137 43.5289C80.3766 45.126 79.4184 46.5381 78.0859 47.5487C76.6092 48.4985 74.854 48.9414 73.0941 48.8082Z" fill="white"/>
<path d="M86.9784 48.8078C86.1361 48.8333 85.3009 48.649 84.5507 48.2719C83.9301 47.9608 83.4175 47.4758 83.0777 46.8783C82.7296 46.2934 82.5504 45.6263 82.5595 44.9488C82.5554 44.3678 82.6761 43.7925 82.9139 43.2606C83.1484 42.7632 83.5045 42.3305 83.9505 42.0011C84.464 41.6349 85.0353 41.3542 85.6416 41.1703C86.2851 40.9752 86.9414 40.823 87.6057 40.7147L89.9242 40.3664L92.3519 40.0448L91.4246 40.5271C91.5005 39.7311 91.2664 38.9363 90.7698 38.3029C90.4626 38.0273 90.1 37.8181 89.7053 37.6888C89.3106 37.5596 88.8927 37.5131 88.4786 37.5525C87.8189 37.5473 87.1695 37.7137 86.5965 38.0349C86.3013 38.2026 86.043 38.4264 85.8369 38.6933C85.6309 38.9601 85.481 39.2647 85.3962 39.5892L83.0504 38.8657C83.3244 37.791 83.9705 36.8435 84.878 36.1858C85.9517 35.4926 87.2229 35.1546 88.5059 35.2211C89.5561 35.1929 90.5996 35.3942 91.561 35.8107C92.3938 36.1853 93.0618 36.8415 93.4431 37.6597C93.6645 38.0752 93.7944 38.5316 93.8249 38.9996C93.8542 39.4994 93.8542 40.0005 93.8249 40.5004V48.5398H91.5883V45.592L92.0246 45.9672C91.5593 46.8692 90.8519 47.6291 89.9788 48.1647C89.0524 48.6311 88.0184 48.8527 86.9784 48.8078ZM87.4147 46.7711C88.0551 46.7988 88.6924 46.6699 89.2696 46.396C89.751 46.1746 90.1788 45.8548 90.5244 45.458C90.8158 45.0964 91.0208 44.6752 91.1244 44.2253C91.2659 43.8189 91.3487 43.3949 91.37 42.9658C91.37 42.4834 91.37 42.1082 91.37 41.8134L92.1883 42.1082L90.0061 42.4298L88.2603 42.6978C87.7807 42.7853 87.307 42.9017 86.8419 43.0462C86.5116 43.14 86.1986 43.2847 85.9145 43.475C85.656 43.6135 85.4395 43.8169 85.2872 44.0645C85.1167 44.3284 85.0311 44.6365 85.0416 44.9488C85.042 45.2683 85.1266 45.5822 85.2872 45.86C85.4777 46.1552 85.7529 46.3884 86.0782 46.53C86.4985 46.7116 86.9562 46.7942 87.4147 46.7711Z" fill="white"/>
<path d="M96.8528 54.141V35.6233H99.0896V44.8419H99.3896V54.141H96.8528ZM102.99 48.7813C101.871 48.8241 100.769 48.504 99.8532 47.8702C98.9884 47.2624 98.3168 46.4261 97.9165 45.4583C97.0444 43.2333 97.0444 40.7694 97.9165 38.5443C98.3013 37.5754 98.9647 36.7374 99.8259 36.1325C100.741 35.5225 101.83 35.2129 102.936 35.2481C104.058 35.216 105.163 35.5249 106.1 36.1325C107.005 36.7322 107.723 37.5672 108.173 38.5443C108.641 39.6388 108.882 40.8141 108.882 42.0013C108.882 43.1885 108.641 44.3638 108.173 45.4583C107.724 46.4354 107.017 47.2772 106.127 47.8969C105.201 48.5087 104.106 48.8267 102.99 48.8081V48.7813ZM102.636 46.5303C103.348 46.5619 104.051 46.3539 104.627 45.9407C105.165 45.5081 105.579 44.9445 105.827 44.306C106.086 43.5646 106.216 42.7853 106.209 42.0013C106.216 41.2261 106.086 40.4556 105.827 39.7235C105.579 39.0849 105.165 38.5213 104.627 38.0888C104.02 37.6751 103.292 37.468 102.554 37.4992C101.854 37.472 101.165 37.6695 100.59 38.062C100.063 38.4656 99.6726 39.0169 99.4713 39.6431C99.21 40.4025 99.081 41.1997 99.0896 42.0013C99.0878 42.8004 99.2073 43.5951 99.4442 44.3596C99.6559 44.9876 100.055 45.5386 100.59 45.9407C101.181 46.3674 101.902 46.5847 102.636 46.557V46.5303Z" fill="white"/>
<path d="M111.583 33.5329V31.1479H114.119V33.5597L111.583 33.5329ZM111.583 48.4596V35.6232H114.119V48.4596H111.583Z" fill="white"/>
<path d="M116.111 37.6331V35.6233H125.03V37.6331H116.111ZM125.03 48.3525C124.231 48.5058 123.417 48.5688 122.603 48.5401C121.869 48.5348 121.144 48.3796 120.475 48.0845C119.879 47.8195 119.389 47.3668 119.084 46.7982C118.813 46.2916 118.655 45.7344 118.62 45.1635C118.62 44.6275 118.62 43.9843 118.62 43.2876V31.9519H121.157V43.1804C121.157 43.6896 121.157 44.1452 121.157 44.5203C121.148 44.8579 121.233 45.1915 121.403 45.4851C121.546 45.7257 121.749 45.9276 121.992 46.0726C122.234 46.2175 122.51 46.3011 122.794 46.3158C123.536 46.4192 124.288 46.4192 125.03 46.3158V48.3525Z" fill="white"/>
<path d="M131.25 48.8082C130.408 48.8302 129.573 48.646 128.822 48.2722C128.201 47.9612 127.689 47.4762 127.349 46.8787C127.013 46.289 126.834 45.6251 126.831 44.9492C126.827 44.3682 126.947 43.7929 127.185 43.2609C127.429 42.769 127.783 42.3382 128.222 42.0014C128.735 41.6352 129.307 41.3545 129.913 41.1707C130.567 40.9786 131.232 40.8265 131.904 40.7151L134.196 40.3667L136.623 40.0451L135.696 40.5275C135.786 39.7301 135.551 38.9302 135.041 38.3032C134.734 38.0276 134.371 37.8184 133.977 37.6892C133.582 37.5599 133.164 37.5135 132.75 37.5529C132.09 37.5476 131.441 37.7141 130.868 38.0353C130.572 38.2029 130.314 38.4267 130.108 38.6936C129.902 38.9605 129.752 39.2651 129.667 39.5895L127.322 38.866C127.596 37.7913 128.242 36.8438 129.149 36.1862C130.225 35.4964 131.495 35.1587 132.777 35.2214C133.827 35.1932 134.871 35.3946 135.832 35.811C136.665 36.1857 137.333 36.8419 137.714 37.66C137.932 38.0787 138.071 38.5327 138.124 39C138.124 39.4555 138.124 39.9647 138.124 40.5007V48.5402H135.887V45.5924L136.323 45.9675C135.858 46.8695 135.15 47.6294 134.277 48.165C133.343 48.636 132.299 48.8578 131.25 48.8082ZM131.686 46.7715C132.326 46.7991 132.964 46.6702 133.541 46.3963C134.022 46.1749 134.45 45.8551 134.796 45.4584C135.087 45.0967 135.292 44.6755 135.396 44.2257C135.537 43.8192 135.62 43.3952 135.641 42.9661C135.641 42.4838 135.641 42.1086 135.641 41.8138L136.46 42.1086L134.305 42.4302L132.532 42.6981C132.052 42.7856 131.578 42.902 131.113 43.0465C130.783 43.1403 130.47 43.285 130.186 43.4753C129.927 43.6138 129.711 43.8173 129.558 44.0649C129.388 44.3287 129.302 44.6369 129.313 44.9492C129.313 45.2686 129.398 45.5826 129.558 45.8604C129.756 46.1497 130.029 46.3812 130.349 46.5303C130.771 46.7092 131.228 46.7916 131.686 46.7715Z" fill="white"/>
<path d="M141.37 48.4596V31.1479H143.906V48.5936L141.37 48.4596Z" fill="white"/>
</svg>
