<svg width="159" height="57" viewBox="0 0 159 57" fill="none" xmlns="http://www.w3.org/2000/svg">
<g clip-path="url(#clip0_338:1467)">
<path d="M28.8869 56.9463C23.7469 57.0077 18.6794 55.7515 14.1843 53.3018C9.86537 50.9108 6.29116 47.4088 3.8461 43.172C1.34889 38.6467 0.0410156 33.5805 0.0410156 28.4329C0.0410156 23.2854 1.34889 18.2192 3.8461 13.6939V13.6939C6.28327 9.43736 9.85818 5.91607 14.1843 3.5105C18.682 1.07009 23.7494 -0.176769 28.8869 -0.107248C34.8112 -0.222183 40.6287 1.45217 45.5534 4.68963C50.3414 7.91642 53.8788 12.6383 55.5914 18.0888L55.8097 18.7855H41.8708V18.4907C40.7825 16.1231 38.9713 14.147 36.6882 12.8363C34.3224 11.5409 31.6494 10.8844 28.9413 10.9336C25.9904 10.88 23.0821 11.6314 20.5399 13.1043C18.0905 14.5596 16.1133 16.6694 14.839 19.1875C13.4712 22.1318 12.7634 25.3305 12.7634 28.5669C12.7634 31.8034 13.4712 35.002 14.839 37.9463C16.0971 40.4893 18.0769 42.6205 20.5399 44.0831C23.0821 45.5561 25.9904 46.3075 28.9413 46.2538C31.6532 46.3066 34.3295 45.64 36.6882 44.3243C38.9608 42.989 40.7678 41.0081 41.8708 38.6431V38.3215H55.8097L55.5914 39.0183C53.8995 44.4716 50.3691 49.197 45.5807 52.4174C40.6142 55.5594 34.7908 57.1392 28.8869 56.9463V56.9463ZM4.77361 14.2566C2.32296 18.6084 1.07231 23.5137 1.14566 28.4865C1.06879 33.4342 2.32013 38.3145 4.77361 42.636C7.12571 46.7111 10.5691 50.0754 14.7299 52.3638C19.0549 54.731 23.9365 55.9415 28.8869 55.8744C34.6024 56.0009 40.2197 54.4014 44.9805 51.2919C49.3418 48.3636 52.6159 44.1217 54.3093 39.2059H42.5527C41.3604 41.6391 39.4623 43.6716 37.0973 45.0479C34.6089 46.4512 31.783 47.173 28.914 47.1381C25.7687 47.1964 22.6696 46.3888 19.9671 44.8067C17.3218 43.251 15.1978 40.9686 13.857 38.2411C12.4194 35.1689 11.6749 31.8276 11.6749 28.4463C11.6749 25.065 12.4194 21.7237 13.857 18.6516C15.2143 15.9491 17.3357 13.6881 19.9671 12.1396C22.6696 10.5575 25.7687 9.74987 28.914 9.80812C31.7751 9.78098 34.5945 10.4827 37.0973 11.8448C39.4552 13.2176 41.3519 15.2394 42.5527 17.66H54.3093C52.5913 12.7566 49.3104 8.5278 44.9532 5.60076C40.4719 2.78886 35.3074 1.20437 29.9937 1.0112C24.6801 0.818031 19.4104 2.02318 14.7299 4.50202C10.5672 6.79991 7.12399 10.1734 4.77361 14.2566V14.2566Z" fill="#232323"/>
<path d="M3.27341 15.3552C5.34616 11.5904 8.4315 8.45717 12.193 6.29743C16.0358 4.11196 20.41 2.9913 24.8498 3.05481C29.9956 2.9174 35.0666 4.28881 39.416 6.99417C43.4966 9.69454 46.5854 13.6123 48.2265 18.1691H42.2801C40.936 14.9276 38.6132 12.1685 35.6244 10.2636C32.4771 8.43711 28.8991 7.44917 25.2442 7.39747C21.5892 7.34578 17.9839 8.2321 14.7844 9.96878C11.7721 11.7204 9.33797 14.2885 7.77408 17.3651C6.10367 20.8524 5.23764 24.659 5.23764 28.5132C5.23764 32.3674 6.10367 36.174 7.77408 39.6613C9.34778 42.7173 11.7808 45.2657 14.7844 47.004C17.985 48.7309 21.5855 49.6161 25.2367 49.5739C28.8879 49.5316 32.4661 48.5633 35.6244 46.7628C38.6097 44.8895 40.934 42.1568 42.2801 38.9377H48.2265C46.5715 43.4739 43.46 47.3584 39.3614 50.0055C35.031 52.708 29.9782 54.0797 24.8498 53.9448C20.4075 54.0002 16.0331 52.8702 12.193 50.6754C8.43255 48.5263 5.34675 45.4018 3.27341 41.6444C1.04408 37.6193 -0.083819 33.0948 8.96727e-05 28.5132C-0.0736998 23.9242 1.05343 19.3935 3.27341 15.3552V15.3552Z" fill="#232323"/>
<path d="M72.0942 27.227C70.5332 27.2763 68.9903 26.8858 67.648 26.1014C66.4524 25.3456 65.505 24.266 64.9202 22.9928C64.2732 21.5204 63.9395 19.9336 63.9395 18.3299C63.9395 16.7262 64.2732 15.1394 64.9202 13.667C65.5128 12.3988 66.4584 11.3211 67.648 10.5584C68.9903 9.77407 70.5332 9.38352 72.0942 9.43288C73.8839 9.35731 75.6459 9.887 77.086 10.9336C78.4185 11.9442 79.3767 13.3563 79.8138 14.9533L77.277 15.6233C76.9882 14.5181 76.3478 13.5324 75.4493 12.8095C74.4856 12.0968 73.2991 11.7366 72.0942 11.7911C71.004 11.7475 69.9268 12.0378 69.0118 12.6219C68.1703 13.1762 67.5227 13.9714 67.157 14.8997C66.7225 15.9921 66.5094 17.1573 66.5297 18.3299C66.496 19.5035 66.7096 20.6714 67.157 21.7601C67.5299 22.6915 68.1754 23.4934 69.0118 24.0647C69.9349 24.6284 71.0082 24.9083 72.0942 24.8687C73.2991 24.9232 74.4856 24.563 75.4493 23.8503C76.3394 23.1201 76.9779 22.1373 77.277 21.0366L79.8138 21.7065C79.3767 23.3036 78.4185 24.7157 77.086 25.7263C75.6459 26.7728 73.8839 27.3025 72.0942 27.227V27.227Z" fill="#232323"/>
<path d="M82.296 26.8786V14.069H84.5328V17.1776L84.2328 16.7756C84.3811 16.3624 84.5926 15.9739 84.8601 15.6233C85.0947 15.2944 85.391 15.0125 85.733 14.7925C86.076 14.5526 86.4528 14.363 86.8515 14.2297C87.2571 14.0957 87.6789 14.0146 88.1061 13.9886C88.5134 13.9335 88.9264 13.9335 89.3336 13.9886V16.2932C88.8645 16.211 88.3843 16.211 87.9152 16.2932C87.4096 16.3389 86.9229 16.5044 86.4968 16.7756C86.1064 17.0173 85.7717 17.3369 85.5147 17.7135C85.2705 18.1014 85.0952 18.5274 84.9965 18.9731C84.8851 19.4476 84.8302 19.9332 84.8328 20.4201V26.8786H82.296Z" fill="#232323"/>
<path d="M96.9713 27.2274C95.7795 27.2555 94.602 26.9685 93.5616 26.3966C92.5928 25.8517 91.8061 25.0416 91.2976 24.0652C90.7368 22.9879 90.4557 21.7911 90.4793 20.5814C90.4382 19.3215 90.7098 18.0707 91.2704 16.9368C91.7669 15.947 92.5434 15.1188 93.507 14.5517C94.524 13.9686 95.6849 13.6719 96.8623 13.6942C98.0563 13.6651 99.2327 13.982 100.245 14.6054C101.221 15.2525 101.958 16.1926 102.345 17.2852C102.836 18.5482 103.022 19.9056 102.89 21.2513H100.408V20.3402C100.478 19.1785 100.173 18.0249 99.5354 17.044C99.2251 16.6784 98.8308 16.3905 98.385 16.2041C97.9391 16.0177 97.4546 15.9382 96.9713 15.9721C96.4554 15.9529 95.9419 16.0491 95.4694 16.2534C94.9969 16.4576 94.5777 16.7646 94.2436 17.1512C93.5433 18.1472 93.2068 19.3468 93.2889 20.5546C93.2229 21.719 93.5593 22.8711 94.2436 23.824C94.575 24.212 94.9944 24.5184 95.4681 24.7185C95.9418 24.9186 96.4566 25.0069 96.9713 24.9763C97.691 24.9907 98.4002 24.8049 99.0171 24.4403C99.6041 24.0812 100.069 23.5589 100.354 22.9396L102.836 23.7168C102.374 24.8219 101.573 25.7584 100.545 26.3966C99.4639 27.0159 98.22 27.3051 96.9713 27.2274V27.2274ZM92.3341 21.1709V19.2415H101.636V21.1709H92.3341Z" fill="#232323"/>
<path d="M108.864 27.227C108.024 27.2608 107.189 27.0856 106.437 26.7178C105.819 26.3815 105.301 25.8917 104.936 25.2975C104.605 24.7168 104.435 24.0604 104.445 23.3948C104.428 22.804 104.549 22.2172 104.8 21.6797C105.032 21.1811 105.389 20.748 105.836 20.4202C106.347 20.0487 106.919 19.7675 107.528 19.5894C108.172 19.404 108.828 19.2607 109.492 19.1606L111.81 18.7855L114.211 18.4639L113.31 18.9731C113.377 18.1696 113.145 17.3695 112.656 16.722C112.345 16.4526 111.982 16.2492 111.587 16.1247C111.193 16.0001 110.777 15.9572 110.364 15.9985C109.709 15.9968 109.062 16.1532 108.482 16.454C108.187 16.6217 107.929 16.8455 107.723 17.1124C107.517 17.3793 107.367 17.6839 107.282 18.0083L104.909 17.3116C105.196 16.2358 105.851 15.2897 106.764 14.6318C107.828 13.9166 109.104 13.5679 110.392 13.6402C111.432 13.6252 112.464 13.8261 113.42 14.2298C114.267 14.6057 114.946 15.2728 115.329 16.1056C115.55 16.5114 115.681 16.9593 115.711 17.4188C115.739 17.9186 115.739 18.4196 115.711 18.9195V26.825H113.474V23.904L113.911 24.2791C113.442 25.1805 112.723 25.933 111.837 26.4498C110.934 26.963 109.908 27.2312 108.864 27.227V27.227ZM109.301 25.1903C109.937 25.2094 110.571 25.0905 111.155 24.8419C111.629 24.6088 112.048 24.28 112.383 23.8772C112.687 23.5302 112.902 23.1167 113.01 22.6713C113.154 22.2562 113.237 21.823 113.256 21.3849C113.256 20.9025 113.256 20.5274 113.256 20.2326L114.074 20.5274L111.892 20.849L110.119 21.1437C109.647 21.2133 109.182 21.3208 108.728 21.4653C108.402 21.5702 108.09 21.7143 107.8 21.8941C107.539 22.0496 107.315 22.26 107.146 22.5104C106.994 22.7712 106.919 23.0679 106.928 23.368C106.925 23.6878 107.01 24.0023 107.173 24.2791C107.351 24.5746 107.618 24.8087 107.937 24.9491C108.368 25.1275 108.833 25.2099 109.301 25.1903V25.1903Z" fill="#232323"/>
<path d="M117.293 16.0519V14.0688H126.213V16.0519H117.293ZM126.213 26.7712C125.413 26.9258 124.599 26.9887 123.785 26.9588C123.062 26.9646 122.345 26.8184 121.684 26.53C121.078 26.2562 120.58 25.795 120.266 25.2169C119.991 24.7135 119.842 24.1533 119.83 23.5822C119.83 23.0463 119.83 22.4299 119.83 21.7331V10.3975H122.23V22.939C122.244 23.2738 122.327 23.6022 122.476 23.9038C122.616 24.1477 122.817 24.3523 123.061 24.4977C123.304 24.6432 123.582 24.7247 123.867 24.7345C124.609 24.8259 125.361 24.8259 126.103 24.7345L126.213 26.7712Z" fill="#232323"/>
<path d="M128.995 11.9524V9.54053H131.532V11.9524H128.995ZM128.995 26.879V14.0694H131.532V26.879H128.995Z" fill="#232323"/>
<path d="M138.597 26.8789L133.741 14.0693H136.278L139.77 23.7703L143.234 14.0693H145.771L141.052 26.8789H138.597Z" fill="#232323"/>
<path d="M153.054 27.227C151.862 27.2551 150.684 26.9682 149.644 26.3963C148.673 25.8447 147.88 25.037 147.353 24.0648C146.792 22.9875 146.511 21.7908 146.534 20.581C146.502 19.3189 146.783 18.068 147.353 16.9365C147.849 15.9466 148.626 15.1184 149.59 14.5514C150.606 13.9682 151.767 13.6715 152.945 13.6939C154.138 13.6679 155.314 13.9845 156.327 14.605C157.293 15.263 158.027 16.1994 158.427 17.2848C158.918 18.5478 159.105 19.9053 158.973 21.251H156.463V20.3398C156.521 19.1794 156.216 18.0295 155.59 17.0437C155.277 16.6814 154.883 16.3958 154.437 16.2097C153.992 16.0236 153.509 15.9422 153.026 15.9717C152.51 15.9526 151.997 16.0488 151.524 16.253C151.052 16.4573 150.633 16.7642 150.299 17.1508C149.598 18.1468 149.262 19.3464 149.344 20.5542C149.264 21.72 149.602 22.8765 150.299 23.8236C150.63 24.2117 151.049 24.518 151.523 24.7182C151.997 24.9183 152.512 25.0066 153.026 24.976C153.746 24.9903 154.455 24.8045 155.072 24.44C155.653 24.0737 156.116 23.5534 156.409 22.9393L158.891 23.7164C158.418 24.8234 157.608 25.7595 156.573 26.3963C155.511 27.0128 154.285 27.3022 153.054 27.227V27.227ZM148.416 21.1706V19.2411H157.691V21.1706H148.416Z" fill="#232323"/>
<path d="M72.0942 47.8082C70.5332 47.8576 68.9904 47.4671 67.648 46.6827C66.4515 45.9162 65.5046 44.8278 64.9202 43.5473C64.2389 42.0952 63.9032 40.5098 63.9383 38.9112C63.9056 37.3042 64.2412 35.7106 64.9202 34.2483C65.5046 32.9678 66.4515 31.8794 67.648 31.1129C68.9993 30.3527 70.5376 29.9726 72.0942 30.0142C73.879 29.9436 75.6365 30.4625 77.086 31.4881C78.4131 32.515 79.3693 33.9335 79.8138 35.5346L77.277 36.2046C76.9623 35.1481 76.3241 34.2124 75.4493 33.5247C74.4911 32.8016 73.3006 32.4403 72.0942 32.5064C71.0082 32.4668 69.9349 32.7467 69.0118 33.3103C68.1754 33.8816 67.5299 34.6836 67.157 35.615C66.7204 36.7068 66.5073 37.8724 66.5297 39.0452C66.4984 40.2187 66.7118 41.386 67.157 42.4754C67.5302 43.3994 68.1762 44.1927 69.0118 44.7532C69.9268 45.3373 71.004 45.6276 72.0942 45.584C73.304 45.6425 74.4948 45.2715 75.4493 44.5388C76.3241 43.8511 76.9623 42.9155 77.277 41.859L79.8138 42.529C79.3767 44.126 78.4185 45.5381 77.086 46.5487C75.6093 47.4986 73.854 47.9414 72.0942 47.8082Z" fill="#232323"/>
<path d="M85.9785 47.8078C85.1362 47.8334 84.3009 47.649 83.5507 47.2719C82.9301 46.9609 82.4176 46.4759 82.0778 45.8783C81.7296 45.2935 81.5505 44.6264 81.5595 43.9489C81.5554 43.3678 81.6761 42.7926 81.914 42.2606C82.1485 41.7632 82.5046 41.3305 82.9505 41.0011C83.4641 40.6349 84.0354 40.3542 84.6417 40.1703C85.2852 39.9752 85.9414 39.823 86.6058 39.7148L88.9243 39.3664L91.352 39.0448L90.4247 39.5272C90.5005 38.7311 90.2665 37.9363 89.7699 37.3029C89.4627 37.0273 89.1001 36.8181 88.7054 36.6888C88.3107 36.5596 87.8928 36.5132 87.4787 36.5525C86.819 36.5473 86.1696 36.7137 85.5965 37.0349C85.3013 37.2026 85.0431 37.4264 84.837 37.6933C84.6309 37.9602 84.4811 38.2647 84.3963 38.5892L82.0505 37.8657C82.3245 36.791 82.9706 35.8435 83.878 35.1858C84.9518 34.4927 86.2229 34.1547 87.506 34.2211C88.5562 34.1929 89.5997 34.3943 90.561 34.8107C91.3938 35.1853 92.0618 35.8416 92.4432 36.6597C92.6645 37.0752 92.7945 37.5317 92.8249 37.9996C92.8543 38.4995 92.8543 39.0006 92.8249 39.5004V47.5399H90.5883V44.592L91.0247 44.9672C90.5594 45.8692 89.852 46.6291 88.9789 47.1647C88.0524 47.6311 87.0185 47.8528 85.9785 47.8078V47.8078ZM86.4148 45.7712C87.0552 45.7988 87.6925 45.6699 88.2697 45.396C88.7511 45.1746 89.1789 44.8548 89.5245 44.458C89.8159 44.0964 90.0209 43.6752 90.1245 43.2253C90.266 42.8189 90.3487 42.3949 90.3701 41.9658C90.3701 41.4834 90.3701 41.1082 90.3701 40.8135L91.1884 41.1082L89.0062 41.4299L87.2604 41.6978C86.7808 41.7853 86.307 41.9017 85.8419 42.0462C85.5116 42.14 85.1987 42.2847 84.9146 42.475C84.6561 42.6135 84.4396 42.817 84.2873 43.0646C84.1168 43.3284 84.0312 43.6365 84.0417 43.9489C84.042 44.2683 84.1267 44.5823 84.2873 44.86C84.4778 45.1552 84.753 45.3884 85.0783 45.53C85.4986 45.7116 85.9562 45.7942 86.4148 45.7712V45.7712Z" fill="#232323"/>
<path d="M95.8529 53.1411V34.6235H98.0897V43.8421H98.3897V53.1411H95.8529ZM101.99 47.7815C100.871 47.8243 99.7688 47.5041 98.8534 46.8703C97.9885 46.2626 97.3169 45.4262 96.9166 44.4585C96.0445 42.2334 96.0445 39.7695 96.9166 37.5445C97.3014 36.5756 97.9649 35.7376 98.826 35.1327C99.7415 34.5227 100.83 34.2131 101.936 34.2483C103.058 34.2162 104.163 34.525 105.1 35.1327C106.005 35.7324 106.723 36.5674 107.173 37.5445C107.641 38.639 107.882 39.8143 107.882 41.0015C107.882 42.1887 107.641 43.364 107.173 44.4585C106.724 45.4356 106.018 46.2774 105.127 46.8971C104.201 47.5089 103.106 47.8269 101.99 47.8083V47.7815ZM101.636 45.5304C102.348 45.5621 103.051 45.3541 103.627 44.9409C104.165 44.5083 104.579 43.9447 104.827 43.3062C105.086 42.5648 105.216 41.7854 105.209 41.0015C105.216 40.2263 105.087 39.4557 104.827 38.7236C104.579 38.0851 104.165 37.5215 103.627 37.0889C103.02 36.6753 102.292 36.4682 101.554 36.4994C100.854 36.4721 100.165 36.6697 99.5899 37.0621C99.0628 37.4658 98.6727 38.0171 98.4714 38.6432C98.2101 39.4026 98.0811 40.1999 98.0897 41.0015C98.0879 41.8005 98.2075 42.5953 98.4443 43.3597C98.656 43.9878 99.0552 44.5387 99.5899 44.9409C100.181 45.3676 100.902 45.5848 101.636 45.5572V45.5304Z" fill="#232323"/>
<path d="M110.583 32.533V30.1479H113.119V32.5598L110.583 32.533ZM110.583 47.4597V34.6233H113.119V47.4597H110.583Z" fill="#232323"/>
<path d="M115.111 36.6334V34.6235H124.03V36.6334H115.111ZM124.03 47.3527C123.231 47.5061 122.417 47.569 121.603 47.5403C120.869 47.535 120.145 47.3799 119.475 47.0847C118.879 46.8197 118.389 46.3671 118.084 45.7984C117.814 45.2918 117.656 44.7347 117.62 44.1637C117.62 43.6277 117.62 42.9846 117.62 42.2878V30.9521H120.157V42.1806C120.157 42.6898 120.157 43.1454 120.157 43.5206C120.148 43.8581 120.233 44.1918 120.403 44.4853C120.547 44.726 120.749 44.9278 120.992 45.0728C121.234 45.2178 121.51 45.3013 121.794 45.316C122.536 45.4194 123.289 45.4194 124.03 45.316V47.3527Z" fill="#232323"/>
<path d="M130.25 47.8085C129.408 47.8306 128.573 47.6464 127.822 47.2725C127.201 46.9615 126.689 46.4765 126.349 45.879C126.013 45.2893 125.835 44.6254 125.831 43.9495C125.827 43.3685 125.948 42.7932 126.185 42.2612C126.429 41.7693 126.783 41.3385 127.222 41.0017C127.735 40.6355 128.307 40.3549 128.913 40.171C129.567 39.979 130.232 39.8268 130.904 39.7154L133.196 39.367L135.623 39.0455L134.696 39.5278C134.786 38.7305 134.551 37.9305 134.041 37.3035C133.734 37.0279 133.371 36.8187 132.977 36.6895C132.582 36.5602 132.164 36.5138 131.75 36.5532C131.09 36.5479 130.441 36.7144 129.868 37.0356C129.573 37.2032 129.314 37.427 129.108 37.6939C128.902 37.9608 128.752 38.2654 128.668 38.5898L126.322 37.8663C126.596 36.7916 127.242 35.8442 128.149 35.1865C129.225 34.4967 130.495 34.159 131.777 34.2217C132.827 34.1935 133.871 34.3949 134.832 34.8113C135.665 35.186 136.333 35.8422 136.714 36.6604C136.932 37.079 137.071 37.533 137.124 38.0003C137.124 38.4558 137.124 38.9651 137.124 39.501V47.5405H134.887V44.5927L135.323 44.9679C134.858 45.8698 134.151 46.6297 133.277 47.1653C132.343 47.6364 131.299 47.8581 130.25 47.8085V47.8085ZM130.686 45.7718C131.326 45.7995 131.964 45.6705 132.541 45.3966C133.022 45.1752 133.45 44.8554 133.796 44.4587C134.087 44.0971 134.292 43.6758 134.396 43.226C134.537 42.8195 134.62 42.3955 134.641 41.9665C134.641 41.4841 134.641 41.1089 134.641 40.8141L135.46 41.1089L133.305 41.4305L131.532 41.6985C131.052 41.786 130.578 41.9023 130.113 42.0468C129.783 42.1406 129.47 42.2854 129.186 42.4756C128.927 42.6141 128.711 42.8176 128.559 43.0652C128.388 43.329 128.302 43.6372 128.313 43.9495C128.313 44.269 128.398 44.5829 128.559 44.8607C128.756 45.15 129.029 45.3816 129.35 45.5306C129.771 45.7095 130.228 45.792 130.686 45.7718V45.7718Z" fill="#232323"/>
<path d="M140.37 47.4597V30.1479H142.907V47.5936L140.37 47.4597Z" fill="#232323"/>
</g>
<defs>
<clipPath id="clip0_338:1467">
<rect width="159" height="57" fill="white"/>
</clipPath>
</defs>
</svg>
