<svg width="36" height="52" viewBox="0 0 36 52" fill="none" xmlns="http://www.w3.org/2000/svg">
<g clip-path="url(#clip0_412:254)">
<path d="M29.5381 30.0142H6.60008C6.59951 31.7243 5.91993 33.3642 4.71071 34.5734C3.50149 35.7826 1.86159 36.4622 0.151493 36.4628L0 36.4411V45.573L0.151493 45.5298C0.999918 45.5306 1.83984 45.6987 2.62325 46.0244C3.40666 46.3502 4.11818 46.8271 4.7171 47.4281C5.31602 48.029 5.79059 48.7421 6.11369 49.5266C6.43679 50.3111 6.60207 51.1516 6.60008 52H29.5381C29.5361 51.1516 29.7014 50.3111 30.0245 49.5266C30.3476 48.7421 30.8222 48.029 31.4211 47.4281C32.02 46.8271 32.7315 46.3502 33.5149 46.0244C34.2983 45.6987 35.1383 45.5306 35.9867 45.5298V36.4628C34.2766 36.4622 32.6367 35.7826 31.4275 34.5734C30.2183 33.3642 29.5386 31.7243 29.5381 30.0142ZM19.2376 39.0379C19.3088 39.0373 19.3794 39.0509 19.4453 39.0779C19.5112 39.1049 19.5711 39.1447 19.6214 39.195C19.6718 39.2454 19.7116 39.3053 19.7386 39.3712C19.7656 39.4371 19.7792 39.5077 19.7786 39.5789C19.7764 39.7217 19.7187 39.858 19.6177 39.9589C19.5167 40.0599 19.3804 40.1176 19.2376 40.1199H16.0782C16.009 40.3959 15.9727 40.6792 15.97 40.9638C15.9727 41.2555 16.009 41.546 16.0782 41.8294H20.0383C20.1818 41.8294 20.3194 41.8864 20.4208 41.9878C20.5223 42.0893 20.5793 42.2269 20.5793 42.3704C20.5793 42.5139 20.5223 42.6515 20.4208 42.7529C20.3194 42.8544 20.1818 42.9114 20.0383 42.9114H16.4894C16.8327 43.568 17.3486 44.1185 17.9816 44.5036C18.6146 44.8888 19.3406 45.0939 20.0816 45.097C20.7466 45.1034 21.4021 44.9396 21.9858 44.6209C22.1159 44.5606 22.264 44.5516 22.4004 44.5958C22.5368 44.6399 22.6515 44.7339 22.7216 44.8589C22.7835 44.9888 22.7933 45.1374 22.749 45.2742C22.7047 45.411 22.6098 45.5257 22.4836 45.5947C21.7427 45.9828 20.918 46.1834 20.0816 46.179C19.0464 46.1751 18.0359 45.862 17.1799 45.2798C16.3239 44.6975 15.6615 43.8728 15.2776 42.9114H13.7628C13.6193 42.9114 13.4817 42.8544 13.3803 42.7529C13.2788 42.6515 13.2218 42.5139 13.2218 42.3704C13.2218 42.2269 13.2788 42.0893 13.3803 41.9878C13.4817 41.8864 13.6193 41.8294 13.7628 41.8294H14.9746C14.8592 41.2654 14.8592 40.6839 14.9746 40.1199H12.9838C12.841 40.1176 12.7047 40.0599 12.6037 39.9589C12.5027 39.858 12.445 39.7217 12.4428 39.5789C12.4422 39.5077 12.4558 39.4371 12.4828 39.3712C12.5098 39.3053 12.5496 39.2454 12.6 39.195C12.6503 39.1447 12.7102 39.1049 12.7761 39.0779C12.842 39.0509 12.9126 39.0373 12.9838 39.0379H15.2776C15.6646 38.0787 16.3279 37.256 17.1832 36.6742C18.0384 36.0925 19.0472 35.7779 20.0816 35.7703C20.918 35.7658 21.7427 35.9665 22.4836 36.3546C22.5512 36.385 22.612 36.4289 22.6622 36.4835C22.7124 36.5382 22.7509 36.6024 22.7755 36.6724C22.8001 36.7424 22.8102 36.8167 22.8053 36.8907C22.8003 36.9647 22.7803 37.037 22.7465 37.103C22.7127 37.1691 22.6659 37.2276 22.6088 37.275C22.5518 37.3224 22.4856 37.3577 22.4145 37.3788C22.3433 37.3999 22.2687 37.4063 22.195 37.3976C22.1213 37.3889 22.0501 37.3654 21.9858 37.3283C21.3985 37.0192 20.7453 36.8559 20.0816 36.8523C19.3406 36.8553 18.6146 37.0605 17.9816 37.4456C17.3486 37.8308 16.8327 38.3813 16.4894 39.0379H19.2376Z" fill="#232323"/>
<path d="M30.6201 30.0142C30.6201 31.4375 31.1855 32.8025 32.1919 33.8089C33.1983 34.8154 34.5634 35.3808 35.9867 35.3808V30.0142H30.6201Z" fill="#232323"/>
<path d="M5.5181 30.0142H0V35.3591C0.0488064 35.3753 0.100116 35.3826 0.151493 35.3808C1.57481 35.3808 2.93983 34.8154 3.94627 33.8089C4.95271 32.8025 5.5181 31.4375 5.5181 30.0142Z" fill="#232323"/>
<path d="M30.6201 51.9999H35.9867V46.6117C35.2803 46.6123 34.5809 46.7522 33.9286 47.0234C33.2764 47.2947 32.684 47.6919 32.1855 48.1925C31.687 48.693 31.2921 49.2869 31.0235 49.9403C30.7549 50.5936 30.6178 51.2935 30.6201 51.9999Z" fill="#232323"/>
<path d="M0.151493 46.6117C0.100116 46.6099 0.0488064 46.6172 0 46.6334V52H5.5181C5.52038 51.2936 5.38328 50.5936 5.11466 49.9403C4.84603 49.2869 4.45117 48.693 3.95266 48.1925C3.45416 47.692 2.86179 47.2947 2.20953 47.0235C1.55726 46.7522 0.857912 46.6123 0.151493 46.6117Z" fill="#232323"/>
<path d="M15.3208 0.28125C12.3788 0.889045 9.73668 2.49334 7.84039 4.8233C5.9441 7.15326 4.90983 10.0662 4.91217 13.0703H12.0965C12.0965 7.8984 13.1785 2.68325 15.3208 0.28125Z" fill="#232323"/>
<path d="M31.0745 13.0703C31.0773 10.0637 30.0437 7.14793 28.1477 4.81444C26.2518 2.48094 23.6094 0.872318 20.6658 0.259644C22.8082 2.64 23.9118 7.87679 23.9118 13.0703H31.0745Z" fill="#232323"/>
<path d="M16.9222 13.0703H22.8298C22.8298 5.8427 20.6658 0 18.0042 0C15.3425 0 13.1569 5.8427 13.1569 13.0703H16.9222Z" fill="#232323"/>
<path d="M14.109 22.7433C13.8235 22.7477 13.5508 22.8632 13.3489 23.0651C13.1469 23.2671 13.0315 23.5397 13.027 23.8253V24.8207C13.027 25.6242 13.3462 26.3947 13.9144 26.9629C14.4825 27.531 15.2531 27.8502 16.0566 27.8502C16.8601 27.8502 17.6306 27.531 18.1988 26.9629C18.7669 26.3947 19.0861 25.6242 19.0861 24.8207V14.1523H16.9222V24.8207C16.9222 25.0502 16.831 25.2704 16.6686 25.4327C16.5063 25.5951 16.2862 25.6863 16.0566 25.6863C15.827 25.6863 15.6068 25.5951 15.4445 25.4327C15.2822 25.2704 15.191 25.0502 15.191 24.8207V23.8253C15.191 23.5383 15.077 23.2631 14.8741 23.0602C14.6712 22.8573 14.396 22.7433 14.109 22.7433Z" fill="#232323"/>
</g>
<defs>
<clipPath id="clip0_412:254">
<rect width="35.9867" height="52" fill="white"/>
</clipPath>
</defs>
</svg>
