<svg width="41" height="52" viewBox="0 0 41 52" fill="none" xmlns="http://www.w3.org/2000/svg">
<g clip-path="url(#clip0_412:168)">
<path d="M31.0084 7.07703H40.6549V52H-0.495239V7.07703H9.64656C9.45433 7.57715 9.35829 8.10908 9.36348 8.64485C9.36555 9.47329 9.59125 10.2858 10.0168 10.9966H3.76717V48.0804H36.8878V10.9966H30.6164C31.0583 10.2919 31.2923 9.47669 31.2915 8.64485C31.2986 8.10892 31.2025 7.57663 31.0084 7.07703Z" fill="#232323"/>
<path d="M13.9646 13.1742C12.8857 13.1729 11.8426 12.7869 11.0228 12.0854H4.9256V46.9917H35.8708V12.0854H29.7737C28.946 12.7866 27.8969 13.1723 26.8122 13.1742H13.9646ZM30.2506 43.1809H10.5241C10.3802 43.1792 10.2428 43.1213 10.141 43.0196C10.0393 42.9179 9.9814 42.7804 9.97971 42.6365C9.97883 42.5648 9.99231 42.4936 10.0194 42.4272C10.0464 42.3607 10.0865 42.3004 10.1372 42.2496C10.1879 42.1989 10.2483 42.1588 10.3147 42.1318C10.3812 42.1047 10.4524 42.0913 10.5241 42.0922H30.2506C30.3223 42.0913 30.3935 42.1047 30.4599 42.1318C30.5264 42.1588 30.5867 42.1989 30.6374 42.2496C30.6882 42.3004 30.7282 42.3607 30.7553 42.4272C30.7823 42.4936 30.7958 42.5648 30.7949 42.6365C30.7932 42.7804 30.7353 42.9179 30.6336 43.0196C30.5319 43.1213 30.3944 43.1792 30.2506 43.1809ZM30.2506 37.7806C30.3949 37.7806 30.5334 37.8379 30.6355 37.94C30.7376 38.0421 30.7949 38.1806 30.7949 38.325C30.7949 38.4694 30.7376 38.6078 30.6355 38.7099C30.5334 38.812 30.3949 38.8694 30.2506 38.8694H10.5241C10.3797 38.8694 10.2412 38.812 10.1392 38.7099C10.0371 38.6078 9.97971 38.4694 9.97971 38.325C9.97971 38.1806 10.0371 38.0421 10.1392 37.94C10.2412 37.8379 10.3797 37.7806 10.5241 37.7806H30.2506Z" fill="#232323"/>
<path d="M11.0184 10.4957C11.1076 10.6424 11.2096 10.7809 11.3233 10.9095C11.345 10.953 11.3886 10.9748 11.4104 10.9966C11.5583 11.1707 11.7351 11.318 11.933 11.4321C12.5123 11.8425 13.2046 12.0631 13.9146 12.0636H26.7404C27.1931 12.0672 27.6419 11.9805 28.0607 11.8085C28.4795 11.6365 28.8597 11.3827 29.1792 11.0619L29.2445 10.9966L29.3316 10.9095C29.4453 10.7809 29.5473 10.6424 29.6365 10.4957C30.0143 9.95325 30.2124 9.30584 30.2027 8.64481C30.1914 7.73006 29.823 6.85598 29.1761 6.2091C28.5292 5.56222 27.6551 5.19382 26.7404 5.18252H13.9146C13.4602 5.18062 13.01 5.27024 12.591 5.44608C12.172 5.62192 11.7927 5.88036 11.4757 6.20596C11.2108 6.45269 10.9963 6.7485 10.8442 7.07699C10.5774 7.55581 10.4421 8.09675 10.4523 8.64481C10.4484 9.08664 10.5374 9.52436 10.7136 9.92958C10.7933 10.1293 10.8956 10.3192 11.0184 10.4957Z" fill="#232323"/>
<path d="M23.8878 3.57117C23.893 3.10074 23.8042 2.63399 23.6266 2.19834C23.449 1.7627 23.1862 1.36693 22.8535 1.03426C22.5208 0.701594 22.1251 0.438722 21.6894 0.261112C21.2538 0.0835023 20.787 -0.00527437 20.3166 -2.41595e-05C19.8488 0.000543491 19.3857 0.0934545 18.9539 0.273393C18.5221 0.453331 18.1301 0.716747 17.8003 1.04854C17.4706 1.38032 17.2095 1.77396 17.0322 2.20685C16.855 2.63974 16.7649 3.10339 16.7672 3.57117V4.09379H23.8878V3.57117Z" fill="#232323"/>
<path d="M28.0208 25.2574C28.0208 25.5462 27.9061 25.8231 27.7019 26.0273C27.4977 26.2315 27.2208 26.3462 26.932 26.3462H21.4881V31.7901C21.4881 32.0789 21.3734 32.3558 21.1692 32.56C20.965 32.7642 20.6881 32.8789 20.3993 32.8789C20.1106 32.8789 19.8336 32.7642 19.6295 32.56C19.4253 32.3558 19.3106 32.0789 19.3106 31.7901V26.3462H13.8667C13.5779 26.3462 13.301 26.2315 13.0968 26.0273C12.8926 25.8231 12.7779 25.5462 12.7779 25.2574C12.7779 24.9687 12.8926 24.6917 13.0968 24.4875C13.301 24.2834 13.5779 24.1686 13.8667 24.1686H19.3106V18.7248C19.3106 18.436 19.4253 18.1591 19.6295 17.9549C19.8336 17.7507 20.1106 17.636 20.3993 17.636C20.6867 17.6405 20.961 17.7566 21.1643 17.9599C21.3675 18.1631 21.4836 18.4374 21.4881 18.7248V24.1686H26.932C27.2194 24.1731 27.4937 24.2893 27.6969 24.4925C27.9001 24.6957 28.0163 24.9701 28.0208 25.2574Z" fill="#F5E5F0"/>
</g>
<defs>
<clipPath id="clip0_412:168">
<rect width="40.6549" height="52" fill="white"/>
</clipPath>
</defs>
</svg>
