<svg width="47" height="52" viewBox="0 0 47 52" fill="none" xmlns="http://www.w3.org/2000/svg">
<g clip-path="url(#clip0_412:156)">
<path d="M27.0742 0C15.8121 0 8.56194 7.6193 6.94391 18.3641C6.30731 21.6112 3.02706 28.1076 0.199939 32.2301C0.0844051 32.3957 0.0164821 32.5899 0.00354971 32.7915C-0.00938264 32.993 0.0331722 33.1943 0.126587 33.3734C0.220002 33.5525 0.360706 33.7025 0.533414 33.8073C0.706122 33.912 0.904228 33.9674 1.10621 33.9674H6.28079V38.7884C6.2805 39.6391 6.4478 40.4815 6.77315 41.2675C7.09849 42.0535 7.57551 42.7677 8.17694 43.3694C8.77836 43.971 9.49243 44.4483 10.2783 44.7739C11.0643 45.0995 11.9066 45.2671 12.7573 45.2671H16.8068V52H42.5316C42.5316 52 40.8738 50.6738 44.6271 35.2185C48.3803 19.7633 46.727 0 27.0742 0ZM26.4486 37.4422C23.2729 37.4422 20.1686 36.5005 17.5281 34.7362C14.8877 32.9719 12.8297 30.4642 11.6144 27.5303C10.3991 24.5964 10.0811 21.368 10.7007 18.2533C11.3202 15.1387 12.8494 12.2777 15.095 10.0321C17.3405 7.78661 20.2015 6.25738 23.3161 5.63784C26.4308 5.0183 29.6592 5.33626 32.5931 6.55154C35.5271 7.76681 38.0348 9.8248 39.7991 12.4653C41.5634 15.1057 42.5051 18.2101 42.5051 21.3858C42.5004 25.6428 40.8072 29.7241 37.7971 32.7342C34.7869 35.7444 30.7056 37.4375 26.4486 37.4422Z" fill="#232323"/>
<path d="M26.4476 10.9172C24.8274 10.9172 23.0303 14.9689 22.9242 20.8641H29.971C29.8627 14.9579 28.0656 10.9172 26.4476 10.9172Z" fill="#232323"/>
<path d="M15.9681 20.8464H21.8235C21.8964 17.0312 22.7076 13.1608 24.1842 11.1714C21.9466 11.6667 19.9325 12.8803 18.4491 14.6271C16.9656 16.374 16.0943 18.5581 15.9681 20.8464Z" fill="#232323"/>
<path d="M28.7111 11.1714C30.1877 13.1608 30.9989 17.0312 31.0718 20.8464H36.9272C36.801 18.5581 35.9297 16.374 34.4462 14.6271C32.9628 12.8803 30.9487 11.6667 28.7111 11.1714Z" fill="#232323"/>
<path d="M26.4476 6.44116C23.4905 6.44116 20.5998 7.31804 18.1411 8.96091C15.6824 10.6038 13.7661 12.9388 12.6344 15.6708C11.5028 18.4028 11.2067 21.409 11.7836 24.3093C12.3605 27.2095 13.7845 29.8736 15.8755 31.9645C17.9664 34.0555 20.6305 35.4795 23.5307 36.0564C26.431 36.6333 29.4372 36.3372 32.1692 35.2056C34.9012 34.0739 37.2362 32.1576 38.8791 29.6989C40.5219 27.2401 41.3988 24.3495 41.3988 21.3924C41.3988 17.4271 39.8236 13.6242 37.0197 10.8203C34.2158 8.01637 30.4129 6.44116 26.4476 6.44116ZM37.4997 21.9516H27.0002V31.3105C26.9821 31.8803 26.743 32.4207 26.3336 32.8174C25.9241 33.214 25.3764 33.4358 24.8063 33.4358C24.2363 33.4358 23.6886 33.214 23.2791 32.8174C22.8697 32.4207 22.6306 31.8803 22.6125 31.3105V30.4861C22.6125 30.3395 22.6707 30.1989 22.7744 30.0953C22.878 29.9917 23.0186 29.9335 23.1651 29.9335C23.3117 29.9335 23.4522 29.9917 23.5559 30.0953C23.6595 30.1989 23.7177 30.3395 23.7177 30.4861V31.3105C23.7304 31.5908 23.8506 31.8553 24.0533 32.0492C24.2561 32.243 24.5258 32.3512 24.8063 32.3512C25.0869 32.3512 25.3566 32.243 25.5594 32.0492C25.7621 31.8553 25.8824 31.5908 25.895 31.3105V21.9516H15.4021C15.2556 21.9516 15.115 21.8934 15.0114 21.7898C14.9078 21.6861 14.8495 21.5456 14.8495 21.399C14.8495 18.323 16.0715 15.373 18.2465 13.198C20.4216 11.0229 23.3716 9.80099 26.4476 9.80099C29.5236 9.80099 32.4736 11.0229 34.6486 13.198C36.8237 15.373 38.0456 18.323 38.0456 21.399C38.0456 21.5456 37.9874 21.6861 37.8838 21.7898C37.7801 21.8934 37.6396 21.9516 37.493 21.9516H37.4997Z" fill="#232323"/>
</g>
<defs>
<clipPath id="clip0_412:156">
<rect width="46.2374" height="52" fill="white"/>
</clipPath>
</defs>
</svg>
