<svg width="68" height="52" viewBox="0 0 68 52" fill="none" xmlns="http://www.w3.org/2000/svg">
<g clip-path="url(#clip0_463:307)">
<path d="M52.1873 32.0184C50.9889 32.0222 49.794 31.8883 48.6262 31.6193V46.7536H7.85878V18.3883H35.7329C35.5229 17.3475 35.4201 16.288 35.4259 15.2263H6.75364C6.42853 15.2263 6.10665 15.2908 5.80667 15.4162C5.50669 15.5415 5.23459 15.7251 5.00613 15.9565C4.77768 16.1878 4.59742 16.4621 4.47582 16.7636C4.35423 17.0651 4.2937 17.3878 4.29777 17.7129V48.3806H52.1873V32.0184Z" fill="#232323"/>
<path d="M56.485 49.3016H0L0.104375 52H56.4144L56.485 49.3016Z" fill="#232323"/>
<path d="M9.39374 45.2187H47.0914V31.1895C47.0385 31.1916 46.9859 31.181 46.9379 31.1588L46.6002 31.0667C44.1759 30.2007 41.9826 28.79 40.1891 26.9433C38.3956 25.0966 37.0496 22.863 36.2548 20.4144C36.1854 20.2569 36.134 20.0922 36.1013 19.9232H9.39374V45.2187Z" fill="#232323"/>
<path d="M42.9778 14.4897H47.7667C47.8281 11.4198 48.4421 8.34996 49.5472 6.44666C47.7702 6.97093 46.1927 8.01899 45.0207 9.45388C43.8487 10.8888 43.1367 12.6438 42.9778 14.4897Z" fill="#232323"/>
<path d="M52.1873 6.01685C51.0514 6.01685 49.4244 9.3016 49.2709 14.4896H55.1036C54.9808 9.3016 53.3231 6.01685 52.1873 6.01685Z" fill="#232323"/>
<path d="M54.8273 6.44666C55.9325 8.34996 56.5464 11.4198 56.6385 14.4897H61.4275C61.2602 12.6419 60.5414 10.8872 59.3645 9.45298C58.1876 8.01879 56.6069 6.97137 54.8273 6.44666Z" fill="#232323"/>
<path d="M52.1873 0C49.9245 0.0185447 47.6938 0.537183 45.6549 1.51877C43.616 2.50035 41.8194 3.92062 40.3936 5.67785C38.9679 7.43508 37.9484 9.48579 37.408 11.6832C36.8676 13.8806 36.8197 16.1703 37.2679 18.3883C37.3599 18.6953 37.4213 19.033 37.5134 19.34C37.5748 19.5242 37.6362 19.7391 37.6976 19.9233C37.7558 20.1124 37.8277 20.2971 37.9125 20.4759C38.0082 20.8128 38.1314 21.1414 38.2809 21.4582C38.4651 21.8573 38.6493 22.2256 38.8642 22.594C38.9256 22.6861 38.987 22.8089 39.0484 22.901L39.1405 23.0852C39.3246 23.3922 39.5088 23.6685 39.693 23.9447L39.7544 24.0062C39.7886 24.0814 39.8297 24.1534 39.8772 24.221C40.0307 24.4359 40.2149 24.6815 40.3991 24.8964L40.4912 24.9885C40.7206 25.269 40.9666 25.5355 41.2279 25.7867C41.3452 25.9346 41.4791 26.0685 41.627 26.1857C41.8116 26.4112 42.0289 26.6078 42.2717 26.769C42.4559 26.9532 42.6708 27.1067 42.855 27.2602C42.8857 27.3216 42.9164 27.3216 42.9471 27.3523C43.2233 27.5672 43.4996 27.7513 43.7759 27.9355C43.9294 28.0276 44.0522 28.1197 44.2057 28.2118C44.5432 28.4244 44.8916 28.6191 45.2494 28.7951C45.6546 29.0104 46.0753 29.1951 46.5081 29.3477C46.6968 29.4425 46.8916 29.5245 47.0913 29.5933C47.429 29.7161 47.7667 29.8081 48.1044 29.9002C48.2746 29.9557 48.4492 29.9967 48.6263 30.023C48.8166 30.0885 49.0116 30.1398 49.2095 30.1765C49.4524 30.2324 49.6984 30.2734 49.9463 30.2993C50.6869 30.4229 51.4365 30.4845 52.1873 30.4835C56.2296 30.4835 60.1064 28.8777 62.9648 26.0193C65.8232 23.1609 67.429 19.2841 67.429 15.2418C67.429 11.1994 65.8232 7.32258 62.9648 4.4642C60.1064 1.60581 56.2296 0 52.1873 0ZM62.2256 16.0246H52.9547V24.2517C52.9547 24.8501 52.717 25.4241 52.2939 25.8472C51.8707 26.2704 51.2968 26.5081 50.6984 26.5081C50.1 26.5081 49.5261 26.2704 49.1029 25.8472C48.6798 25.4241 48.4421 24.8501 48.4421 24.2517V23.515C48.4421 23.3114 48.5229 23.1162 48.6668 22.9723C48.8108 22.8284 49.006 22.7475 49.2095 22.7475C49.4131 22.7475 49.6083 22.8284 49.7522 22.9723C49.8961 23.1162 49.977 23.3114 49.977 23.515V24.2517C49.9794 24.4464 50.0578 24.6324 50.1954 24.7701C50.3331 24.9077 50.5191 24.9861 50.7138 24.9885C50.8085 24.9865 50.9019 24.9659 50.9887 24.9278C51.0754 24.8896 51.1539 24.8348 51.2194 24.7664C51.285 24.698 51.3364 24.6173 51.3708 24.529C51.4052 24.4407 51.4218 24.3465 51.4198 24.2517V16.0246H42.1796C42.0786 16.0254 41.9784 16.0061 41.8849 15.9678C41.7915 15.9295 41.7065 15.873 41.6351 15.8016C41.5637 15.7302 41.5072 15.6453 41.4689 15.5518C41.4306 15.4583 41.4113 15.3581 41.4121 15.2571C41.4121 12.3953 42.549 9.65069 44.5726 7.62708C46.5962 5.60347 49.3408 4.46663 52.2026 4.46663C55.0644 4.46663 57.809 5.60347 59.8326 7.62708C61.8563 9.65069 62.9931 12.3953 62.9931 15.2571C62.9899 15.4597 62.9081 15.653 62.7648 15.7963C62.6216 15.9395 62.4282 16.0214 62.2256 16.0246Z" fill="#232323"/>
</g>
<defs>
<clipPath id="clip0_463:307">
<rect width="67.4444" height="52" fill="white"/>
</clipPath>
</defs>
</svg>
