<svg width="53" height="52" viewBox="0 0 53 52" fill="none" xmlns="http://www.w3.org/2000/svg">
<g clip-path="url(#clip0_477:649)">
<path d="M51.3447 33.1734C50.9918 32.931 50.5926 32.7643 50.1721 32.6837C50.0669 32.2139 49.8045 31.794 49.4282 31.4937C49.0519 31.1933 48.5844 31.0303 48.1029 31.0317C47.3053 31.0875 46.5492 31.4079 45.9544 31.9422C45.2646 25.8759 40.1329 20.7959 32.3388 18.7094C31.6016 18.8552 30.852 18.9291 30.1005 18.9301C28.3155 18.9322 26.5554 18.5102 24.9654 17.6989H24.1929C21.8908 17.6838 19.5951 17.9419 17.354 18.468C18.1298 19.1892 18.771 20.0429 19.2474 20.989C19.2651 21.0255 19.2753 21.0651 19.2777 21.1055C19.2801 21.1459 19.2744 21.1865 19.2612 21.2247C19.2479 21.263 19.2272 21.2983 19.2002 21.3285C19.1733 21.3588 19.1407 21.3835 19.1043 21.4011C19.0678 21.4188 19.0282 21.4291 18.9878 21.4315C18.9473 21.4339 18.9068 21.4282 18.8685 21.415C18.8303 21.4017 18.795 21.381 18.7647 21.354C18.7345 21.3271 18.7098 21.2945 18.6921 21.258V21.2097C18.1825 20.2334 17.488 19.3654 16.647 18.6542C14.8672 17.1983 12.8258 16.0957 10.6324 15.4055L11.9533 20.62L12.5672 22.9858C12.5776 23.025 12.5801 23.0659 12.5746 23.106C12.5691 23.1462 12.5557 23.1848 12.5352 23.2198C12.5146 23.2547 12.4874 23.2853 12.455 23.3096C12.4226 23.334 12.3857 23.3517 12.3465 23.3617H12.274C12.2055 23.3621 12.1388 23.3401 12.084 23.299C12.0292 23.2579 11.9893 23.2 11.9705 23.1341L11.4153 20.9442C9.2722 22.2826 7.5209 24.1636 6.33876 26.3966C5.88071 27.2038 5.24827 27.8985 4.48755 28.4301C3.72684 28.9617 2.85704 29.3168 1.94163 29.4695L0.0103455 30.0351V37.6637L5.36279 39.257C5.76452 40.7107 6.45052 42.0703 7.38109 43.2572C8.31166 44.4441 9.46832 45.4347 10.7842 46.1717L9.43572 51.9931H13.9881L16.0262 48.1547C18.7148 48.7338 21.4602 49.0068 24.2101 48.9686C27.102 48.9865 29.9822 48.5988 32.7664 47.8167L34.9977 51.9862H39.3086L37.943 45.6785C43.0023 42.8333 46.013 38.3534 46.013 33.3251V32.7664C46.5397 32.1383 47.2935 31.7441 48.1098 31.6698C48.4183 31.6613 48.7213 31.7523 48.974 31.9293C49.2268 32.1063 49.4159 32.3599 49.5134 32.6526C49.0825 32.6746 48.6619 32.7924 48.2823 32.9975C47.1062 33.6114 46.4337 34.9978 46.5027 36.767C46.4845 37.078 46.5509 37.3881 46.6948 37.6644C46.8387 37.9407 47.0548 38.1728 47.32 38.3362C47.5109 38.4353 47.7223 38.4884 47.9374 38.4913C48.2645 38.4838 48.5826 38.3833 48.8548 38.2017C49.8894 37.4878 50.4757 35.8565 50.3274 33.7907C50.3339 33.6563 50.3211 33.5215 50.2894 33.3907C50.5363 33.4679 50.7692 33.5844 50.9791 33.7355C51.8482 34.3529 52.2103 35.4599 52.0138 36.8187C52.0063 36.8597 52.0072 36.9018 52.0163 36.9425C52.0255 36.9831 52.0427 37.0215 52.067 37.0554C52.0913 37.0892 52.1222 37.1178 52.1578 37.1395C52.1934 37.1612 52.233 37.1754 52.2743 37.1815C52.3155 37.1875 52.3576 37.1851 52.3979 37.1746C52.4382 37.164 52.476 37.1454 52.5089 37.1199C52.5419 37.0944 52.5694 37.0626 52.5898 37.0262C52.6102 36.9899 52.6231 36.9498 52.6276 36.9084C52.876 35.2875 52.4104 33.9528 51.3447 33.1734ZM11.2532 30.4455C10.906 30.4455 10.5666 30.3425 10.2779 30.1496C9.98927 29.9567 9.7643 29.6826 9.63144 29.3618C9.49857 29.0411 9.4638 28.6881 9.53154 28.3476C9.59927 28.0071 9.76647 27.6943 10.012 27.4488C10.2575 27.2033 10.5702 27.0361 10.9107 26.9684C11.2512 26.9006 11.6042 26.9354 11.925 27.0683C12.2457 27.2011 12.5199 27.4261 12.7128 27.7148C12.9057 28.0035 13.0086 28.3429 13.0086 28.69C13.0086 28.9206 12.9632 29.1488 12.875 29.3618C12.7868 29.5748 12.6575 29.7683 12.4944 29.9313C12.3314 30.0943 12.138 30.2236 11.925 30.3118C11.712 30.4001 11.4837 30.4455 11.2532 30.4455ZM37.7257 24.0825C37.6879 24.1266 37.6407 24.1615 37.5876 24.1848C37.5344 24.2081 37.4767 24.2191 37.4187 24.217C37.3187 24.2339 37.2159 24.2143 37.1291 24.1619C36.9281 23.9866 36.7136 23.8274 36.4876 23.6859C33.3837 21.6167 27.7209 21.396 24.8584 21.427C23.8238 21.427 23.1341 21.4856 23.1134 21.4856C23.0585 21.4928 23.0026 21.4887 22.9493 21.4735C22.8961 21.4583 22.8465 21.4324 22.8036 21.3974C22.7606 21.3623 22.7253 21.3189 22.6998 21.2697C22.6742 21.2206 22.659 21.1667 22.655 21.1115C22.651 21.0562 22.6583 21.0007 22.6765 20.9484C22.6947 20.8961 22.7234 20.848 22.7609 20.8072C22.7983 20.7663 22.8437 20.7335 22.8942 20.7108C22.9447 20.6882 22.9994 20.676 23.0548 20.6752C23.4824 20.6752 33.5699 19.9579 37.6636 23.548C37.7396 23.6125 37.7889 23.703 37.8016 23.8019C37.8144 23.9008 37.7898 24.0009 37.7326 24.0825H37.7257ZM48.4995 37.6843C48.3684 37.7847 48.2124 37.8474 48.0484 37.8656C47.8843 37.8838 47.7183 37.8569 47.5684 37.7878C47.4023 37.6741 47.2691 37.5186 47.1825 37.3369C47.0959 37.1552 47.0589 36.9538 47.0752 36.7532C47.0338 35.2288 47.5684 34.0528 48.5375 33.5424C48.8665 33.3672 49.2337 33.2759 49.6066 33.2769H49.6652C49.6887 33.4483 49.7002 33.6211 49.6997 33.7942C49.879 35.9979 49.1893 37.2464 48.4995 37.6843Z" fill="#232323"/>
<path d="M30.6248 18.1472C33.0114 18.0864 35.278 17.0878 36.9336 15.3678C38.5891 13.6477 39.5004 11.3447 39.47 8.9575C39.4397 6.57032 38.47 4.29121 36.7712 2.61386C35.0723 0.936514 32.7811 -0.00402832 30.3937 -0.00402832C28.0063 -0.00402832 25.7151 0.936514 24.0163 2.61386C22.3174 4.29121 21.3478 6.57032 21.3174 8.9575C21.287 11.3447 22.1983 13.6477 23.8539 15.3678C25.5095 17.0878 27.776 18.0864 30.1626 18.1472C30.3163 18.1627 30.4711 18.1627 30.6248 18.1472Z" fill="#232323"/>
<path d="M31.4007 7.88038C31.4922 7.88038 31.5799 7.9167 31.6446 7.98137C31.7092 8.04605 31.7456 8.13378 31.7456 8.22525C31.7456 8.31672 31.7092 8.40443 31.6446 8.46911C31.5799 8.53378 31.4922 8.57012 31.4007 8.57012H29.4418C29.4009 8.74194 29.3789 8.91771 29.3763 9.09432C29.3786 9.2755 29.4005 9.45589 29.4418 9.63232H31.8973C31.9482 9.61957 32.0013 9.6186 32.0526 9.62946C32.1039 9.64031 32.152 9.66271 32.1933 9.69496C32.2347 9.72721 32.2681 9.76846 32.2911 9.81558C32.3141 9.86269 32.3261 9.91443 32.3261 9.96686C32.3261 10.0193 32.3141 10.071 32.2911 10.1181C32.2681 10.1653 32.2347 10.2065 32.1933 10.2388C32.152 10.271 32.1039 10.2934 32.0526 10.3043C32.0013 10.3151 31.9482 10.3141 31.8973 10.3014H29.697C29.9098 10.7087 30.2298 11.0501 30.6224 11.289C31.015 11.5278 31.4654 11.655 31.9249 11.6567C32.3378 11.6618 32.7451 11.5609 33.1078 11.3636C33.1848 11.3416 33.267 11.347 33.3404 11.379C33.4138 11.4109 33.4738 11.4675 33.5101 11.5388C33.5464 11.6102 33.5567 11.692 33.5393 11.7701C33.522 11.8482 33.4779 11.9179 33.4148 11.9671C32.9537 12.202 32.4422 12.3204 31.9249 12.312C31.2828 12.3091 30.6562 12.1145 30.1253 11.7533C29.5944 11.392 29.1835 10.8804 28.9452 10.2841H28.0071C27.9563 10.2969 27.9032 10.2979 27.8519 10.287C27.8006 10.2762 27.7525 10.2538 27.7111 10.2215C27.6698 10.1893 27.6364 10.148 27.6134 10.1009C27.5904 10.0538 27.5784 10.002 27.5784 9.94962C27.5784 9.89719 27.5904 9.84545 27.6134 9.79834C27.6364 9.75122 27.6698 9.70997 27.7111 9.67772C27.7525 9.64547 27.8006 9.62307 27.8519 9.61222C27.9032 9.60136 27.9563 9.60233 28.0071 9.61508H28.759C28.7263 9.43751 28.7078 9.2576 28.7038 9.07708C28.7087 8.90118 28.7271 8.72592 28.759 8.55286H27.5243C27.4329 8.55286 27.3451 8.51655 27.2805 8.45187C27.2158 8.38719 27.1795 8.29946 27.1795 8.20799C27.1795 8.11652 27.2158 8.02881 27.2805 7.96413C27.3451 7.89946 27.4329 7.86312 27.5243 7.86312H28.9452C29.1851 7.26791 29.5963 6.7574 30.1269 6.39635C30.6574 6.03531 31.2832 5.84 31.9249 5.83526C32.4437 5.83221 32.9553 5.95657 33.4148 6.19739C33.4945 6.23933 33.5547 6.3108 33.5824 6.39652C33.6101 6.48224 33.6031 6.57538 33.563 6.65606C33.5205 6.7343 33.4494 6.79308 33.3646 6.82008C33.2797 6.84707 33.1877 6.84022 33.1078 6.80092C32.7425 6.61039 32.3369 6.50987 31.9249 6.50777C31.4654 6.50951 31.015 6.63666 30.6224 6.8755C30.2298 7.11434 29.9098 7.45582 29.697 7.86312L31.4007 7.88038Z" fill="#F5E5F0"/>
</g>
<defs>
<clipPath id="clip0_477:649">
<rect width="52.6897" height="52" fill="white"/>
</clipPath>
</defs>
</svg>
