<svg width="30" height="53" viewBox="0 0 30 53" fill="none" xmlns="http://www.w3.org/2000/svg">
<path d="M9.61258 32.9918C8.28538 31.5783 6.7037 30.4276 4.95034 29.5998C2.68002 28.6268 1.32865 29.4242 0.815126 29.9377C0.301603 30.4512 -0.53625 31.7485 0.477282 34.0729C1.31693 35.8226 2.4713 37.403 3.88275 38.7351C3.88275 38.7351 9.16663 43.965 12.518 43.965C12.8286 43.9745 13.1379 43.9221 13.428 43.8107C13.718 43.6993 13.9829 43.5312 14.2073 43.3163C17.0316 40.4784 9.68015 33.0729 9.61258 32.9918Z" fill="#232323"/>
<path d="M29.0859 27.343C28.4642 26.7214 27.0048 25.843 24.302 26.9781C22.1507 28.0037 20.2115 29.4248 18.5857 31.1674C16.5316 33.208 12.2612 38.2756 12.1396 41.5865V52.3975H14.8424V44.2892C18.1532 44.1811 23.2209 39.9108 25.2615 37.8702C27.0029 36.233 28.4237 34.2852 29.4507 32.1269C30.5859 29.4241 29.7075 27.9646 29.0859 27.343Z" fill="#232323"/>
<path d="M14.8424 26.7213H12.1396V29.4241H14.8424V26.7213Z" fill="#232323"/>
<path d="M14.8424 31.4385H12.1396V34.1412H14.8424V31.4385Z" fill="#232323"/>
<g clip-path="url(#clip0_463:364)">
<path d="M15.2441 0.0866634C14.2834 -0.0288878 13.3124 -0.0288878 12.3517 0.0866634C9.39828 0.440931 6.67723 1.86395 4.70324 4.08654C2.72925 6.30914 1.63919 9.17721 1.63919 12.1483C1.63919 15.1194 2.72925 17.9874 4.70324 20.21C6.67723 22.4326 9.39828 23.8556 12.3517 24.2099C13.3124 24.3255 14.2834 24.3255 15.2441 24.2099C18.1975 23.8556 20.9185 22.4326 22.8925 20.21C24.8665 17.9874 25.9566 15.1194 25.9566 12.1483C25.9566 9.17721 24.8665 6.30914 22.8925 4.08654C20.9185 1.86395 18.1975 0.440931 15.2441 0.0866634ZM18.8018 18.3163C17.8034 18.8091 16.7049 19.0661 15.5912 19.0675C14.214 19.0667 12.8686 18.6533 11.729 17.8808C10.5895 17.1083 9.70813 16.0121 9.1989 14.734H7.17418C6.9824 14.734 6.79846 14.6579 6.66285 14.5224C6.52724 14.387 6.45107 14.2033 6.45107 14.0117C6.45107 13.8201 6.52724 13.6364 6.66285 13.501C6.79846 13.3655 6.9824 13.2894 7.17418 13.2894H8.79395C8.63966 12.5365 8.63966 11.7601 8.79395 11.0071H6.10395C5.91468 10.9993 5.73529 10.9207 5.60134 10.7869C5.46739 10.6531 5.38866 10.4739 5.38084 10.2849C5.38382 10.0942 5.46097 9.91227 5.59594 9.77746C5.73091 9.64265 5.9131 9.5656 6.10395 9.56262H9.1989C9.55762 8.66806 10.1 7.8585 10.7911 7.18608C11.4821 6.51365 12.3066 5.99329 13.2113 5.65852C14.1159 5.32374 15.0808 5.18199 16.0437 5.24238C17.0066 5.30277 17.9462 5.56396 18.8018 6.00914C18.9706 6.09725 19.0974 6.24873 19.1544 6.43023C19.2113 6.61173 19.1938 6.8084 19.1055 6.97697C19.0173 7.14553 18.8657 7.27219 18.684 7.32908C18.5022 7.38597 18.3053 7.36842 18.1366 7.28031C16.8566 6.62465 15.3702 6.49641 13.9966 6.92313C12.623 7.34985 11.4716 8.29749 10.7897 9.56262H14.4921C14.5872 9.56185 14.6816 9.58 14.7697 9.61603C14.8578 9.65205 14.9378 9.70523 15.0051 9.77245C15.0724 9.83967 15.1257 9.9196 15.1617 10.0076C15.1978 10.0955 15.2159 10.1898 15.2152 10.2849C15.2122 10.4755 15.1351 10.6575 15.0001 10.7923C14.8651 10.9271 14.6829 11.0041 14.4921 11.0071H10.2402C10.1573 11.3768 10.1185 11.755 10.1245 12.1338C10.1185 12.5222 10.1573 12.91 10.2402 13.2894H15.5334C15.7252 13.2894 15.9091 13.3655 16.0447 13.501C16.1803 13.6364 16.2565 13.8201 16.2565 14.0117C16.2565 14.2033 16.1803 14.387 16.0447 14.5224C15.9091 14.6579 15.7252 14.734 15.5334 14.734H10.7897C11.4716 15.9991 12.623 16.9467 13.9966 17.3734C15.3702 17.8002 16.8566 17.6719 18.1366 17.0163C18.2217 16.9708 18.3151 16.9429 18.4112 16.9343C18.5073 16.9257 18.6041 16.9365 18.696 16.9662C18.7878 16.9959 18.8727 17.0438 18.9455 17.107C19.0184 17.1702 19.0777 17.2474 19.12 17.3341C19.2072 17.5066 19.2227 17.7066 19.1631 17.8905C19.1035 18.0744 18.9737 18.2275 18.8018 18.3163Z" fill="#232323"/>
</g>
<defs>
<clipPath id="clip0_463:364">
<rect width="24.2966" height="24.2966" fill="white" transform="translate(1.64893)"/>
</clipPath>
</defs>
</svg>
