<svg width="30" height="52" viewBox="0 0 30 52" fill="none" xmlns="http://www.w3.org/2000/svg">
<path d="M9.53966 32.7416C8.22252 31.3388 6.65284 30.1968 4.91278 29.3753C2.65969 28.4097 1.31857 29.201 0.808942 29.7106C0.299315 30.2203 -0.532182 31.5077 0.473661 33.8145C1.30694 35.5509 2.45255 37.1193 3.85329 38.4413C3.85329 38.4413 9.09709 43.6315 12.4231 43.6315C12.7313 43.641 13.0382 43.5889 13.3261 43.4784C13.6139 43.3678 13.8768 43.2011 14.0995 42.9877C16.9024 40.1714 9.60672 32.822 9.53966 32.7416Z" fill="#232323"/>
<path d="M28.8652 27.1356C28.2483 26.5187 26.7999 25.647 24.1177 26.7735C21.9827 27.7913 20.0582 29.2016 18.4447 30.931C16.4062 32.9561 12.1682 37.9853 12.0475 41.2711V52H14.7298V43.9533C18.0155 43.846 23.0448 39.6081 25.0699 37.583C26.7981 35.9581 28.2081 34.0251 29.2273 31.8832C30.3539 29.2009 29.4822 27.7525 28.8652 27.1356Z" fill="#232323"/>
<path d="M14.7298 26.5186H12.0475V29.2008H14.7298V26.5186Z" fill="#232323"/>
<path d="M14.7298 31.2H12.0475V33.8822H14.7298V31.2Z" fill="#232323"/>
<g clip-path="url(#clip0_412:248)">
<path d="M15.1284 0.0860059C14.175 -0.0286686 13.2113 -0.0286686 12.2579 0.0860059C9.32693 0.437586 6.62653 1.84981 4.66751 4.05554C2.7085 6.26128 1.62671 9.10758 1.62671 12.0561C1.62671 15.0047 2.7085 17.851 4.66751 20.0567C6.62653 22.2625 9.32693 23.6747 12.2579 24.0262C13.2113 24.1409 14.175 24.1409 15.1284 24.0262C18.0594 23.6747 20.7598 22.2625 22.7188 20.0567C24.6778 17.851 25.7596 15.0047 25.7596 12.0561C25.7596 9.10758 24.6778 6.26128 22.7188 4.05554C20.7598 1.84981 18.0594 0.437586 15.1284 0.0860059ZM18.6591 18.1774C17.6682 18.6664 16.5781 18.9214 15.4729 18.9228C14.1061 18.9221 12.7709 18.5118 11.64 17.7451C10.5091 16.9785 9.63444 15.8906 9.12906 14.6222H7.11971C6.92938 14.6222 6.74683 14.5467 6.61225 14.4122C6.47767 14.2778 6.40208 14.0955 6.40208 13.9054C6.40208 13.7153 6.47767 13.533 6.61225 13.3986C6.74683 13.2641 6.92938 13.1886 7.11971 13.1886H8.72719C8.57407 12.4414 8.57407 11.6709 8.72719 10.9236H6.0576C5.86976 10.9159 5.69174 10.8379 5.5588 10.7051C5.42586 10.5723 5.34774 10.3945 5.33997 10.2068C5.34293 10.0177 5.41949 9.83707 5.55344 9.70328C5.68738 9.5695 5.8682 9.49303 6.0576 9.49007H9.12906C9.48507 8.60231 10.0233 7.79889 10.7091 7.13156C11.395 6.46424 12.2132 5.94783 13.111 5.61559C14.0088 5.28336 14.9664 5.14267 15.922 5.20261C16.8775 5.26254 17.81 5.52175 18.6591 5.96355C18.8266 6.051 18.9525 6.20133 19.009 6.38145C19.0655 6.56158 19.0481 6.75675 18.9606 6.92404C18.873 7.09132 18.7225 7.21702 18.5422 7.27348C18.3618 7.32994 18.1664 7.31252 17.9989 7.22508C16.7286 6.5744 15.2535 6.44713 13.8903 6.87061C12.5272 7.29409 11.3846 8.23454 10.7078 9.49007H14.3821C14.4765 9.48931 14.5702 9.50733 14.6576 9.54308C14.745 9.57883 14.8245 9.6316 14.8912 9.69831C14.958 9.76503 15.0109 9.84434 15.0466 9.93165C15.0824 10.019 15.1005 10.1125 15.0997 10.2068C15.0967 10.396 15.0202 10.5766 14.8863 10.7104C14.7523 10.8442 14.5715 10.9207 14.3821 10.9236H10.1624C10.0802 11.2905 10.0417 11.6659 10.0476 12.0418C10.0417 12.4272 10.0802 12.812 10.1624 13.1886H15.4155C15.6058 13.1886 15.7883 13.2641 15.9229 13.3986C16.0575 13.533 16.1331 13.7153 16.1331 13.9054C16.1331 14.0955 16.0575 14.2778 15.9229 14.4122C15.7883 14.5467 15.6058 14.6222 15.4155 14.6222H10.7078C11.3846 15.8777 12.5272 16.8182 13.8903 17.2416C15.2535 17.6651 16.7286 17.5379 17.9989 16.8872C18.0834 16.842 18.1761 16.8144 18.2714 16.8058C18.3668 16.7973 18.463 16.8081 18.5541 16.8375C18.6452 16.867 18.7294 16.9145 18.8017 16.9772C18.8741 17.0399 18.9329 17.1166 18.9749 17.2026C19.0614 17.3738 19.0768 17.5723 19.0177 17.7548C18.9585 17.9373 18.8297 18.0892 18.6591 18.1774Z" fill="#232323"/>
</g>
<defs>
<clipPath id="clip0_412:248">
<rect width="24.1123" height="24.1123" fill="white" transform="translate(1.63641)"/>
</clipPath>
</defs>
</svg>
