<svg width="43" height="52" viewBox="0 0 43 52" fill="none" xmlns="http://www.w3.org/2000/svg">
<path d="M21.2275 35.8285C22.0664 35.8327 22.8877 35.5875 23.587 35.124C24.2864 34.6605 24.8322 33.9997 25.1552 33.2254C25.4782 32.4511 25.5638 31.5982 25.4011 30.7752C25.2385 29.9521 24.8349 29.196 24.2416 28.6028C23.6484 28.0095 22.8923 27.6059 22.0692 27.4433C21.2462 27.2806 20.3933 27.3662 19.619 27.6892C18.8447 28.0122 18.1839 28.5581 17.7204 29.2574C17.2569 29.9567 17.0117 30.7779 17.0159 31.6169C17.0214 32.7322 17.4669 33.8002 18.2556 34.5888C19.0442 35.3775 20.1122 35.823 21.2275 35.8285Z" fill="#232323"/>
<path d="M11.2804 48.2962C11.2795 46.977 11.541 45.6708 12.0496 44.4536C12.5583 43.2364 13.304 42.1325 14.2434 41.2063C12.9243 40.2108 11.3538 39.6027 9.70825 39.4504C8.06271 39.2981 6.40728 39.6075 4.92786 40.3439C3.44843 41.0803 2.20358 42.2146 1.3331 43.6193C0.462619 45.024 0.000974291 46.6436 0 48.2962C0 51.6401 8.25397 52.7195 13.5238 51.5131C11.7037 50.4973 11.2804 49.2486 11.2804 48.2962Z" fill="#232323"/>
<path d="M8.89945 35.8284C9.73429 35.8289 10.5505 35.5817 11.2448 35.1181C11.9391 34.6546 12.4804 33.9955 12.8 33.2243C13.1197 32.4531 13.2035 31.6044 13.0407 30.7856C12.8779 29.9667 12.476 29.2146 11.8856 28.6243C11.2953 28.034 10.5432 27.632 9.72435 27.4692C8.90553 27.3065 8.05684 27.3902 7.28563 27.7099C6.51442 28.0296 5.85534 28.5708 5.39179 29.2651C4.92824 29.9594 4.68104 30.7756 4.68146 31.6104C4.68202 32.729 5.12659 33.8015 5.91749 34.5924C6.7084 35.3833 7.78094 35.8279 8.89945 35.8284Z" fill="#232323"/>
<path d="M30.1376 48.2963C30.1376 45.936 29.2 43.6724 27.531 42.0034C25.862 40.3345 23.5984 39.3969 21.2381 39.3969C18.8778 39.3969 16.6142 40.3345 14.9452 42.0034C13.2762 43.6724 12.3386 45.936 12.3386 48.2963C12.3386 49.5238 13.418 50.4339 15.0688 51.0477C18.4127 52.3175 24.0423 52.3175 27.4074 51.0477C29.037 50.4318 30.1376 49.5238 30.1376 48.2963Z" fill="#232323"/>
<path d="M33.5662 39.4075C31.6329 39.407 29.7525 40.0387 28.2117 41.2064C29.1541 42.1315 29.9032 43.2347 30.4155 44.4518C30.9278 45.669 31.193 46.9758 31.1958 48.2964C31.1958 49.2487 30.7725 50.4974 28.9524 51.5133C34.2222 52.7196 42.4762 51.6403 42.4762 48.2964C42.4717 45.9366 41.5309 43.6751 39.8603 42.0084C38.1897 40.3418 35.9259 39.4063 33.5662 39.4075Z" fill="#232323"/>
<path d="M33.5704 35.8284C34.4052 35.8289 35.2215 35.5817 35.9158 35.1181C36.6101 34.6546 37.1513 33.9955 37.471 33.2243C37.7907 32.4531 37.8744 31.6044 37.7116 30.7856C37.5489 29.9667 37.1469 29.2146 36.5566 28.6243C35.9663 28.034 35.2141 27.632 34.3953 27.4692C33.5765 27.3065 32.7278 27.3902 31.9566 27.7099C31.1854 28.0296 30.5263 28.5708 30.0628 29.2651C29.5992 29.9594 29.352 30.7756 29.3524 31.6104C29.353 32.729 29.7975 33.8015 30.5885 34.5924C31.3794 35.3833 32.4519 35.8279 33.5704 35.8284Z" fill="#232323"/>
<path d="M1.29102 19.9556H12.8042C12.8042 11.8921 14.6667 3.40532 18.1587 0.230713C13.4589 0.971183 9.17756 3.36478 6.08534 6.98077C2.99312 10.5968 1.29303 15.1977 1.29102 19.9556Z" fill="#232323"/>
<path d="M24.3174 0.232727C27.8095 3.40733 29.6719 11.8941 29.6719 19.9576H41.1852C41.1836 15.1996 39.4836 10.5984 36.3913 6.98235C33.2991 3.36626 29.0175 0.97279 24.3174 0.232727Z" fill="#232323"/>
<path d="M21.6085 0.021164C21.3553 -0.00705467 21.0997 -0.00705467 20.8466 0.021164C16.9524 0.550265 13.8624 9.26983 13.8624 19.9577H28.6138C28.6138 9.26983 25.5238 0.550265 21.6085 0.021164Z" fill="#232323"/>
</svg>
