<svg width="55" height="52" viewBox="0 0 55 52" fill="none" xmlns="http://www.w3.org/2000/svg">
<g clip-path="url(#clip0_457:77)">
<path d="M31.1857 0V16.1889C31.1898 16.4042 31.2057 16.6191 31.2334 16.8327C31.6387 22.3879 37.5039 26.0834 42.7015 28.42C43.1545 28.2054 43.6314 27.9908 44.1082 27.7524C49.0913 25.3205 54.2174 21.6249 54.2174 16.1889V0H31.1857ZM48.829 9.57745L41.4379 16.7301C41.3566 16.8152 41.259 16.883 41.1508 16.9293C41.0426 16.9756 40.9261 16.9994 40.8085 16.9994C40.6908 16.9994 40.5743 16.9756 40.4661 16.9293C40.358 16.883 40.2603 16.8152 40.179 16.7301L37.318 13.8571C37.2327 13.7743 37.1649 13.6751 37.1186 13.5656C37.0723 13.456 37.0484 13.3383 37.0484 13.2193C37.0484 13.1004 37.0723 12.9827 37.1186 12.8732C37.1649 12.7636 37.2327 12.6645 37.318 12.5816C37.3988 12.4962 37.4962 12.4282 37.6043 12.3818C37.7123 12.3353 37.8286 12.3114 37.9462 12.3114C38.0638 12.3114 38.1801 12.3353 38.2881 12.3818C38.3962 12.4282 38.4936 12.4962 38.5744 12.5816L40.8204 14.8275L47.5749 8.31143C47.6578 8.22614 47.7569 8.15833 47.8665 8.11203C47.976 8.06574 48.0937 8.04188 48.2127 8.04188C48.3316 8.04188 48.4493 8.06574 48.5589 8.11203C48.6684 8.15833 48.7676 8.22614 48.8505 8.31143C49.0144 8.48225 49.1048 8.7106 49.1021 8.94736C49.0994 9.18412 49.004 9.41038 48.8362 9.57745H48.829Z" fill="#232323"/>
<path d="M30.0413 16.928C30.0127 16.6826 29.9968 16.4359 29.9936 16.1889V15.5928L21.3388 6.86658L0 28.42H39.9596C33.6176 25.1297 30.3512 21.3603 30.0413 16.928Z" fill="#232323"/>
<path d="M6.07977 29.6121V52H15.7121H15.7359H17.6194V40.4341H25.0105V52H36.6217V29.6121H6.07977Z" fill="#232323"/>
</g>
<defs>
<clipPath id="clip0_457:77">
<rect width="54.2173" height="52" fill="white"/>
</clipPath>
</defs>
</svg>
