<svg width="40" height="52" viewBox="0 0 40 52" fill="none" xmlns="http://www.w3.org/2000/svg">
<g clip-path="url(#clip0_412:265)">
<path d="M24.8823 52H0V0H31.2009L39.5197 8.32099V51.9978H24.8823V52Z" fill="#232323"/>
<path d="M26.0022 5.68018H11.441V6.80009H26.0022V5.68018Z" fill="white"/>
<path d="M26 33.8394H5.19867V32.7195H26V33.8394ZM34.3188 29.6801H5.20091V28.5602H34.3188V29.6801ZM34.3188 25.5207H5.20091V24.4008H34.3188V25.5207ZM34.3188 21.3591H5.20091V20.2392H34.3188V21.3591ZM34.3188 17.1997H5.20091V16.0798H34.3188V17.1997ZM34.3188 13.0403H5.20091V11.9204H34.3188V13.0403Z" fill="white"/>
<path fill-rule="evenodd" clip-rule="evenodd" d="M31.2009 0V8.32099H39.5196" fill="#232323"/>
<path d="M39.5196 8.88094H30.6409V0H31.7608V7.76103H39.5196V8.88094Z" fill="white"/>
<path d="M26.3561 40.093L19.4126 46.8125C19.2557 46.9702 19.0437 47.0609 18.8213 47.0656C18.5995 47.0613 18.3881 46.9704 18.2322 46.8125L15.522 44.1247C15.4419 44.0468 15.3782 43.9537 15.3347 43.8508C15.2912 43.7479 15.2688 43.6373 15.2688 43.5255C15.2688 43.4138 15.2912 43.3032 15.3347 43.2003C15.3782 43.0974 15.4419 43.0043 15.522 42.9264C15.598 42.8462 15.6895 42.7823 15.791 42.7387C15.8925 42.6951 16.0018 42.6726 16.1122 42.6726C16.2227 42.6726 16.332 42.6951 16.4334 42.7387C16.5349 42.7823 16.6265 42.8462 16.7024 42.9264L18.8123 45.0363L25.1578 38.9149C25.2358 38.835 25.329 38.7716 25.4319 38.7282C25.5348 38.6849 25.6453 38.6626 25.7569 38.6626C25.8686 38.6626 25.9791 38.6849 26.082 38.7282C26.1849 38.7716 26.2781 38.835 26.3561 38.9149C26.5086 39.0731 26.5938 39.2842 26.5938 39.5039C26.5938 39.7236 26.5086 39.9348 26.3561 40.093Z" fill="white"/>
</g>
<defs>
<clipPath id="clip0_412:265">
<rect width="39.5196" height="52" fill="white"/>
</clipPath>
</defs>
</svg>
