<svg width="73" height="96" viewBox="0 0 73 96" fill="none" xmlns="http://www.w3.org/2000/svg">
<path d="M45.936 96H0V0H57.6L72.96 15.36V96H45.936Z" fill="#232323"/>
<path d="M48 10.4883H21.12V12.5571H48V10.4883Z" fill="white"/>
<path d="M48 62.4766H9.59998V60.4078H48V62.4766ZM63.36 54.7966H9.59998V52.7278H63.36V54.7966ZM63.36 47.1166H9.59998V45.0478H63.36V47.1166ZM63.36 39.4366H9.59998V37.3678H63.36V39.4366ZM63.36 31.7566H9.59998V29.6878H63.36V31.7566ZM63.36 24.0766H9.59998V22.0078H63.36V24.0766Z" fill="white"/>
<path fill-rule="evenodd" clip-rule="evenodd" d="M57.6 0V15.36H72.96" fill="#232323"/>
<path d="M72.96 16.392H56.568V0H58.632V14.328H72.96V16.392Z" fill="white"/>
<path d="M48.6576 74.0162L35.8224 86.4338C35.6824 86.5823 35.5135 86.7006 35.3262 86.7814C35.1388 86.8623 34.9369 86.904 34.7328 86.904C34.5287 86.904 34.3268 86.8623 34.1394 86.7814C33.9521 86.7006 33.7832 86.5823 33.6432 86.4338L28.656 81.4514C28.5078 81.3078 28.39 81.1358 28.3095 80.9458C28.229 80.7557 28.1876 80.5514 28.1876 80.345C28.1876 80.1386 28.229 79.9343 28.3095 79.7443C28.39 79.5542 28.5078 79.3822 28.656 79.2386C28.7964 79.0907 28.9654 78.973 29.1527 78.8925C29.34 78.8121 29.5417 78.7706 29.7456 78.7706C29.9495 78.7706 30.1512 78.8121 30.3385 78.8925C30.5258 78.973 30.6948 79.0907 30.8352 79.2386L34.7328 83.1314L46.4448 71.8322C46.5884 71.684 46.7604 71.5662 46.9505 71.4857C47.1405 71.4052 47.3448 71.3638 47.5512 71.3638C47.7576 71.3638 47.9619 71.4052 48.1519 71.4857C48.342 71.5662 48.514 71.684 48.6576 71.8322C48.9412 72.125 49.0997 72.5166 49.0997 72.9242C49.0997 73.3318 48.9412 73.7234 48.6576 74.0162Z" fill="white"/>
</svg>
