<svg width="93" height="96" viewBox="0 0 93 96" fill="none" xmlns="http://www.w3.org/2000/svg">
<g clip-path="url(#clip0_477:638)">
<path d="M85.3272 21.8803H65.2802V90.2923H85.3272V21.8803Z" fill="#232323"/>
<path d="M61.6985 48.5262H41.6472V90.2881H61.6985V48.5262Z" fill="#232323"/>
<path d="M37.777 64.1938H17.7215V90.288H37.777V64.1938Z" fill="#232323"/>
<path d="M92.0491 90.288H11.1183V96H92.0491V90.288Z" fill="#232323"/>
<path d="M73.2752 10.0617L72.4095 11.1014L71.5608 12.1199L71.4122 12.2854L70.4277 13.4694L55.49 31.3267L38.7573 31.454L20.8745 57.527H0V52.719H18.3453L36.2154 26.6756L53.2282 26.5398L66.6678 10.4776L67.6609 9.28938L68.5478 8.23271L69.596 6.98083L70.3471 7.61738L71.739 8.7759L73.2752 10.0617Z" fill="#232323"/>
<path d="M66.9904 5.26639L74.926 11.5852L75.8766 2.24066L66.9904 5.26639Z" fill="#232323"/>
<path d="M76.1779 14.56L63.8119 4.71895L77.6632 0L76.1779 14.56Z" fill="#232323"/>
</g>
<defs>
<clipPath id="clip0_477:638">
<rect width="92.0534" height="96" fill="white"/>
</clipPath>
</defs>
</svg>
