<svg width="96" height="89" viewBox="0 0 96 89" fill="none" xmlns="http://www.w3.org/2000/svg">
<g clip-path="url(#clip0_477:658)">
<path d="M37.9977 29.137C38.4413 29.8071 39.0126 30.3831 39.6792 30.8321C40.3457 31.281 41.0942 31.5941 41.8819 31.7532C42.6696 31.9124 43.481 31.9146 44.2695 31.7597C45.0581 31.6047 45.8083 31.2957 46.4772 30.8504C46.8068 30.6301 47.1149 30.3792 47.3975 30.101L61.0961 16.4024C61.2395 16.2577 61.4101 16.1429 61.5982 16.0645C61.7862 15.9861 61.9879 15.9458 62.1916 15.9458C62.3953 15.9458 62.597 15.9861 62.7851 16.0645C62.9731 16.1429 63.1438 16.2577 63.2872 16.4024C63.4288 16.5359 63.5428 16.6959 63.6225 16.8735C63.7023 17.051 63.7462 17.2425 63.7519 17.437C63.7576 17.6316 63.7249 17.8253 63.6557 18.0072C63.5865 18.1891 63.4821 18.3555 63.3485 18.4971L63.2872 18.554L61.9725 19.8687C61.5773 20.2647 61.3553 20.8013 61.3553 21.3608C61.3553 21.9203 61.5773 22.4569 61.9725 22.8529L83.9535 44.8733C84.1496 45.0697 84.3826 45.2255 84.639 45.3317C84.8954 45.438 85.1702 45.4927 85.4478 45.4927C85.7253 45.4927 86.0002 45.438 86.2566 45.3317C86.513 45.2255 86.7459 45.0697 86.9421 44.8733L88.7432 43.0591C93.397 38.3959 96.0107 32.0769 96.0107 25.4888C96.0107 18.9007 93.397 12.5817 88.7432 7.91853C83.9073 3.10228 77.3603 0.398193 70.5353 0.398193C63.7102 0.398193 57.1632 3.10228 52.3274 7.91853L38.9837 21.2578C37.9419 22.2596 37.2755 23.5887 37.0961 25.0229C36.9166 26.457 37.2349 27.9093 37.9977 29.137Z" fill="#232323"/>
<path d="M16.753 57.1872L17.4629 56.4992L10.1578 49.1722L9.31209 49.9961C8.34124 50.9681 7.79593 52.2857 7.79593 53.6596C7.79593 55.0334 8.34124 56.351 9.31209 57.323C9.55271 57.5637 9.81697 57.7795 10.1009 57.9672C11.1344 58.6089 12.355 58.8811 13.5632 58.7395C14.7715 58.5978 15.8959 58.0506 16.753 57.1872Z" fill="#232323"/>
<path d="M19.6365 58.6465L18.9747 59.2907C18.9577 59.3245 18.9339 59.3543 18.9046 59.3783L14.391 63.9139C13.5074 64.7625 12.9417 65.8887 12.7886 67.1042C12.6354 68.3197 12.9041 69.551 13.5496 70.5923C13.9745 71.2306 14.5356 71.7669 15.1926 72.1624C15.8495 72.5579 16.586 72.8029 17.349 72.8797C18.1072 72.9491 18.8716 72.8551 19.5904 72.6041C20.3093 72.3532 20.966 71.9511 21.5164 71.4249L26.9459 65.9735L19.6365 58.6465Z" fill="#232323"/>
<path d="M29.1195 68.1382L23.69 73.5853C23.1915 74.0835 22.7999 74.6781 22.5391 75.3329C22.2784 75.9877 22.1541 76.6888 22.1737 77.3934C22.187 78.0971 22.347 78.7904 22.6435 79.4288C22.9401 80.0672 23.3667 80.6366 23.8959 81.1006C24.9562 81.9659 26.3029 82.4011 27.669 82.3199C29.0351 82.2387 30.3208 81.6471 31.2711 80.6624L34.5665 77.3671C34.5928 77.3189 34.6147 77.3189 34.6366 77.275L36.4201 75.4871L29.1195 68.1382Z" fill="#232323"/>
<path d="M36.7707 79.4968C35.7996 80.4461 35.2188 81.7244 35.1426 83.0803C35.0664 84.4362 35.5002 85.7716 36.3588 86.8238C36.8314 87.3415 37.4039 87.7582 38.0418 88.0489C38.6796 88.3396 39.3697 88.4982 40.0705 88.5153C40.7738 88.539 41.4744 88.4169 42.1283 88.1567C42.7821 87.8965 43.3751 87.5038 43.8698 87.0034L45.9338 84.9482L38.6244 77.665L36.7707 79.4968Z" fill="#232323"/>
<path d="M58.1381 21.9503L47.7918 32.3184C45.6008 34.4745 41.3939 34.0231 38.7558 32.4718L38.5718 32.3535C35.4254 30.3991 33.5805 25.3903 35.5306 22.2439C35.8666 21.7069 36.275 21.2188 36.7444 20.7934L46.8584 10.6794L43.7427 7.55924C38.9169 2.72496 32.3685 0.00548765 25.5377 -0.00108669C18.707 -0.00766102 12.1534 2.69922 7.31821 7.5242L7.28315 7.55924H7.25686C2.61589 12.2185 0.0101624 18.5269 0.0101624 25.1032C0.0101624 31.6795 2.61589 37.9879 7.25686 42.6472L49.4921 84.8825C50.3488 85.7489 51.4725 86.3015 52.6818 86.4509C53.8911 86.6004 55.1155 86.3381 56.1574 85.7063C56.7999 85.2824 57.3406 84.7215 57.7406 84.0638C58.1407 83.4062 58.3901 82.6681 58.4712 81.9026C58.5385 81.1419 58.4406 80.3757 58.1842 79.6564C57.9278 78.9371 57.5189 78.2817 56.9856 77.7352H56.9593L38.0591 58.8174C37.9176 58.6802 37.8047 58.5165 37.7266 58.3356C37.6485 58.1547 37.6068 57.9602 37.604 57.7632C37.6011 57.5662 37.6371 57.3706 37.71 57.1876C37.7828 57.0045 37.891 56.8376 38.0284 56.6964L38.0591 56.6657C38.3214 56.3774 38.6874 56.2048 39.0768 56.1859C39.4662 56.167 39.8472 56.3033 40.1362 56.5649L40.237 56.6657L59.1373 75.5353C59.1935 75.5878 59.2395 75.6502 59.2731 75.7194L63.5588 79.9788C64.4143 80.8474 65.5382 81.4014 66.7481 81.5509C67.958 81.7005 69.1829 81.4368 70.2241 80.8027C70.8702 80.3851 71.4123 79.8252 71.8088 79.166C72.2052 78.5067 72.4456 77.7654 72.5116 76.999C72.5902 76.24 72.4997 75.4731 72.2466 74.7533C71.9936 74.0335 71.5842 73.3787 71.048 72.8359H71.0261L47.5245 49.3344C47.2407 49.0403 47.0821 48.6475 47.0821 48.2388C47.0821 47.8301 47.2407 47.4374 47.5245 47.1433C47.8153 46.8532 48.2093 46.6903 48.6201 46.6903C49.0308 46.6903 49.4248 46.8532 49.7156 47.1433L73.2347 70.6448V70.6886C73.731 71.1788 74.3229 71.5618 74.9734 71.8135C75.624 72.0653 76.3194 72.1806 77.0165 72.1523C77.7184 72.1481 78.4115 71.9956 79.0504 71.7049C79.6893 71.4141 80.2596 70.9917 80.7238 70.4652C81.5949 69.4074 82.0338 68.0594 81.9525 66.6916C81.8713 65.3237 81.2758 64.0371 80.2856 63.09L77.1961 59.9743L57.0645 39.8645C56.7739 39.574 56.6107 39.1799 56.6107 38.769C56.6107 38.3581 56.7739 37.964 57.0645 37.6735C57.355 37.3829 57.7491 37.2197 58.16 37.2197C58.5709 37.2197 58.965 37.3829 59.2556 37.6735L79.3434 57.7657C79.3434 57.7657 79.3697 57.7657 79.3697 57.8095C79.8713 58.3018 80.4661 58.689 81.1192 58.9486C81.7724 59.2082 82.4707 59.3349 83.1734 59.3213C83.8792 59.3024 84.5732 59.1367 85.2115 58.835C85.8498 58.5332 86.4182 58.1019 86.8807 57.5685C87.7508 56.5103 88.1891 55.1625 88.1079 53.7949C88.0266 52.4274 87.4318 51.141 86.4425 50.1933L58.1381 21.9503Z" fill="#232323"/>
</g>
<defs>
<clipPath id="clip0_477:658">
<rect width="96" height="88.5196" fill="white"/>
</clipPath>
</defs>
</svg>
