<svg width="109" height="96" viewBox="0 0 109 96" fill="none" xmlns="http://www.w3.org/2000/svg">
<path d="M53.3437 62.718C41.6296 60.384 31.5489 54.5958 25.6684 46.8938C25.3311 46.4775 25.0194 46.041 24.7351 45.5869C10.8274 46.4738 0 54.7359 0 64.8185C0 71.2135 4.38698 76.8617 11.0608 80.3626L6.72046 96L27.2552 84.1902C42.3296 84.1902 54.5105 75.508 54.5105 64.8185C54.512 64.178 54.4652 63.5382 54.3704 62.9047C54.0438 62.8767 53.6704 62.7833 53.3437 62.718Z" fill="#232323"/>
<path d="M108.974 30.808C108.974 13.7703 89.5596 0 65.6179 0C41.6763 0 22.2616 13.7703 22.2616 30.808C22.2616 36.1294 24.1751 41.1241 27.4886 45.5119C33.0423 52.7004 42.4697 58.1618 53.8105 60.4491C57.7033 61.1864 61.656 61.5614 65.6179 61.5694L98.3336 80.3809L91.3331 55.5945C102.02 49.993 108.974 40.984 108.974 30.808Z" fill="#232323"/>
</svg>
